<svg xmlns="http://www.w3.org/2000/svg" viewBox="0 0 750 500"><g id="freepik--background-complete--inject-114"><rect x="97.05" y="196.1" width="81.09" height="88.62" style="fill:#e6e6e6"></rect><rect x="106.15" y="206.42" width="62.19" height="67.97" style="fill:#f5f5f5"></rect><rect x="97.05" y="81.25" width="81.09" height="88.62" style="fill:#e6e6e6"></rect><rect x="106.15" y="91.57" width="62.19" height="67.97" style="fill:#f5f5f5"></rect><path d="M673.73,328.9H493a5.87,5.87,0,0,1-5.86-5.86V59.77A5.87,5.87,0,0,1,493,53.9H673.73a5.87,5.87,0,0,1,5.87,5.87V323A5.87,5.87,0,0,1,673.73,328.9ZM493,54.15a5.62,5.62,0,0,0-5.61,5.62V323a5.61,5.61,0,0,0,5.61,5.61H673.73a5.62,5.62,0,0,0,5.62-5.61V59.77a5.62,5.62,0,0,0-5.62-5.62Z" style="fill:#e0e0e0"></path><path d="M465.31,328.9H284.56A5.87,5.87,0,0,1,278.7,323V59.77a5.87,5.87,0,0,1,5.86-5.87H465.31a5.87,5.87,0,0,1,5.86,5.87V323A5.87,5.87,0,0,1,465.31,328.9ZM284.56,54.15A5.62,5.62,0,0,0,279,59.77V323a5.62,5.62,0,0,0,5.61,5.61H465.31a5.62,5.62,0,0,0,5.61-5.61V59.77a5.62,5.62,0,0,0-5.61-5.62Z" style="fill:#e0e0e0"></path><path d="M257,328.9H76.27A5.87,5.87,0,0,1,70.4,323V59.77a5.87,5.87,0,0,1,5.87-5.87H257a5.87,5.87,0,0,1,5.86,5.87V323A5.87,5.87,0,0,1,257,328.9ZM76.27,54.15a5.62,5.62,0,0,0-5.62,5.62V323a5.62,5.62,0,0,0,5.62,5.61H257a5.61,5.61,0,0,0,5.61-5.61V59.77A5.62,5.62,0,0,0,257,54.15Z" style="fill:#e0e0e0"></path><rect y="360.22" width="750" height="0.12" style="fill:#e0e0e0"></rect><rect x="653.63" y="378.64" width="55.73" height="0.42" style="fill:#ebebeb"></rect><rect x="495.04" y="383.21" width="14.63" height="0.42" style="fill:#ebebeb"></rect><rect x="40.64" y="365.85" width="72.67" height="0.42" style="fill:#ebebeb"></rect><rect x="128.3" y="365.85" width="10.66" height="0.42" style="fill:#ebebeb"></rect><rect x="173.59" y="372.95" width="157.61" height="0.42" style="fill:#ebebeb"></rect><rect x="437.19" y="63.24" width="232.49" height="257.26" style="fill:#e6e6e6"></rect><rect x="447.42" y="73.43" width="212.64" height="237.41" style="fill:#f5f5f5"></rect><polygon points="507.51 73.43 447.42 298.49 447.42 176.65 474.92 73.43 507.51 73.43" style="fill:#fff"></polygon><polygon points="534.37 73.43 470.99 310.84 459.04 310.84 522.42 73.43 534.37 73.43" style="fill:#fff"></polygon><polygon points="660.05 138.17 660.05 260.03 646.59 310.84 614 310.84 660.05 138.17" style="fill:#fff"></polygon><rect x="549.3" y="63.24" width="8.26" height="257.26" style="fill:#e6e6e6"></rect><rect x="441.22" y="115.44" width="223.99" height="8.26" style="fill:#e6e6e6"></rect></g><g id="freepik--Shadow--inject-114"><path d="M634.77,471.77c0,5-116.93,9-261.17,9s-261.16-4-261.16-9,116.93-9,261.16-9S634.77,466.78,634.77,471.77Z" style="fill:#f0f0f0"></path></g><g id="freepik--Jam--inject-114"><path d="M607.82,412.37v-2.62l-11.12-.16v-.13l-4.48.07-4.48-.07v.13l-11.11.16v2.62s-11.87,9.25-9.43,22.17S576.63,459,576.63,459h31.19s7-11.52,9.42-24.43S607.82,412.37,607.82,412.37Z" style="fill:#407BFF"></path><path d="M606.13,414.24v-4.15H578.32v4.15s-10.59,8.25-8.41,19.76a74.74,74.74,0,0,0,8.41,21.79h27.81a74.87,74.87,0,0,0,8.4-21.79C616.71,422.49,606.13,414.24,606.13,414.24Z" style="fill:#fff;opacity:0.2"></path><path d="M607.82,412.37v-2.62l-11.12-.16v-.13l-4.48.07-4.48-.07v.13l-11.11.16v2.62s-11.87,9.25-9.43,22.17S576.63,459,576.63,459h31.19s7-11.52,9.42-24.43S607.82,412.37,607.82,412.37Z" style="fill:#fff;opacity:0.2"></path><rect x="574.38" y="403.84" width="36.42" height="6.25" style="fill:#263238"></rect><path d="M569.91,434a74.74,74.74,0,0,0,8.41,21.79h27.81a74.87,74.87,0,0,0,8.4-21.79Z" style="fill:#407BFF"></path><path d="M582.06,410.09v4.38a21.28,21.28,0,0,0-5.19,15.93c.69,10.13,8.38,25.39,8.38,25.39h3s-10.82-27.47-.64-40.74l.11-4.95Z" style="fill:#fff;opacity:0.2"></path></g><g id="freepik--Roaster--inject-114"><path d="M531.58,355c-3.82-2.56-8.6-3.15-13.19-3.31a90,90,0,0,0-18.1,1.21,22,22,0,0,0-8.69,2.92c-2.57,1.71-4.53,4.63-4.3,7.7.14,2,1.2,3.89,2,5.79,0,0-.72,12.95-.44,20l.91,3.27c-1.06,1.28-.49,3.34.78,4.41a9.19,9.19,0,0,0,4.62,1.63,116.54,116.54,0,0,0,29.91.62c2-.21,4.11-.53,5.63-1.84a7.37,7.37,0,0,0,2.18-5.72c0-2.1-.35-4-.47-6.08-.3-5.42.09-14.49.09-14.49,1-1.76,2.91-2.37,3.67-4.26C537.87,362.65,535.39,357.58,531.58,355Z" style="fill:#407BFF"></path><g style="opacity:0.7000000000000001"><path d="M529,357c-3.3-2.22-7.44-2.72-11.42-2.86a76.87,76.87,0,0,0-15.67,1,19,19,0,0,0-7.53,2.53c-2.22,1.48-3.92,4-3.72,6.67.12,1.77,1,3.37,1.69,5,0,0-.61,11.22-.38,17.36l-.11,1.94a5.37,5.37,0,0,0,1.58,4.7,7.88,7.88,0,0,0,4,1.42,101.16,101.16,0,0,0,25.9.54,8.74,8.74,0,0,0,4.87-1.6,6.32,6.32,0,0,0,1.89-5c0-1.82-.3-3.44-.4-5.26-.26-4.7.07-12.55.07-12.55.88-1.53,2.52-2.06,3.18-3.7C534.4,363.59,532.25,359.2,529,357Z" style="fill:#fff"></path></g><path d="M499.62,376.26A1.67,1.67,0,1,1,498,374.6,1.67,1.67,0,0,1,499.62,376.26Z" style="fill:#fff;opacity:0.2"></path><path d="M525.24,384.45a1.67,1.67,0,1,1-1.67-1.67A1.66,1.66,0,0,1,525.24,384.45Z" style="fill:#fff;opacity:0.2"></path><path d="M501.55,371.42a1,1,0,1,1-1-1A1,1,0,0,1,501.55,371.42Z" style="fill:#fff;opacity:0.2"></path><g style="opacity:0.2"><path d="M531.58,355c-3.82-2.56-8.6-3.15-13.19-3.31a90,90,0,0,0-18.1,1.21,22,22,0,0,0-8.69,2.92c-2.57,1.71-4.53,4.63-4.3,7.7.14,2,1.2,3.89,2,5.79,0,0-.72,12.95-.44,20l.91,3.27c-1.06,1.28-.49,3.34.78,4.41a9.19,9.19,0,0,0,4.62,1.63,116.54,116.54,0,0,0,29.91.62c2-.21,4.11-.53,5.63-1.84a7.37,7.37,0,0,0,2.18-5.72c0-2.1-.35-4-.47-6.08-.3-5.42.09-14.49.09-14.49,1-1.76,2.91-2.37,3.67-4.26C537.87,362.65,535.39,357.58,531.58,355Z"></path></g><polygon points="466.38 453.53 468.12 459.55 474.86 459.55 474.86 452.15 466.38 453.53" style="fill:#263238"></polygon><polygon points="533.38 453.53 531.64 459.55 524.9 459.55 524.9 452.15 533.38 453.53" style="fill:#263238"></polygon><path d="M520.92,355c-3.82-2.56-8.6-3.15-13.19-3.31a89.9,89.9,0,0,0-18.1,1.21,22,22,0,0,0-8.7,2.92c-2.56,1.71-4.52,4.63-4.3,7.7.15,2,1.2,3.89,2,5.79,0,0-.71,12.95-.43,20l.9,3.27c-1.06,1.28-.48,3.34.79,4.41a9.15,9.15,0,0,0,4.62,1.63,116.54,116.54,0,0,0,29.91.62c2-.21,4.11-.53,5.63-1.84a7.37,7.37,0,0,0,2.18-5.72c0-2.1-.35-4-.47-6.08-.3-5.42.09-14.49.09-14.49,1-1.76,2.91-2.37,3.67-4.26C527.2,362.65,524.73,357.58,520.92,355Z" style="fill:#407BFF"></path><g style="opacity:0.2"><path d="M520.92,355c-3.82-2.56-8.6-3.15-13.19-3.31a89.9,89.9,0,0,0-18.1,1.21,22,22,0,0,0-8.7,2.92c-2.56,1.71-4.52,4.63-4.3,7.7.15,2,1.2,3.89,2,5.79,0,0-.71,12.95-.43,20l.9,3.27c-1.06,1.28-.48,3.34.79,4.41a9.15,9.15,0,0,0,4.62,1.63,116.54,116.54,0,0,0,29.91.62c2-.21,4.11-.53,5.63-1.84a7.37,7.37,0,0,0,2.18-5.72c0-2.1-.35-4-.47-6.08-.3-5.42.09-14.49.09-14.49,1-1.76,2.91-2.37,3.67-4.26C527.2,362.65,524.73,357.58,520.92,355Z" style="fill:#fff"></path></g><g style="opacity:0.7000000000000001"><path d="M518.29,357c-3.3-2.22-7.45-2.72-11.42-2.86a76.87,76.87,0,0,0-15.67,1,19,19,0,0,0-7.53,2.53c-2.22,1.48-3.92,4-3.73,6.67.13,1.77,1,3.37,1.7,5,0,0-.61,11.22-.38,17.36l-.11,1.94a5.37,5.37,0,0,0,1.58,4.7,7.85,7.85,0,0,0,4,1.42,101.16,101.16,0,0,0,25.9.54,8.74,8.74,0,0,0,4.87-1.6,6.36,6.36,0,0,0,1.89-5c0-1.82-.3-3.44-.4-5.26-.26-4.7.07-12.55.07-12.55.88-1.53,2.52-2.06,3.18-3.7C523.73,363.59,521.59,359.2,518.29,357Z" style="fill:#fff"></path></g><path d="M489,376.26a1.67,1.67,0,1,1-1.67-1.66A1.67,1.67,0,0,1,489,376.26Z" style="fill:#fff;opacity:0.2"></path><path d="M514.57,384.45a1.67,1.67,0,0,1-3.33,0,1.67,1.67,0,1,1,3.33,0Z" style="fill:#fff;opacity:0.2"></path><path d="M490.88,371.42a1,1,0,1,1-1-1A1,1,0,0,1,490.88,371.42Z" style="fill:#fff;opacity:0.2"></path><path d="M530,453.53H470.1a18.6,18.6,0,0,1-18.55-17.31l-2.31-33.57a18.6,18.6,0,0,1,18.55-19.87h64.36a18.6,18.6,0,0,1,18.56,19.76l-2.12,33.57A18.6,18.6,0,0,1,530,453.53Z" style="fill:#407BFF"></path><g style="opacity:0.2"><path d="M494.74,390.09,494,389A76.1,76.1,0,0,0,468.94,390c-4.33.91-9,2.48-11.31,6.23-2.07,3.31-1.87,7.49-1.6,11.38.63,9,1.31,18.21,4.88,26.5.69,1.59,1.93,3.39,3.64,3.15,1.31-.18,2.12-1.49,2.61-2.72,1.95-4.87,1.67-10.29,1.93-15.53s1.26-10.87,5-14.51c4.14-4,10.41-4.52,15.75-6.66a9.94,9.94,0,0,0,4.29-2.89A4.52,4.52,0,0,0,494.74,390.09Z" style="fill:#fff"></path></g><path d="M548.29,409.8h0a2.19,2.19,0,0,0,2.1,2.28l1.72.07a2.18,2.18,0,0,0,2.27-2.1h0a2.19,2.19,0,0,0-2.1-2.28l-1.72-.07A2.2,2.2,0,0,0,548.29,409.8Z" style="fill:#263238"></path></g><g id="freepik--Clock--inject-114"><circle cx="338.04" cy="115.44" r="40.98" transform="translate(17.38 272.84) rotate(-45)" style="fill:#407BFF"></circle><circle cx="338.04" cy="115.44" r="35.67" transform="translate(17.38 272.84) rotate(-45)" style="fill:#fff;opacity:0.7000000000000001"></circle><path d="M339.45,115.94h0c-10.27-.08-25.86-.16-26.71,0a.52.52,0,0,1-.59-.39.49.49,0,0,1,.36-.58c.83-.21,21.14-.06,26.45,0V90.64a.5.5,0,0,1,.5-.5.5.5,0,0,1,.5.5v24.8a.55.55,0,0,1-.15.36A.52.52,0,0,1,339.45,115.94Z" style="fill:#263238"></path></g><g id="freepik--Glass--inject-114"><path d="M132.65,412.91H110.56l1.76,21.69,2.86,4,3,20.39s10,.23,13.34.11c3.38.12,13.35-.11,13.35-.11l3-20.39,2.86-4,1.75-21.69Z" style="fill:#407BFF"></path><path d="M132.65,412.91H110.56l1.76,21.69,2.86,4,3,20.39s10,.23,13.34.11c3.38.12,13.35-.11,13.35-.11l3-20.39,2.86-4,1.75-21.69Z" style="fill:#fff;opacity:0.6000000000000001"></path><path d="M113.62,412.91l1.73,21.31,2.41,3.4,2.55,18.2s8.4.19,11.24.09c2.84.1,11.24-.09,11.24-.09l2.56-18.2,2.41-3.4,1.72-21.31Z" style="fill:#fff;opacity:0.4"></path><path d="M147.76,434.22l-2.41,3.4-2.56,18.2s-8.4.19-11.24.09c-2.84.1-11.24-.09-11.24-.09l-2.55-18.2-2.41-3.4-.39-4.79h33.18Z" style="fill:#407BFF"></path><path d="M118.21,459.05l-2.07-14.23h4.53a3.47,3.47,0,0,1,3.43,3.5v10.85Z" style="fill:#fff;opacity:0.2"></path><path d="M144.81,459.05l2.07-14.23h-4.53a3.47,3.47,0,0,0-3.43,3.5v10.85Z" style="fill:#fff;opacity:0.2"></path><path d="M127.84,444.82h0a3.51,3.51,0,0,1,3.51,3.51v10.84a0,0,0,0,1,0,0h-7a0,0,0,0,1,0,0V448.33A3.51,3.51,0,0,1,127.84,444.82Z" style="fill:#fff;opacity:0.2"></path><path d="M138.69,459.17h-7V448.33a3.51,3.51,0,0,1,3.51-3.51h0a3.51,3.51,0,0,1,3.51,3.51Z" style="fill:#fff;opacity:0.2"></path><path d="M127.84,430.31l-7.94-34.53a2.07,2.07,0,0,0-1-1.35,2,2,0,0,0-1.67-.18l-9,2.86-.61-1.91,9-2.86a4.1,4.1,0,0,1,5.24,3l7.94,34.54Z" style="fill:#407BFF"></path></g><g id="freepik--Table--inject-114"><rect x="80.62" y="458.97" width="588.75" height="10.1" style="fill:#263238"></rect></g><g id="freepik--Character--inject-114"><path d="M223.36,171.54C213.55,187,210,196.4,208.42,211.62c-1.79,17.78-1.71,33.56,2.06,38.31,4.94,6.24,61.11,14.49,92.79,14.67,1.14,0,2.56-10,2.56-10s4,10,5.52,10c8.64,0,14.19-.06,14.19-.06s-6.47-15-12.78-68.57c-3.08-26.14-28.69-37.7-44-40.37C243.32,151.19,223.36,171.54,223.36,171.54Z" style="fill:#263238"></path><path d="M296.23,225.13c8.94-13.93,18.94-52.12-15-65.62-42.36-16.85-62.91,9.71-67.87,36.74s9.42,48.31,38,47.57S290.05,234.76,296.23,225.13Z" style="fill:#263238"></path><path d="M225.4,276.49s9.53,7.32,21.8,17.9a46.09,46.09,0,0,0,8.35,5.69c8,4.27,15.37,6.71,17.35,2.83a13.61,13.61,0,0,0,1-2.74c1.68-6.49,1-15.61-4.26-19.79-5.91-4.71-8.77-8.74-7.7-15.11a47.61,47.61,0,0,1,3.4-11l-4.66-5.44-24.34-24.57C237,240.69,238.23,267.58,225.4,276.49Z" style="fill:#ebb373"></path><path d="M261.78,266.67c-6.69-4-14-10.87-13.16-18.75a36.84,36.84,0,0,1,1.9-8.47l13.6,18A46.15,46.15,0,0,0,261.78,266.67Z" style="opacity:0.2"></path><path d="M229.48,197.93c2.29,25,2.74,35.62,15.65,48.74,19.41,19.73,49.29,13.09,54.43-11.71,4.63-22.31.1-59.47-24.46-70C250.91,154.61,227.19,172.91,229.48,197.93Z" style="fill:#ebb373"></path><path d="M260.85,207c.14,2.52,1.69,4.59,3.46,4.63s3.09-2,2.95-4.5-1.69-4.59-3.46-4.63S260.71,204.47,260.85,207Z" style="fill:#263238"></path><path d="M286.85,206.53c.14,2.41,1.67,4.39,3.4,4.42s3-1.88,2.9-4.29-1.66-4.38-3.4-4.42S286.72,204.13,286.85,206.53Z" style="fill:#263238"></path><path d="M257.31,197.75a1.29,1.29,0,0,0,1-.19,10.37,10.37,0,0,1,9.1-1.46,1.21,1.21,0,0,0,1.62-.68,1.37,1.37,0,0,0-.88-1.64,12.93,12.93,0,0,0-11.53,1.72,1.18,1.18,0,0,0-.15,1.74A1.46,1.46,0,0,0,257.31,197.75Z" style="fill:#263238"></path><path d="M295.7,194.39a1.12,1.12,0,0,0,.6-.66,1.21,1.21,0,0,0-.81-1.52,12.89,12.89,0,0,0-11.38,1.11,1.13,1.13,0,0,0-.19,1.66,1.33,1.33,0,0,0,1.77.24,10.32,10.32,0,0,1,9-.78A1.37,1.37,0,0,0,295.7,194.39Z" style="fill:#263238"></path><path d="M250.38,175.68c8,8.36,4,39.93-18.34,44C206.3,213.68,226.63,150.74,250.38,175.68Z" style="fill:#263238"></path><path d="M280.26,229.9a69.7,69.7,0,0,0-4.48,9.21c-.59-.13-1.19-.25-1.77-.4-8-1.87-11-5.36-12-8.67a10.54,10.54,0,0,1-.16-5,10.31,10.31,0,0,1,.88-2.72c3.63,3.51,10.92,5.82,14.87,6.89C279.2,229.69,280.26,229.9,280.26,229.9Z" style="fill:#263238"></path><path d="M277.56,229.22l-1.4,2.68c-7.49-1.77-12.53-4-14.35-6.85a10.31,10.31,0,0,1,.88-2.72C266.32,225.84,273.61,228.15,277.56,229.22Z" style="fill:#fff"></path><path d="M274,238.71c-8-1.87-11-5.36-12-8.67a26.31,26.31,0,0,1,8.43,3.82A9.83,9.83,0,0,1,274,238.71Z" style="fill:#dc5753"></path><path d="M279.84,204.78s4.72,11.27,9.63,16.79c-3.2,3.09-8.91,1.47-8.91,1.47Z" style="fill:#e4873e"></path><path d="M268.79,201.3l-5.74,1.36C265.65,205.59,268.79,201.3,268.79,201.3Z" style="fill:#263238"></path><path d="M294.45,201.05l-5.74,1.36C291.31,205.34,294.45,201.05,294.45,201.05Z" style="fill:#263238"></path><path d="M274.93,159.61c9.88,3.35,20.37,20.45,22.12,27-14.05,2.3-51.92-10.86-51.92-10.86s-25.26,7-12.46-5.84S274.93,159.61,274.93,159.61Z" style="fill:#263238"></path><path d="M221.91,218.31a20.15,20.15,0,0,0,12.16,9.46c6.62,1.66,10-9,7.78-15.62a13.31,13.31,0,0,0-15-8.62C220.52,204.81,218.53,212.45,221.91,218.31Z" style="fill:#ebb373"></path><path d="M336.25,262.2c-9.37-6.26-17.06-27.92-20.76-38.34s-5.17-21.77-6.56-32.64l.5-.06c1.38,10.84,2.82,22.05,6.54,32.54s11.32,31.92,20.55,38.08Z" style="fill:#263238"></path><circle cx="231.42" cy="227.11" r="4.66" style="fill:#407BFF"></circle><path d="M236.8,218.48a.26.26,0,0,1-.25-.24,7.35,7.35,0,0,0-9.33-6.82.25.25,0,0,1-.31-.17.25.25,0,0,1,.17-.31,7.84,7.84,0,0,1,10,7.28.25.25,0,0,1-.24.26Z" style="opacity:0.1"></path><path d="M379.57,408.09s4.75-6.68,11.45-7.73,11.77-3.66,16.81-4.1.27,4.45-2.78,6.54-6.51,4.48-4.57,6.53,25.15,9,27.51,12.13-1.74,3.19-1.74,3.19,5.59,1.84,5.47,4.25c0,.63-1.13,2-3.81,1.59-6-1-18.57-3.71-18.57-3.71.73.14,16,4.61,18.16,5.58,2.87,1.26,3.58,3.32,2.8,5-1.13,2.34-20.21-2.56-21.16-2.2,0,0,11.08,2.45,12,5.66s-6.12,2-12.15-.17c-5.53-2-16.91-4.54-22.33-7.15-6.68-3.2-10.44-6.86-10.3-13.8A23.59,23.59,0,0,1,379.57,408.09Z" style="fill:#ebb373"></path><path d="M425.57,423.21h-.08c-4.49-1.36-9.1-2.52-13.69-3.46a.25.25,0,0,1-.2-.29.27.27,0,0,1,.3-.2c4.6.94,9.23,2.11,13.74,3.47a.25.25,0,0,1,.17.31A.26.26,0,0,1,425.57,423.21Z" style="opacity:0.30000000000000004"></path><path d="M404.8,433.26a.33.33,0,0,1-.13,0,.26.26,0,0,1-.08-.35,31.22,31.22,0,0,0,4.68-17.25.26.26,0,0,1,.25-.26h0a.25.25,0,0,1,.25.24A31.65,31.65,0,0,1,405,433.14.26.26,0,0,1,404.8,433.26Z" style="opacity:0.30000000000000004"></path><path d="M388.29,416.26a11,11,0,0,1-2.75-.35.25.25,0,1,1,.13-.48,10.53,10.53,0,0,0,12.16-5.68.25.25,0,1,1,.45.21,11,11,0,0,1-10,6.3Z" style="opacity:0.30000000000000004"></path><path d="M311.55,313.59c0,1.58,4.46,58.35,4.46,58.35,3.15,5.92,69.14,33.21,69.14,33.21l-7.82,19.14S300,408.68,287.49,399.6c-10.65-7.74-9.75-21.33-9.75-39.89s-6.48-44.48-6.48-44.48Z" style="fill:#ebb373"></path><path d="M282.11,280.05C312.77,285.3,317,330.7,317,330.7l4.65,36L339,379.43l-16.26,34.74S287.55,402.08,272.29,393s-15.17-79.41-15.17-79.41Z" style="fill:#407BFF"></path><path d="M289.82,401.55c-.57.26,8.75,3.6,8.75,3.6.16.1,6.74-19.82,6.9-19.72,7.38-33.38,2.39-60,2.39-60C302.26,337.09,291.24,391.79,289.82,401.55Z" style="opacity:0.2"></path><path d="M296.66,454.82c2.83-6-9.6-31-8.41-48.26,8.06-30.08,19.83-64.33,19.61-81.11-.22-18-8.27-40.38-25.75-45.4-4.87-1.39-9.95-2.79-14.88-3.93-14.84-3.54-28.85-5-45.92-6.6-4.37-.44-8.68-.72-12.74-.87-15.21-.62-29.31,10.55-27.23,26,.47,3.47,3.56,8.56,4,11.85,1.8,14.19,3.13,26.68,4.06,37.62.5,6.1.9,11.71,1.18,16.91.09,1.65.19,3.29.25,4.84.46,9.92.5,18.19.24,25.17,0,1.06-.05,2.11-.14,3.17a.66.66,0,0,0,0,.14c-1.45,16.42-12.9,32-17.85,38.55,0,0-5.06,4.63-6.67,13.6Z" style="fill:#407BFF"></path><path d="M186.32,411.11s29.43,6.47,43.13,7.09,43.33,10,43.33,10l19.38,3.5-3.35-11.33L269.3,410l-77.9-15.79C190.45,400.68,186.87,409.81,186.32,411.11Z" style="opacity:0.2"></path><polygon points="220.03 314.17 223.75 364.49 240.43 380.85 228.75 389.93 212.87 380.35 204.66 352.05 220.03 314.17" style="opacity:0.2"></polygon><polygon points="166.36 459.17 170.05 446.76 293.38 454.61 294.7 459.17 166.36 459.17" style="fill:#407BFF"></polygon><polygon points="166.36 459.17 170.05 446.76 293.38 454.61 294.7 459.17 166.36 459.17" style="opacity:0.8"></polygon><path d="M218.4,309.42c0,1.57-5.07,57.8-5.07,57.8,3.16,5.92,68.17,28.49,76.49,36.75l-14.14,14.55S197.31,404,184.82,394.89c-10.66-7.75-9.76-21.34-9.76-39.89s4.06-45.58,4.06-45.58Z" style="fill:#ebb373"></path><path d="M211.84,274.72c16,6.67,3.78,92.18,3.78,92.18l15.72,6.65L221.68,410s-19.36-3.68-38.7-7.62c-20.45-4.18-23.45-51.38-13.21-89.61S193.16,266.92,211.84,274.72Z" style="fill:#407BFF"></path><path d="M302,408.08l-.23-26.43a2,2,0,0,1,0-.42,7,7,0,0,1,8.06-5.71l6.13,1.05a2.36,2.36,0,1,1-.8,4.65l-6.12-1a2.26,2.26,0,0,0-2.58,1.67l.24,26.18a2.37,2.37,0,0,1-2.35,2.39,2,2,0,0,1-.42,0A2.36,2.36,0,0,1,302,408.08Zm2.12-26.46h0Z" style="fill:#263238"></path><polygon points="347.5 417.32 362.8 381.21 313.28 372.74 316.23 411.98 347.5 417.32" style="fill:#263238"></polygon><polygon points="348.91 457.59 347.5 417.32 316.23 411.98 298.08 448.9 348.91 457.59" style="fill:#263238"></polygon><polygon points="369.45 382.35 342.43 372.13 337.44 371.28 313.6 372.79 369.45 382.35" style="fill:#263238"></polygon><polygon points="347.5 417.32 362.8 381.21 313.28 372.74 316.23 411.98 347.5 417.32" style="fill:#fff;opacity:0.5"></polygon><polygon points="348.91 457.59 347.5 417.32 316.23 411.98 298.08 448.9 348.91 457.59" style="fill:#fff;opacity:0.5"></polygon><polygon points="369.45 382.35 342.43 372.13 337.44 371.28 313.6 372.79 369.45 382.35" style="fill:#fff;opacity:0.5"></polygon><path d="M348.68,378.79s-11.24,36.81-11.63,36.75l-13-2.22,1.9-38.41Z" style="fill:#fff;opacity:0.30000000000000004"></path><polygon points="337.06 415.54 334.42 455.11 310.86 451.08 324.09 413.32 337.06 415.54" style="fill:#fff;opacity:0.30000000000000004"></polygon><polygon points="343.09 372.24 346.15 366.18 343.15 362.88 339.86 362.32 336.23 364.48 336.91 371.19 343.09 372.24" style="fill:#263238"></polygon><polygon points="362.8 381.21 369.45 382.35 357.72 393.2 362.8 381.21" style="fill:#263238"></polygon><polygon points="362.8 381.21 369.45 382.35 357.72 393.2 362.8 381.21" style="fill:#fff;opacity:0.30000000000000004"></polygon><path d="M377.26,306.63a31.59,31.59,0,0,1,2.47,30.48c-2.93,6.32-7.92,11.5-11.05,17.73s-3.89,14.64,1.11,19.51c-1.34-5.58-.27-12.76,3.32-17.25s8.06-8.25,11.14-13.09C391.73,332.23,388.49,314.91,377.26,306.63Z" style="fill:#263238"></path><g style="opacity:0.9"><path d="M377.26,306.63a31.59,31.59,0,0,1,2.47,30.48c-2.93,6.32-7.92,11.5-11.05,17.73s-3.89,14.64,1.11,19.51c-1.34-5.58-.27-12.76,3.32-17.25s8.06-8.25,11.14-13.09C391.73,332.23,388.49,314.91,377.26,306.63Z" style="fill:#fff"></path></g><path d="M371.07,306.67c-1.2-5.45-2.18-12.36-.75-17.89-2.08,3.78-5.21,7.71-6.09,11.93a18.36,18.36,0,0,0,1.43,12.58c1.8,3.27,5,6.06,5.09,9.78C373.27,318.09,372.28,312.12,371.07,306.67Z" style="fill:#263238"></path><g style="opacity:0.9"><path d="M371.07,306.67c-1.2-5.45-2.18-12.36-.75-17.89-2.08,3.78-5.21,7.71-6.09,11.93a18.36,18.36,0,0,0,1.43,12.58c1.8,3.27,5,6.06,5.09,9.78C373.27,318.09,372.28,312.12,371.07,306.67Z" style="fill:#fff"></path></g><path d="M279.11,397.48s12.93-11,15.43-9.44a53.73,53.73,0,0,1,4.49,3.17s13.54-2.82,14.41.93-1.47,5.34-1.47,5.34,5.35,1.8,3.4,5.64a23.42,23.42,0,0,1-3.3,5.22s3,2.68,1.37,5.72a5.33,5.33,0,0,1-4.41,3.05s4,4.7,0,6.64-30.41-2.16-34.37-5.42S279.11,397.48,279.11,397.48Z" style="fill:#ebb373"></path></g><g id="freepik--Mug--inject-114"><path d="M405.11,457.59h0c-10.2,0-18.74-7-19.78-16.15l-2.22-19.66h44l-2.22,19.66C423.86,450.61,415.32,457.59,405.11,457.59Z" style="fill:#407BFF"></path><path d="M426.2,431.71a5.94,5.94,0,0,1,5-2.52,5,5,0,0,1,3.92,2.86c1.75,3.37-.78,7.9-4.5,8.31a8.11,8.11,0,0,1-6.19-2.34c-1.42-1.31-3.55.81-2.12,2.12a11.37,11.37,0,0,0,7.87,3.24,8.79,8.79,0,0,0,7-3.95,8.66,8.66,0,0,0,1.05-7.81,8.34,8.34,0,0,0-5.6-5.23,8.56,8.56,0,0,0-8.51,3.2,1.56,1.56,0,0,0,0,2.12,1.52,1.52,0,0,0,2.13,0Z" style="fill:#407BFF"></path><path d="M384.15,431.26h41.92a.23.23,0,0,0,0-.45H384.15a.23.23,0,0,0,0,.45Z" style="fill:#fff"></path><path d="M384.82,433.32h40.81a.23.23,0,0,0,0-.45H384.82a.23.23,0,0,0,0,.45Z" style="fill:#fff"></path><path d="M429.5,455H376.55a.77.77,0,0,0-.77.77h0a.78.78,0,0,0,.77.77h5.54l1.76,2.24h38.28l1.83-2.24h5.54a.77.77,0,0,0,.77-.77h0A.76.76,0,0,0,429.5,455Z" style="fill:#407BFF"></path><polygon points="382.09 456.51 423.96 456.51 423.07 457.59 382.52 457.59 382.09 456.51" style="opacity:0.2"></polygon></g></svg>
