<svg xmlns="http://www.w3.org/2000/svg" viewBox="0 0 500 500"><g id="freepik--background-simple--inject-115"><path d="M485.17,225.56c-.56-39-15.88-76.6-39.2-105.65a204.35,204.35,0,0,0-48-43.47c-18.6-12-38.83-25.5-61.27-27.57A44.11,44.11,0,0,0,320,50.23c-20.93,6.24,20.49,28.48,25.9,31.74C288,57.2,228.1,32.05,164.81,34.42c-12.2.46-24.86,2.1-35.59,8.87s-19,19.84-17.43,32.78c1.32,10.71,8.55,22.66,1.77,31-1.94,2.39-4.69,3.8-7.38,5-13.85,6.3-28.79,9.6-41.91,17.62C44,142.16,30.1,165,23.68,189s-6.12,49.2-3.6,73.61c4.75,45.93,17.65,91.5,43.77,127.22,37.3,51,98.46,77,159.72,81.29,74.13,5.19,154.49-22,203.51-84.79C434.35,377,441,366.65,443.66,355s.55-25-7.59-32.68c-2.19-2.07-5-4.26-4.78-7.47.32-4.34,5.54-5.81,9.52-6.72,26.09-6,41-37.64,43.7-66.1A150.93,150.93,0,0,0,485.17,225.56Z" style="fill:#92E3A9"></path><path d="M485.17,225.56c-.56-39-15.88-76.6-39.2-105.65a204.35,204.35,0,0,0-48-43.47c-18.6-12-38.83-25.5-61.27-27.57A44.11,44.11,0,0,0,320,50.23c-20.93,6.24,20.49,28.48,25.9,31.74C288,57.2,228.1,32.05,164.81,34.42c-12.2.46-24.86,2.1-35.59,8.87s-19,19.84-17.43,32.78c1.32,10.71,8.55,22.66,1.77,31-1.94,2.39-4.69,3.8-7.38,5-13.85,6.3-28.79,9.6-41.91,17.62C44,142.16,30.1,165,23.68,189s-6.12,49.2-3.6,73.61c4.75,45.93,17.65,91.5,43.77,127.22,37.3,51,98.46,77,159.72,81.29,74.13,5.19,154.49-22,203.51-84.79C434.35,377,441,366.65,443.66,355s.55-25-7.59-32.68c-2.19-2.07-5-4.26-4.78-7.47.32-4.34,5.54-5.81,9.52-6.72,26.09-6,41-37.64,43.7-66.1A150.93,150.93,0,0,0,485.17,225.56Z" style="fill:#fff;opacity:0.8"></path></g><g id="freepik--Furniture--inject-115"><g style="opacity:0.30000000000000004"><path d="M182.64,227.28H47.71a.51.51,0,0,1-.5-.5V55.07a.51.51,0,0,1,.5-.5H182.64a.5.5,0,0,1,.5.5V226.78A.5.5,0,0,1,182.64,227.28Zm-134.43-1H182.14V55.57H48.21Z"></path><path d="M171.27,211.8H59.09a.5.5,0,0,1-.5-.5V70.55a.5.5,0,0,1,.5-.5H171.27a.5.5,0,0,1,.5.5V211.3A.51.51,0,0,1,171.27,211.8Zm-111.68-1H170.77V71.05H59.59Z"></path><path d="M317.41,227.28H182.48a.51.51,0,0,1-.5-.5V55.07a.51.51,0,0,1,.5-.5H317.41a.51.51,0,0,1,.5.5V226.78A.51.51,0,0,1,317.41,227.28Zm-134.43-1H316.91V55.57H183Z"></path><path d="M306,211.8H193.85a.51.51,0,0,1-.5-.5V70.55a.5.5,0,0,1,.5-.5H306a.5.5,0,0,1,.5.5V211.3A.51.51,0,0,1,306,211.8Zm-111.69-1H305.54V71.05H194.35Z"></path><path d="M191.18,149h-6.36a.5.5,0,0,1-.5-.5V128.16a.5.5,0,0,1,.5-.5h6.36a.5.5,0,0,1,.5.5v20.36A.5.5,0,0,1,191.18,149Zm-5.86-1h5.36V128.66h-5.36Z"></path><path d="M180.69,149h-6.36a.5.5,0,0,1-.5-.5V128.16a.5.5,0,0,1,.5-.5h6.36a.5.5,0,0,1,.5.5v20.36A.5.5,0,0,1,180.69,149Zm-5.86-1h5.36V128.66h-5.36Z"></path></g></g><g id="freepik--Wall--inject-115"><g style="opacity:0.30000000000000004"><path d="M83.57,283.1H53.15a4.9,4.9,0,0,1-4.89-4.88V247.8a4.9,4.9,0,0,1,4.89-4.88H83.57a4.89,4.89,0,0,1,4.88,4.88v30.42A4.89,4.89,0,0,1,83.57,283.1ZM53.15,243.92a3.89,3.89,0,0,0-3.89,3.88v30.42a3.89,3.89,0,0,0,3.89,3.88H83.57a3.88,3.88,0,0,0,3.88-3.88V247.8a3.88,3.88,0,0,0-3.88-3.88Z"></path><path d="M125.69,283.1H95.27a4.89,4.89,0,0,1-4.89-4.88V247.8a4.89,4.89,0,0,1,4.89-4.88h30.42a4.89,4.89,0,0,1,4.88,4.88v30.42A4.89,4.89,0,0,1,125.69,283.1ZM95.27,243.92a3.89,3.89,0,0,0-3.89,3.88v30.42a3.89,3.89,0,0,0,3.89,3.88h30.42a3.88,3.88,0,0,0,3.88-3.88V247.8a3.88,3.88,0,0,0-3.88-3.88Z"></path><path d="M167.81,283.1H137.39a4.89,4.89,0,0,1-4.89-4.88V247.8a4.89,4.89,0,0,1,4.89-4.88h30.42a4.89,4.89,0,0,1,4.88,4.88v30.42A4.89,4.89,0,0,1,167.81,283.1Zm-30.42-39.18a3.89,3.89,0,0,0-3.89,3.88v30.42a3.89,3.89,0,0,0,3.89,3.88h30.42a3.88,3.88,0,0,0,3.88-3.88V247.8a3.88,3.88,0,0,0-3.88-3.88Z"></path><path d="M209.92,283.1H179.5a4.89,4.89,0,0,1-4.88-4.88V247.8a4.89,4.89,0,0,1,4.88-4.88h30.42a4.89,4.89,0,0,1,4.89,4.88v30.42A4.89,4.89,0,0,1,209.92,283.1ZM179.5,243.92a3.88,3.88,0,0,0-3.88,3.88v30.42a3.88,3.88,0,0,0,3.88,3.88h30.42a3.89,3.89,0,0,0,3.89-3.88V247.8a3.89,3.89,0,0,0-3.89-3.88Z"></path><path d="M252,283.1H221.62a4.89,4.89,0,0,1-4.88-4.88V247.8a4.89,4.89,0,0,1,4.88-4.88H252a4.89,4.89,0,0,1,4.89,4.88v30.42A4.89,4.89,0,0,1,252,283.1Zm-30.42-39.18a3.88,3.88,0,0,0-3.88,3.88v30.42a3.88,3.88,0,0,0,3.88,3.88H252a3.89,3.89,0,0,0,3.89-3.88V247.8a3.89,3.89,0,0,0-3.89-3.88Z"></path><path d="M294.16,283.1H263.74a4.89,4.89,0,0,1-4.88-4.88V247.8a4.89,4.89,0,0,1,4.88-4.88h30.42a4.89,4.89,0,0,1,4.89,4.88v30.42A4.89,4.89,0,0,1,294.16,283.1Zm-30.42-39.18a3.88,3.88,0,0,0-3.88,3.88v30.42a3.88,3.88,0,0,0,3.88,3.88h30.42a3.89,3.89,0,0,0,3.89-3.88V247.8a3.89,3.89,0,0,0-3.89-3.88Z"></path><path d="M336.28,283.1H305.86a4.89,4.89,0,0,1-4.88-4.88V247.8a4.89,4.89,0,0,1,4.88-4.88h30.42a4.89,4.89,0,0,1,4.88,4.88v30.42A4.89,4.89,0,0,1,336.28,283.1Zm-30.42-39.18A3.88,3.88,0,0,0,302,247.8v30.42a3.88,3.88,0,0,0,3.88,3.88h30.42a3.88,3.88,0,0,0,3.88-3.88V247.8a3.88,3.88,0,0,0-3.88-3.88Z"></path><path d="M378.4,283.1H348a4.89,4.89,0,0,1-4.88-4.88V247.8a4.89,4.89,0,0,1,4.88-4.88H378.4a4.89,4.89,0,0,1,4.88,4.88v30.42A4.89,4.89,0,0,1,378.4,283.1ZM348,243.92a3.88,3.88,0,0,0-3.88,3.88v30.42A3.88,3.88,0,0,0,348,282.1H378.4a3.88,3.88,0,0,0,3.88-3.88V247.8a3.88,3.88,0,0,0-3.88-3.88Z"></path><path d="M420.52,283.1H390.1a4.9,4.9,0,0,1-4.89-4.88V247.8a4.9,4.9,0,0,1,4.89-4.88h30.42a4.89,4.89,0,0,1,4.88,4.88v30.42A4.89,4.89,0,0,1,420.52,283.1ZM390.1,243.92a3.89,3.89,0,0,0-3.89,3.88v30.42a3.89,3.89,0,0,0,3.89,3.88h30.42a3.88,3.88,0,0,0,3.88-3.88V247.8a3.88,3.88,0,0,0-3.88-3.88Z"></path><path d="M462.64,283.1H432.22a4.89,4.89,0,0,1-4.89-4.88V247.8a4.89,4.89,0,0,1,4.89-4.88h30.42a4.89,4.89,0,0,1,4.88,4.88v30.42A4.89,4.89,0,0,1,462.64,283.1Zm-30.42-39.18a3.89,3.89,0,0,0-3.89,3.88v30.42a3.89,3.89,0,0,0,3.89,3.88h30.42a3.88,3.88,0,0,0,3.88-3.88V247.8a3.88,3.88,0,0,0-3.88-3.88Z"></path><path d="M83.57,326.57H53.15a4.9,4.9,0,0,1-4.89-4.88V291.27a4.9,4.9,0,0,1,4.89-4.89H83.57a4.89,4.89,0,0,1,4.88,4.89v30.42A4.89,4.89,0,0,1,83.57,326.57ZM53.15,287.38a3.9,3.9,0,0,0-3.89,3.89v30.42a3.89,3.89,0,0,0,3.89,3.88H83.57a3.88,3.88,0,0,0,3.88-3.88V291.27a3.89,3.89,0,0,0-3.88-3.89Z"></path><path d="M125.69,326.57H95.27a4.89,4.89,0,0,1-4.89-4.88V291.27a4.89,4.89,0,0,1,4.89-4.89h30.42a4.89,4.89,0,0,1,4.88,4.89v30.42A4.89,4.89,0,0,1,125.69,326.57ZM95.27,287.38a3.9,3.9,0,0,0-3.89,3.89v30.42a3.89,3.89,0,0,0,3.89,3.88h30.42a3.88,3.88,0,0,0,3.88-3.88V291.27a3.89,3.89,0,0,0-3.88-3.89Z"></path><path d="M167.81,326.57H137.39a4.89,4.89,0,0,1-4.89-4.88V291.27a4.89,4.89,0,0,1,4.89-4.89h30.42a4.89,4.89,0,0,1,4.88,4.89v30.42A4.89,4.89,0,0,1,167.81,326.57Zm-30.42-39.19a3.89,3.89,0,0,0-3.89,3.89v30.42a3.89,3.89,0,0,0,3.89,3.88h30.42a3.88,3.88,0,0,0,3.88-3.88V291.27a3.89,3.89,0,0,0-3.88-3.89Z"></path><path d="M209.92,326.57H179.5a4.89,4.89,0,0,1-4.88-4.88V291.27a4.89,4.89,0,0,1,4.88-4.89h30.42a4.89,4.89,0,0,1,4.89,4.89v30.42A4.89,4.89,0,0,1,209.92,326.57ZM179.5,287.38a3.89,3.89,0,0,0-3.88,3.89v30.42a3.88,3.88,0,0,0,3.88,3.88h30.42a3.89,3.89,0,0,0,3.89-3.88V291.27a3.89,3.89,0,0,0-3.89-3.89Z"></path><path d="M252,326.57H221.62a4.89,4.89,0,0,1-4.88-4.88V291.27a4.89,4.89,0,0,1,4.88-4.89H252a4.89,4.89,0,0,1,4.89,4.89v30.42A4.89,4.89,0,0,1,252,326.57Zm-30.42-39.19a3.89,3.89,0,0,0-3.88,3.89v30.42a3.88,3.88,0,0,0,3.88,3.88H252a3.89,3.89,0,0,0,3.89-3.88V291.27a3.9,3.9,0,0,0-3.89-3.89Z"></path><path d="M294.16,326.57H263.74a4.89,4.89,0,0,1-4.88-4.88V291.27a4.89,4.89,0,0,1,4.88-4.89h30.42a4.89,4.89,0,0,1,4.89,4.89v30.42A4.89,4.89,0,0,1,294.16,326.57Zm-30.42-39.19a3.89,3.89,0,0,0-3.88,3.89v30.42a3.88,3.88,0,0,0,3.88,3.88h30.42a3.89,3.89,0,0,0,3.89-3.88V291.27a3.9,3.9,0,0,0-3.89-3.89Z"></path><path d="M336.28,326.57H305.86a4.89,4.89,0,0,1-4.88-4.88V291.27a4.89,4.89,0,0,1,4.88-4.89h30.42a4.89,4.89,0,0,1,4.88,4.89v30.42A4.89,4.89,0,0,1,336.28,326.57Zm-30.42-39.19a3.89,3.89,0,0,0-3.88,3.89v30.42a3.88,3.88,0,0,0,3.88,3.88h30.42a3.88,3.88,0,0,0,3.88-3.88V291.27a3.89,3.89,0,0,0-3.88-3.89Z"></path><path d="M378.4,326.57H348a4.89,4.89,0,0,1-4.88-4.88V291.27a4.89,4.89,0,0,1,4.88-4.89H378.4a4.89,4.89,0,0,1,4.88,4.89v30.42A4.89,4.89,0,0,1,378.4,326.57ZM348,287.38a3.89,3.89,0,0,0-3.88,3.89v30.42a3.88,3.88,0,0,0,3.88,3.88H378.4a3.88,3.88,0,0,0,3.88-3.88V291.27a3.89,3.89,0,0,0-3.88-3.89Z"></path><path d="M420.52,326.57H390.1a4.9,4.9,0,0,1-4.89-4.88V291.27a4.9,4.9,0,0,1,4.89-4.89h30.42a4.89,4.89,0,0,1,4.88,4.89v30.42A4.89,4.89,0,0,1,420.52,326.57ZM390.1,287.38a3.9,3.9,0,0,0-3.89,3.89v30.42a3.89,3.89,0,0,0,3.89,3.88h30.42a3.88,3.88,0,0,0,3.88-3.88V291.27a3.89,3.89,0,0,0-3.88-3.89Z"></path><path d="M462.64,326.57H432.22a4.89,4.89,0,0,1-4.89-4.88V291.27a4.89,4.89,0,0,1,4.89-4.89h30.42a4.89,4.89,0,0,1,4.88,4.89v30.42A4.89,4.89,0,0,1,462.64,326.57Zm-30.42-39.19a3.9,3.9,0,0,0-3.89,3.89v30.42a3.89,3.89,0,0,0,3.89,3.88h30.42a3.88,3.88,0,0,0,3.88-3.88V291.27a3.89,3.89,0,0,0-3.88-3.89Z"></path><path d="M83.57,370H53.15a4.9,4.9,0,0,1-4.89-4.89V334.73a4.9,4.9,0,0,1,4.89-4.88H83.57a4.89,4.89,0,0,1,4.88,4.88v30.42A4.89,4.89,0,0,1,83.57,370ZM53.15,330.85a3.89,3.89,0,0,0-3.89,3.88v30.42A3.89,3.89,0,0,0,53.15,369H83.57a3.89,3.89,0,0,0,3.88-3.89V334.73a3.88,3.88,0,0,0-3.88-3.88Z"></path><path d="M125.69,370H95.27a4.89,4.89,0,0,1-4.89-4.89V334.73a4.89,4.89,0,0,1,4.89-4.88h30.42a4.89,4.89,0,0,1,4.88,4.88v30.42A4.89,4.89,0,0,1,125.69,370ZM95.27,330.85a3.89,3.89,0,0,0-3.89,3.88v30.42A3.89,3.89,0,0,0,95.27,369h30.42a3.89,3.89,0,0,0,3.88-3.89V334.73a3.88,3.88,0,0,0-3.88-3.88Z"></path><path d="M167.81,370H137.39a4.89,4.89,0,0,1-4.89-4.89V334.73a4.89,4.89,0,0,1,4.89-4.88h30.42a4.89,4.89,0,0,1,4.88,4.88v30.42A4.89,4.89,0,0,1,167.81,370Zm-30.42-39.19a3.89,3.89,0,0,0-3.89,3.88v30.42a3.89,3.89,0,0,0,3.89,3.89h30.42a3.89,3.89,0,0,0,3.88-3.89V334.73a3.88,3.88,0,0,0-3.88-3.88Z"></path><path d="M209.92,370H179.5a4.89,4.89,0,0,1-4.88-4.89V334.73a4.89,4.89,0,0,1,4.88-4.88h30.42a4.89,4.89,0,0,1,4.89,4.88v30.42A4.89,4.89,0,0,1,209.92,370ZM179.5,330.85a3.88,3.88,0,0,0-3.88,3.88v30.42A3.89,3.89,0,0,0,179.5,369h30.42a3.89,3.89,0,0,0,3.89-3.89V334.73a3.89,3.89,0,0,0-3.89-3.88Z"></path><path d="M252,370H221.62a4.89,4.89,0,0,1-4.88-4.89V334.73a4.89,4.89,0,0,1,4.88-4.88H252a4.89,4.89,0,0,1,4.89,4.88v30.42A4.89,4.89,0,0,1,252,370Zm-30.42-39.19a3.88,3.88,0,0,0-3.88,3.88v30.42a3.89,3.89,0,0,0,3.88,3.89H252a3.89,3.89,0,0,0,3.89-3.89V334.73a3.89,3.89,0,0,0-3.89-3.88Z"></path><path d="M294.16,370H263.74a4.89,4.89,0,0,1-4.88-4.89V334.73a4.89,4.89,0,0,1,4.88-4.88h30.42a4.89,4.89,0,0,1,4.89,4.88v30.42A4.89,4.89,0,0,1,294.16,370Zm-30.42-39.19a3.88,3.88,0,0,0-3.88,3.88v30.42a3.89,3.89,0,0,0,3.88,3.89h30.42a3.89,3.89,0,0,0,3.89-3.89V334.73a3.89,3.89,0,0,0-3.89-3.88Z"></path><path d="M336.28,370H305.86a4.89,4.89,0,0,1-4.88-4.89V334.73a4.89,4.89,0,0,1,4.88-4.88h30.42a4.89,4.89,0,0,1,4.88,4.88v30.42A4.89,4.89,0,0,1,336.28,370Zm-30.42-39.19a3.88,3.88,0,0,0-3.88,3.88v30.42a3.89,3.89,0,0,0,3.88,3.89h30.42a3.89,3.89,0,0,0,3.88-3.89V334.73a3.88,3.88,0,0,0-3.88-3.88Z"></path><path d="M378.4,370H348a4.89,4.89,0,0,1-4.88-4.89V334.73a4.89,4.89,0,0,1,4.88-4.88H378.4a4.89,4.89,0,0,1,4.88,4.88v30.42A4.89,4.89,0,0,1,378.4,370ZM348,330.85a3.88,3.88,0,0,0-3.88,3.88v30.42A3.89,3.89,0,0,0,348,369H378.4a3.89,3.89,0,0,0,3.88-3.89V334.73a3.88,3.88,0,0,0-3.88-3.88Z"></path><path d="M420.52,370H390.1a4.9,4.9,0,0,1-4.89-4.89V334.73a4.9,4.9,0,0,1,4.89-4.88h30.42a4.89,4.89,0,0,1,4.88,4.88v30.42A4.89,4.89,0,0,1,420.52,370ZM390.1,330.85a3.89,3.89,0,0,0-3.89,3.88v30.42A3.89,3.89,0,0,0,390.1,369h30.42a3.89,3.89,0,0,0,3.88-3.89V334.73a3.88,3.88,0,0,0-3.88-3.88Z"></path><path d="M462.64,370H432.22a4.89,4.89,0,0,1-4.89-4.89V334.73a4.89,4.89,0,0,1,4.89-4.88h30.42a4.89,4.89,0,0,1,4.88,4.88v30.42A4.89,4.89,0,0,1,462.64,370Zm-30.42-39.19a3.89,3.89,0,0,0-3.89,3.88v30.42a3.89,3.89,0,0,0,3.89,3.89h30.42a3.89,3.89,0,0,0,3.88-3.89V334.73a3.88,3.88,0,0,0-3.88-3.88Z"></path><path d="M83.57,413.5H53.15a4.9,4.9,0,0,1-4.89-4.88V378.2a4.9,4.9,0,0,1,4.89-4.88H83.57a4.89,4.89,0,0,1,4.88,4.88v30.42A4.89,4.89,0,0,1,83.57,413.5ZM53.15,374.32a3.89,3.89,0,0,0-3.89,3.88v30.42a3.89,3.89,0,0,0,3.89,3.88H83.57a3.88,3.88,0,0,0,3.88-3.88V378.2a3.88,3.88,0,0,0-3.88-3.88Z"></path><path d="M125.69,413.5H95.27a4.89,4.89,0,0,1-4.89-4.88V378.2a4.89,4.89,0,0,1,4.89-4.88h30.42a4.89,4.89,0,0,1,4.88,4.88v30.42A4.89,4.89,0,0,1,125.69,413.5ZM95.27,374.32a3.89,3.89,0,0,0-3.89,3.88v30.42a3.89,3.89,0,0,0,3.89,3.88h30.42a3.88,3.88,0,0,0,3.88-3.88V378.2a3.88,3.88,0,0,0-3.88-3.88Z"></path><path d="M167.81,413.5H137.39a4.89,4.89,0,0,1-4.89-4.88V378.2a4.89,4.89,0,0,1,4.89-4.88h30.42a4.89,4.89,0,0,1,4.88,4.88v30.42A4.89,4.89,0,0,1,167.81,413.5Zm-30.42-39.18a3.89,3.89,0,0,0-3.89,3.88v30.42a3.89,3.89,0,0,0,3.89,3.88h30.42a3.88,3.88,0,0,0,3.88-3.88V378.2a3.88,3.88,0,0,0-3.88-3.88Z"></path><path d="M209.92,413.5H179.5a4.89,4.89,0,0,1-4.88-4.88V378.2a4.89,4.89,0,0,1,4.88-4.88h30.42a4.89,4.89,0,0,1,4.89,4.88v30.42A4.89,4.89,0,0,1,209.92,413.5ZM179.5,374.32a3.88,3.88,0,0,0-3.88,3.88v30.42a3.88,3.88,0,0,0,3.88,3.88h30.42a3.89,3.89,0,0,0,3.89-3.88V378.2a3.89,3.89,0,0,0-3.89-3.88Z"></path><path d="M252,413.5H221.62a4.89,4.89,0,0,1-4.88-4.88V378.2a4.89,4.89,0,0,1,4.88-4.88H252a4.89,4.89,0,0,1,4.89,4.88v30.42A4.89,4.89,0,0,1,252,413.5Zm-30.42-39.18a3.88,3.88,0,0,0-3.88,3.88v30.42a3.88,3.88,0,0,0,3.88,3.88H252a3.89,3.89,0,0,0,3.89-3.88V378.2a3.89,3.89,0,0,0-3.89-3.88Z"></path><path d="M294.16,413.5H263.74a4.89,4.89,0,0,1-4.88-4.88V378.2a4.89,4.89,0,0,1,4.88-4.88h30.42a4.89,4.89,0,0,1,4.89,4.88v30.42A4.89,4.89,0,0,1,294.16,413.5Zm-30.42-39.18a3.88,3.88,0,0,0-3.88,3.88v30.42a3.88,3.88,0,0,0,3.88,3.88h30.42a3.89,3.89,0,0,0,3.89-3.88V378.2a3.89,3.89,0,0,0-3.89-3.88Z"></path><path d="M336.28,413.5H305.86a4.89,4.89,0,0,1-4.88-4.88V378.2a4.89,4.89,0,0,1,4.88-4.88h30.42a4.89,4.89,0,0,1,4.88,4.88v30.42A4.89,4.89,0,0,1,336.28,413.5Zm-30.42-39.18A3.88,3.88,0,0,0,302,378.2v30.42a3.88,3.88,0,0,0,3.88,3.88h30.42a3.88,3.88,0,0,0,3.88-3.88V378.2a3.88,3.88,0,0,0-3.88-3.88Z"></path><path d="M378.4,413.5H348a4.89,4.89,0,0,1-4.88-4.88V378.2a4.89,4.89,0,0,1,4.88-4.88H378.4a4.89,4.89,0,0,1,4.88,4.88v30.42A4.89,4.89,0,0,1,378.4,413.5ZM348,374.32a3.88,3.88,0,0,0-3.88,3.88v30.42A3.88,3.88,0,0,0,348,412.5H378.4a3.88,3.88,0,0,0,3.88-3.88V378.2a3.88,3.88,0,0,0-3.88-3.88Z"></path><path d="M420.52,413.5H390.1a4.9,4.9,0,0,1-4.89-4.88V378.2a4.9,4.9,0,0,1,4.89-4.88h30.42a4.89,4.89,0,0,1,4.88,4.88v30.42A4.89,4.89,0,0,1,420.52,413.5ZM390.1,374.32a3.89,3.89,0,0,0-3.89,3.88v30.42a3.89,3.89,0,0,0,3.89,3.88h30.42a3.88,3.88,0,0,0,3.88-3.88V378.2a3.88,3.88,0,0,0-3.88-3.88Z"></path><path d="M462.64,413.5H432.22a4.89,4.89,0,0,1-4.89-4.88V378.2a4.89,4.89,0,0,1,4.89-4.88h30.42a4.89,4.89,0,0,1,4.88,4.88v30.42A4.89,4.89,0,0,1,462.64,413.5Zm-30.42-39.18a3.89,3.89,0,0,0-3.89,3.88v30.42a3.89,3.89,0,0,0,3.89,3.88h30.42a3.88,3.88,0,0,0,3.88-3.88V378.2a3.88,3.88,0,0,0-3.88-3.88Z"></path></g></g><g id="freepik--Clock--inject-115"><g style="opacity:0.30000000000000004"><path d="M403.19,182.14a51.21,51.21,0,1,1,51.21-51.21A51.27,51.27,0,0,1,403.19,182.14Zm0-101.42a50.21,50.21,0,1,0,50.21,50.21A50.27,50.27,0,0,0,403.19,80.72Z"></path><path d="M403.19,133.8a2.87,2.87,0,1,1,2.87-2.87A2.88,2.88,0,0,1,403.19,133.8Zm0-4.74a1.87,1.87,0,1,0,1.87,1.87A1.87,1.87,0,0,0,403.19,129.06Z"></path><path d="M403.19,129.06a.5.5,0,0,1-.5-.5v-34a.5.5,0,0,1,.5-.5.5.5,0,0,1,.5.5v34A.5.5,0,0,1,403.19,129.06Z"></path><path d="M394,146.24a.51.51,0,0,1-.42-.77l7.87-12.74a.51.51,0,0,1,.86.53L394.46,146A.52.52,0,0,1,394,146.24Z"></path><path d="M403.19,89.62a.5.5,0,0,1-.5-.5V83a.5.5,0,0,1,.5-.5.5.5,0,0,1,.5.5v6.09A.5.5,0,0,1,403.19,89.62Z"></path><path d="M403.19,178.77a.5.5,0,0,1-.5-.5v-6.09a.5.5,0,0,1,.5-.5.5.5,0,0,1,.5.5v6.09A.5.5,0,0,1,403.19,178.77Z"></path><path d="M361.66,131.15h-6.1a.51.51,0,0,1-.5-.5.5.5,0,0,1,.5-.5h6.1a.5.5,0,0,1,.5.5A.5.5,0,0,1,361.66,131.15Z"></path><path d="M450.81,131.15h-6.1a.51.51,0,0,1-.5-.5.5.5,0,0,1,.5-.5h6.1a.5.5,0,0,1,.5.5A.5.5,0,0,1,450.81,131.15Z"></path><path d="M377.13,171a.57.57,0,0,1-.28-.08.51.51,0,0,1-.14-.7l3.33-5.1a.51.51,0,0,1,.7-.14.5.5,0,0,1,.14.69l-3.33,5.1A.51.51,0,0,1,377.13,171Z"></path><path d="M425.91,96.39a.53.53,0,0,1-.27-.08.5.5,0,0,1-.15-.69l3.34-5.1a.49.49,0,0,1,.69-.15.5.5,0,0,1,.15.69l-3.34,5.1A.51.51,0,0,1,425.91,96.39Z"></path><path d="M360.31,151.88a.51.51,0,0,1-.45-.29.5.5,0,0,1,.23-.66l5.49-2.66a.51.51,0,0,1,.67.23.5.5,0,0,1-.23.67l-5.49,2.66A.59.59,0,0,1,360.31,151.88Z"></path><path d="M440.57,113.07a.5.5,0,0,1-.21-.95l5.48-2.65a.51.51,0,0,1,.67.23.5.5,0,0,1-.23.67L440.79,113A.42.42,0,0,1,440.57,113.07Z"></path><path d="M429.25,171a.48.48,0,0,1-.42-.23l-3.34-5.1a.5.5,0,0,1,.84-.55l3.34,5.1a.51.51,0,0,1-.15.7A.53.53,0,0,1,429.25,171Z"></path><path d="M380.46,96.39a.51.51,0,0,1-.42-.23l-3.33-5.1a.5.5,0,0,1,.14-.69.51.51,0,0,1,.7.15l3.33,5.1a.5.5,0,0,1-.14.69A.57.57,0,0,1,380.46,96.39Z"></path><path d="M446.06,151.88a.63.63,0,0,1-.22,0l-5.48-2.66a.5.5,0,1,1,.43-.9l5.49,2.66a.5.5,0,0,1-.22.95Z"></path><path d="M365.8,113.07a.44.44,0,0,1-.22,0l-5.49-2.65a.51.51,0,0,1-.23-.67.5.5,0,0,1,.67-.23l5.49,2.65a.5.5,0,0,1,.23.67A.49.49,0,0,1,365.8,113.07Z"></path></g></g><g id="freepik--Character--inject-115"><polygon points="276.5 417.61 279.96 240.91 275.74 229.65 226.83 230.71 214.52 238.45 205.53 417.61 276.5 417.61" style="fill:#263238"></polygon><path d="M276.5,418.11h-71a.48.48,0,0,1-.36-.16.47.47,0,0,1-.14-.37l9-179.16a.54.54,0,0,1,.23-.4l12.32-7.74a.43.43,0,0,1,.25-.07l48.91-1.06a.5.5,0,0,1,.48.32l4.22,11.26a.58.58,0,0,1,0,.19L277,417.62A.5.5,0,0,1,276.5,418.11Zm-70.45-1h70L279.46,241l-4.07-10.83-48.41,1-12,7.53Z" style="fill:#263238"></path><path d="M171.64,417.61h43.84c1.31-19.21,7.13-105.73,7.13-120.41,0-16.54-1.05-41.52-1.05-41.52L219.45,230s-21.47,3.87-29.21,7-19.35,2.46-22.16,5.28S98.42,313,98.42,313L122,329.92l51-29.2Z" style="fill:#92E3A9"></path><path d="M215.48,418.11H171.64a.51.51,0,0,1-.5-.51l1.35-116-50.25,28.76a.5.5,0,0,1-.54,0L98.13,313.44a.5.5,0,0,1-.21-.36.53.53,0,0,1,.14-.4c.67-.68,66.88-67.93,69.67-70.72,1.57-1.57,5.46-2.1,10-2.71,4.07-.55,8.69-1.17,12.36-2.67,7.71-3.15,28.43-6.91,29.31-7.07a.46.46,0,0,1,.39.1.48.48,0,0,1,.19.35l2.11,25.68c0,.27,1.06,25.2,1.06,41.56,0,14.77-5.94,102.92-7.13,120.44A.5.5,0,0,1,215.48,418.11Zm-43.33-1H215c1.27-18.56,7.1-105.3,7.1-119.91,0-16.34-1-41.24-1.05-41.49L219,230.59c-3.38.63-21.64,4.08-28.56,6.91-3.79,1.55-8.48,2.19-12.61,2.75s-8,1.08-9.39,2.42c-2.66,2.67-63.62,64.58-69.24,70.3L122,329.33l50.74-29.05a.52.52,0,0,1,.5,0,.47.47,0,0,1,.24.43Z" style="fill:#263238"></path><path d="M173,301.22a.5.5,0,0,1-.49-.43l-3.26-21.59a.51.51,0,0,1,.42-.57.5.5,0,0,1,.57.42l2.25,14.9,0-17.46a.5.5,0,0,1,.5-.5h0a.5.5,0,0,1,.5.5l.05,24.23a.49.49,0,0,1-.46.5Z" style="fill:#263238"></path><path d="M173,273.42a.5.5,0,0,1-.5-.5v-3.61a.51.51,0,0,1,.5-.51h0a.5.5,0,0,1,.5.5v3.62a.5.5,0,0,1-.5.5Z" style="fill:#263238"></path><path d="M166.85,287.88a.51.51,0,0,1-.42-.23L156,271.74a.5.5,0,0,1,.84-.55l10.48,15.91a.51.51,0,0,1-.14.7A.57.57,0,0,1,166.85,287.88Z" style="fill:#263238"></path><path d="M133.75,316.27a.48.48,0,0,1-.45-.29,39.6,39.6,0,0,0-13.64-16.21.48.48,0,0,1-.17-.68.5.5,0,0,1,.68-.18,40.71,40.71,0,0,1,14,16.65.49.49,0,0,1-.46.71Z" style="fill:#263238"></path><path d="M137.64,313.25a.49.49,0,0,1-.45-.3,36.18,36.18,0,0,0-4.68-7.66.51.51,0,0,1,.05-.71.52.52,0,0,1,.71.06,36.27,36.27,0,0,1,4.83,7.9.5.5,0,0,1-.25.66A.54.54,0,0,1,137.64,313.25Z" style="fill:#263238"></path><path d="M135.91,303.3a.5.5,0,0,1-.44-.26,11.91,11.91,0,0,0-7.43-6.23.5.5,0,0,1-.4-.58.51.51,0,0,1,.58-.41c.2,0,5,1,8.13,6.74a.5.5,0,0,1-.44.74Z" style="fill:#263238"></path><path d="M221.91,224s-2.82-1.41-4.22,1.06-4.23,19.7-5.63,23.22S204,261,205.37,262.72s7.74-6,10.21-9.85,3.16-8.09,4.22-5.28a49.76,49.76,0,0,1,1.76,8.09l.35-14.07Z" style="fill:#92E3A9"></path><path d="M205.93,263.48a1.16,1.16,0,0,1-1-.45c-1.06-1.32.75-4.62,3.87-9.9a46.34,46.34,0,0,0,2.74-5,104.67,104.67,0,0,0,2.57-10.85c1.18-5.68,2.3-11,3.09-12.43a3.61,3.61,0,0,1,4.88-1.26.51.51,0,0,1,.28.45v17.59l-.35,14.09a.5.5,0,0,1-.48.48.49.49,0,0,1-.52-.43,49.51,49.51,0,0,0-1.73-8,3,3,0,0,0-.24-.52,12.17,12.17,0,0,0-1,2,34.15,34.15,0,0,1-2.05,3.91c-1.9,3-7.47,10.2-10,10.34Zm14.24-39.36a2.25,2.25,0,0,0-2,1.2c-.71,1.25-1.92,7-3,12.14a101.09,101.09,0,0,1-2.62,11,46.73,46.73,0,0,1-2.81,5.16c-1.74,2.95-4.66,7.88-4,8.77,0,0,.05.08.2.07,1.72-.1,6.76-6.06,9.19-9.88a31.32,31.32,0,0,0,2-3.79c.8-1.72,1.2-2.68,2-2.63.59,0,.91.67,1.13,1.24a27.12,27.12,0,0,1,.91,3.27l.23-9.09V224.35A3.8,3.8,0,0,0,220.17,224.12Z" style="fill:#263238"></path><path d="M97.39,302.76s-11,12.22-11.91,17.55,0,16.61,1.57,18.81,11.28,7.21,14.1,6.58,26-15.05,26.33-23.51-.31-12.85-6-17.24S105.23,299,97.39,302.76Z" style="fill:#92E3A9"></path><path d="M100.61,346.25c-3.65,0-12.45-4.71-14-6.84C85,337.08,84,325.79,85,320.22c1-5.4,11.58-17.29,12-17.8a.42.42,0,0,1,.15-.11c8.43-4.05,19.16-2,24.66,2.25,5.69,4.42,6.48,8.83,6.15,17.65s-23.83,23.33-26.72,24A3.2,3.2,0,0,1,100.61,346.25ZM97.7,303.17c-.92,1-10.86,12.31-11.73,17.23-1,5.53.11,16.5,1.48,18.43C89,341,98.58,345.76,101,345.21c2.75-.61,25.64-15,25.94-23s-.17-12.47-5.76-16.82C116.09,301.36,105.65,299.4,97.7,303.17Z" style="fill:#263238"></path><ellipse cx="109.93" cy="329" rx="20.36" ry="19.35" style="fill:#fff"></ellipse><path d="M109.93,348.86c-11.51,0-20.87-8.91-20.87-19.86s9.36-19.85,20.87-19.85,20.86,8.91,20.86,19.85S121.43,348.86,109.93,348.86Zm0-38.71c-11,0-19.87,8.46-19.87,18.85s8.91,18.86,19.87,18.86,19.86-8.46,19.86-18.86S120.88,310.15,109.93,310.15Z" style="fill:#263238"></path><path d="M222.26,216.28l-.35,25.33s16.53,12.32,29.9,10.56,23.93-13.72,23.93-13.72l-2.47-22.52s-17.24,6.33-29.2,4.92A128.27,128.27,0,0,1,222.26,216.28Z" style="fill:#fff"></path><path d="M249.07,252.84c-12.76,0-26.83-10.35-27.46-10.83a.48.48,0,0,1-.2-.4l.35-25.34a.52.52,0,0,1,.21-.4.53.53,0,0,1,.44-.07,129,129,0,0,0,21.72,4.56c11.71,1.37,28.8-4.84,29-4.9a.52.52,0,0,1,.44,0,.53.53,0,0,1,.23.38l2.46,22.51a.47.47,0,0,1-.12.39c-.1.12-10.83,12.12-24.23,13.88A21.74,21.74,0,0,1,249.07,252.84Zm-26.66-11.48c1.94,1.39,17.11,11.93,29.34,10.31s22.15-12,23.47-13.39l-2.37-21.67c-3.17,1.09-18.15,6-28.84,4.74a131.76,131.76,0,0,1-21.26-4.4Z" style="fill:#263238"></path><path d="M229.66,124.3S217,127.61,214,140.23s3.61,66.1,4.21,73,13.52,15.62,17.13,18a26.78,26.78,0,0,0,12.62,4.2c11.21.16,29.44-16.82,30-19.83s1.51-11.41,1.51-11.41,6.61-48.38,5.4-59.5S268.42,124,261.21,122.2,236.87,119.79,229.66,124.3Z" style="fill:#263238"></path><path d="M248.13,236H248a27.34,27.34,0,0,1-12.89-4.29c-10.94-7.29-16.93-13.65-17.35-18.4-.09-1.07-.33-3.26-.66-6.28-1.82-16.81-6.09-56.15-3.53-66.89,2.91-12.24,14.83-16,15.9-16.27,7.54-4.65,25-3.85,31.88-2.13,7.54,1.89,22.89,11.71,24.11,23,1.2,11-5.14,57.64-5.41,59.61,0,.33-.91,8.46-1.51,11.45C277.83,219.22,259.32,236,248.13,236Zm-.58-114.64c-6.61,0-13.62.88-17.63,3.39l-.13,0c-.13,0-12.37,3.39-15.27,15.56-2.52,10.57,1.74,49.8,3.56,66.55.33,3,.56,5.22.66,6.31.27,3.09,3.42,8.66,16.9,17.65A26.31,26.31,0,0,0,248,235h.16c11.26,0,28.93-17.11,29.39-19.44.59-2.94,1.49-11.28,1.5-11.37.07-.5,6.59-48.45,5.41-59.38s-16.05-20.28-23.36-22.11A61.76,61.76,0,0,0,247.55,121.34Zm-17.89,3h0Z" style="fill:#263238"></path><path d="M227,147.14s-7.81.3-6.91,6.61,4.21,12,3,15.32-5.41,4.51-5.41,6.31,1.2,28.24,2.1,30.35a25.52,25.52,0,0,0,3.61,5.11s12.32-7.22,15-7.52,5.71,3.31,8.72,3.61,8.11-3.31,8.11-3.31,9,4.51,10.81,6,5.71,1.51,7.52-.6,6.31-27.64,6.91-30.64-3.61-6.62-5.11-11.42.3-12,.3-15.63-4.81-5.41-9-3.9-14.43,9.91-20.14,8.71S230.56,146.54,227,147.14Z" style="fill:#fff"></path><path d="M223.35,211.34a.48.48,0,0,1-.37-.17,25.24,25.24,0,0,1-3.7-5.25c-1-2.31-2.14-29.26-2.14-30.54,0-1.08,1-1.88,2.2-2.8a8.78,8.78,0,0,0,3.24-3.68c.65-1.8-.2-4.54-1.18-7.71a47.81,47.81,0,0,1-1.85-7.37,5.49,5.49,0,0,1,1.12-4.5c2-2.41,5.82-2.66,6.23-2.68,2.09-.32,5.73,1.81,9.94,4.28,3.51,2.06,7.14,4.19,9.75,4.74,3.68.78,9.51-2.76,14.19-5.6a38.39,38.39,0,0,1,5.67-3.09,8.67,8.67,0,0,1,7.69.72,4.42,4.42,0,0,1,2,3.65,38.4,38.4,0,0,1-.38,4.32c-.42,3.54-.94,8,.06,11.16a24.46,24.46,0,0,0,2.85,5.56c1.42,2.27,2.64,4.22,2.27,6.1-.09.45-.26,1.38-.5,2.66-2.42,13-5.09,26.55-6.52,28.22-2,2.31-6.25,2.29-8.22.66-1.56-1.31-9-5.06-10.45-5.82-1.09.74-5.41,3.51-8.2,3.23a11.26,11.26,0,0,1-4.43-1.94c-1.5-.93-2.93-1.81-4.18-1.67-2.13.24-11.43,5.46-14.83,7.45A.55.55,0,0,1,223.35,211.34Zm4-63.74a1.66,1.66,0,0,0-.32,0H227s-3.75.17-5.54,2.32a4.53,4.53,0,0,0-.89,3.72,47.32,47.32,0,0,0,1.81,7.22c1,3.34,1.94,6.23,1.17,8.34a9.77,9.77,0,0,1-3.56,4.13c-1,.76-1.82,1.42-1.82,2,0,2.3,1.25,28.26,2.06,30.15a23.64,23.64,0,0,0,3.25,4.67c2.09-1.22,12.32-7.09,14.87-7.37,1.61-.18,3.24.83,4.82,1.81a10.45,10.45,0,0,0,4,1.79c2.77.28,7.72-3.18,7.77-3.21a.49.49,0,0,1,.51,0c.37.18,9.09,4.55,10.91,6.07,1.62,1.35,5.22,1.33,6.82-.54,1.45-1.69,5.1-21.31,6.29-27.75.24-1.29.42-2.23.51-2.67.3-1.49-.83-3.29-2.14-5.37a25.49,25.49,0,0,1-3-5.8c-1.06-3.41-.52-7.94-.09-11.58a39.1,39.1,0,0,0,.37-4.2,3.4,3.4,0,0,0-1.57-2.83,7.77,7.77,0,0,0-6.78-.6,37.68,37.68,0,0,0-5.48,3c-4.84,2.93-10.85,6.59-14.92,5.73-2.77-.58-6.47-2.76-10-4.86S229.21,147.6,227.36,147.6Zm-.41-.46h0Z" style="fill:#263238"></path><path d="M246.43,216.93c-8.4,0-14.33-5.65-14.42-5.74a.5.5,0,1,1,.7-.71c.49.48,12.19,11.58,26.09.86a.5.5,0,0,1,.61.79A21,21,0,0,1,246.43,216.93Z" style="fill:#fff"></path><path d="M240.78,201.42h-.12a.5.5,0,0,1-.37-.6l3-12.92a.5.5,0,0,1,1,.22l-3,12.92A.5.5,0,0,1,240.78,201.42Z" style="fill:#263238"></path><path d="M239,181.39a1.51,1.51,0,0,1-.92-.32c-5.85-4.58-10.86-.77-11.07-.61a1.49,1.49,0,0,1-1.86-2.34c2.39-1.92,8.57-4.27,14.78.59a1.5,1.5,0,0,1,.25,2.1A1.48,1.48,0,0,1,239,181.39Z" style="fill:#263238"></path><path d="M266,182.89a1.45,1.45,0,0,1-.92-.32c-5.91-4.62-10.85-.78-11.06-.61a1.5,1.5,0,1,1-1.87-2.34c2.4-1.92,8.57-4.27,14.78.59a1.5,1.5,0,0,1-.93,2.68Z" style="fill:#263238"></path><path d="M262.11,188.75c0,1.91-1,3.46-2.25,3.46s-2.26-1.55-2.26-3.46,1-3.45,2.26-3.45S262.11,186.84,262.11,188.75Z" style="fill:#263238"></path><ellipse cx="234.01" cy="187.1" rx="2.25" ry="3.46" style="fill:#263238"></ellipse><path d="M214.63,171.17s-2.1-3.9-5.7-.3-1.81,9.62.6,13.22a27.27,27.27,0,0,0,6.31,6.31Z" style="fill:#fff"></path><path d="M215.84,190.9a.52.52,0,0,1-.29-.09,27.7,27.7,0,0,1-6.44-6.44c-2.77-4.16-4.12-10.27-.54-13.85a4.46,4.46,0,0,1,3.75-1.64,4.17,4.17,0,0,1,2.76,2.06.46.46,0,0,1,0,.2l1.21,19.23a.5.5,0,0,1-.5.53Zm-4-21.05a3.87,3.87,0,0,0-2.59,1.38c-3.19,3.18-1.89,8.76.66,12.59a25.8,25.8,0,0,0,5.33,5.53l-1.13-18a3.07,3.07,0,0,0-2-1.46A1.51,1.51,0,0,0,211.87,169.85Z" style="fill:#263238"></path><path d="M283.44,173.28s4.81-4.81,6.91,1.2-9,19.23-9,19.23Z" style="fill:#fff"></path><path d="M281.34,194.21a.48.48,0,0,1-.2,0,.5.5,0,0,1-.3-.51l2.1-20.43a.57.57,0,0,1,.15-.31c.1-.1,2.44-2.41,4.78-1.88,1.3.29,2.3,1.4,2.95,3.27,2.18,6.21-8.64,19.17-9.1,19.72A.49.49,0,0,1,281.34,194.21Zm2.58-20.7L282,192.07c2.69-3.46,9.48-12.83,7.87-17.43-.54-1.53-1.29-2.41-2.23-2.63C286.24,171.69,284.59,172.89,283.92,173.51Z" style="fill:#263238"></path><path d="M313.72,417.61l-1-102.82s10.9-59.11,9.85-62.62-46.79-22.52-46.79-22.52l-1.06,26s-3.17,50.32-3.17,61.22c0,10.25-.93,90.94-1,100.71Z" style="fill:#92E3A9"></path><path d="M313.72,418.11H270.47a.51.51,0,0,1-.5-.51c0-3.67,1-90.1,1-100.7,0-10.8,3.14-60.74,3.17-61.25l1.06-26a.48.48,0,0,1,.23-.4.5.5,0,0,1,.46,0c7.67,3.19,46,19.27,47.08,22.83s-8.72,56.8-9.84,62.86l1.05,102.72a.54.54,0,0,1-.14.36A.51.51,0,0,1,313.72,418.11Zm-42.74-1h42.24l-1-102.31c4.38-23.81,10.62-60,9.87-62.49s-28.21-14.58-45.84-21.92l-1,25.32c0,.51-3.17,50.43-3.17,61.19C272,327.21,271.07,409.11,271,417.11Z" style="fill:#263238"></path><path d="M274.33,224s2.81-1.41,4.22,1.06,4.22,19.7,5.63,23.22,8.09,12.66,6.69,14.42-7.74-6-10.21-9.85-3.16-8.09-4.22-5.28a49.76,49.76,0,0,0-1.76,8.09l-.35-14.07Z" style="fill:#92E3A9"></path><path d="M290.31,263.48h-.09c-2.51-.14-8.08-7.36-10-10.34a34.15,34.15,0,0,1-2.05-3.91,12.17,12.17,0,0,0-1-2,3,3,0,0,0-.24.52,47.3,47.3,0,0,0-1.73,8,.47.47,0,0,1-.53.43.49.49,0,0,1-.47-.48l-.35-14.08V224a.51.51,0,0,1,.28-.45,3.61,3.61,0,0,1,4.88,1.26c.79,1.39,1.91,6.75,3.09,12.43a108.11,108.11,0,0,0,2.56,10.85,46.74,46.74,0,0,0,2.75,5c3.11,5.28,4.93,8.58,3.87,9.9A1.16,1.16,0,0,1,290.31,263.48Zm-13.18-17.3c.75,0,1.18.94,2,2.63a32.62,32.62,0,0,0,2,3.79c2.44,3.82,7.48,9.78,9.2,9.88.12,0,.17,0,.19-.07.71-.89-2.2-5.82-3.94-8.77a45.09,45.09,0,0,1-2.81-5.16,101.09,101.09,0,0,1-2.62-11c-1.06-5.1-2.27-10.89-3-12.14a2.54,2.54,0,0,0-3.29-1v17.26l.23,9.08a25.4,25.4,0,0,1,.91-3.27c.21-.57.53-1.22,1.13-1.24Z" style="fill:#263238"></path><polygon points="354.97 417.61 347.51 372.49 318.31 379.88 328.5 417.61 354.97 417.61" style="fill:#fff"></polygon><path d="M355,418.11H328.5a.5.5,0,0,1-.48-.37L317.83,380a.49.49,0,0,1,.05-.39.5.5,0,0,1,.3-.23L347.39,372a.53.53,0,0,1,.39.07.49.49,0,0,1,.22.34l7.46,45.11a.47.47,0,0,1-.11.41A.49.49,0,0,1,355,418.11Zm-26.08-1h25.49l-7.28-44-28.18,7.13Z" style="fill:#263238"></path><polygon points="322.53 252.17 348.21 367.92 315.14 376.01 313.06 362.69 312.68 314.79 322.53 252.17" style="fill:#92E3A9"></polygon><path d="M315.14,376.51a.5.5,0,0,1-.49-.43l-2.08-13.32-.39-48,9.86-62.7a.48.48,0,0,1,.47-.42.5.5,0,0,1,.51.39L348.7,367.81a.5.5,0,0,1-.37.59l-33.07,8.09Zm7.47-121.66-9.44,60,.4,47.81,2,12.71,32.07-7.84Z" style="fill:#263238"></path><path d="M312.68,315.29a.51.51,0,0,1-.46-.29.51.51,0,0,1,.25-.67L331.25,306a.5.5,0,0,1,.41.91l-18.78,8.38A.45.45,0,0,1,312.68,315.29Z" style="fill:#263238"></path><path d="M313.89,318.17a.5.5,0,0,1-.49-.4.49.49,0,0,1,.38-.59l14-3a.5.5,0,0,1,.6.38.51.51,0,0,1-.39.6l-14,3Z" style="fill:#263238"></path><path d="M316.91,309.66a.5.5,0,0,1-.22-1L326.3,304a.51.51,0,0,1,.67.23.5.5,0,0,1-.24.67l-9.6,4.67A.59.59,0,0,1,316.91,309.66Z" style="fill:#263238"></path><path d="M314.44,357.7a.49.49,0,0,1-.49-.41.48.48,0,0,1,.39-.58l25-4.95a.51.51,0,0,1,.59.4.51.51,0,0,1-.4.59l-25,4.94Z" style="fill:#263238"></path><path d="M319.1,353a.49.49,0,0,1-.47-.36.5.5,0,0,1,.33-.62l20.86-6.31a.51.51,0,0,1,.63.33.5.5,0,0,1-.34.62L319.25,353Z" style="fill:#263238"></path><path d="M315.81,351.66a.49.49,0,0,1-.48-.38.5.5,0,0,1,.36-.61l13.18-3.29a.49.49,0,0,1,.6.36.5.5,0,0,1-.36.61l-13.18,3.29Z" style="fill:#263238"></path><polygon points="312.33 372.14 315.84 383.04 351.38 374.25 348.92 360.18 312.33 372.14" style="fill:#92E3A9"></polygon><path d="M315.84,383.54a.49.49,0,0,1-.47-.34l-3.52-10.91a.51.51,0,0,1,.32-.63l36.59-12a.49.49,0,0,1,.41.05.5.5,0,0,1,.24.34l2.46,14.07a.49.49,0,0,1-.37.57L316,383.53ZM313,372.46l3.22,10,34.63-8.57-2.29-13.05Z" style="fill:#263238"></path><path d="M131.16,318.51c-.9-2.38-4.18-4.77-6.26-4.77s-9.25,4.47-9.25,4.47l.94,2.2-2.28,1.16,3.92,9.34s3.92.16,5.43-1.8.15-4.07.9-6.34a3.29,3.29,0,0,1,.42-.88,25.36,25.36,0,0,0,3.49,3.18c2.69,1.79,3.88,2.39,6.27.6S132.05,320.9,131.16,318.51Z" style="fill:#fff"></path><path d="M118.45,331.42h-.24a.49.49,0,0,1-.44-.3l-3.92-9.35a.5.5,0,0,1,.24-.64l1.86-.94-.76-1.77a.5.5,0,0,1,.2-.62c.74-.47,7.34-4.55,9.51-4.55,2.38,0,5.78,2.57,6.73,5.1a10,10,0,0,0,2,2.58c1.23,1.32,2.38,2.57,2.27,3.79a1.9,1.9,0,0,1-.82,1.36c-2.69,2-4.19,1.18-6.84-.58a16.46,16.46,0,0,1-2.76-2.44l-.33-.33-.07.21a6.61,6.61,0,0,0-.18,2.62,5.13,5.13,0,0,1-.8,3.86C122.62,331.28,119.35,331.42,118.45,331.42ZM115,321.8l3.62,8.62c.91,0,3.59-.19,4.69-1.62a4.29,4.29,0,0,0,.61-3.18,7.39,7.39,0,0,1,.22-3,3.53,3.53,0,0,1,.49-1,.5.5,0,0,1,.75-.06c.27.25.54.53.83.83a16.46,16.46,0,0,0,2.59,2.3c2.61,1.74,3.54,2.21,5.69.61a.94.94,0,0,0,.43-.65c.07-.78-1-2-2-3a10.37,10.37,0,0,1-2.17-2.91c-.86-2.29-4-4.45-5.79-4.45-1.51,0-6.42,2.83-8.62,4.17l.77,1.8a.49.49,0,0,1-.23.64Z" style="fill:#263238"></path><path d="M125,322.39a.46.46,0,0,1-.29-.1l-2.68-2a.5.5,0,1,1,.59-.8l2.68,2a.51.51,0,0,1,.11.7A.49.49,0,0,1,125,322.39Z" style="fill:#263238"></path><path d="M105.13,344.51l16.29-16a9.81,9.81,0,0,1,4.94-2.63,9.93,9.93,0,0,1,9.83,3.71l3.13,4.14-4,3-3.14-4.14a4.84,4.84,0,0,0-7.27-.53l-16.29,16Z" style="fill:#263238"></path><path d="M108.64,348.58a.36.36,0,0,1-.36-.15l-3.5-3.57a.48.48,0,0,1,0-.7l16.29-16a10.36,10.36,0,0,1,15.52,1.14l3.13,4.14a.5.5,0,0,1-.09.7l-4,3a.55.55,0,0,1-.37.1.5.5,0,0,1-.33-.2l-3.13-4.14a4.4,4.4,0,0,0-4.35-1.64,4.33,4.33,0,0,0-2.18,1.16l-16.29,16A.52.52,0,0,1,108.64,348.58Zm-2.8-4.06,2.8,2.85,15.94-15.64a5.28,5.28,0,0,1,2.68-1.43,5.38,5.38,0,0,1,5.34,2l2.84,3.74,3.18-2.41-2.83-3.74a9.34,9.34,0,0,0-14-1Z" style="fill:#263238"></path><path d="M157,357.53a20.55,20.55,0,0,0-17.68-23.35Z" style="fill:#9e9e9e"></path><path d="M157,358a.51.51,0,0,1-.4-.2L138.9,334.49a.5.5,0,0,1,0-.55.53.53,0,0,1,.49-.25,21,21,0,0,1,18.12,23.93.51.51,0,0,1-.37.4Zm-16.56-23.19,16.23,21.43a20.15,20.15,0,0,0-16.23-21.43Z" style="fill:#263238"></path><polygon points="122.02 382.14 106.14 361.17 138.6 333.67 157.28 358.34 122.02 382.14" style="fill:#f7f7f7"></polygon><path d="M122,382.64a.48.48,0,0,1-.4-.2l-15.88-21a.5.5,0,0,1,.07-.68l32.47-27.5a.47.47,0,0,1,.38-.11.47.47,0,0,1,.34.19L157.68,358a.52.52,0,0,1,.1.38.48.48,0,0,1-.22.33l-35.27,23.8A.46.46,0,0,1,122,382.64Zm-15.2-21.39,15.31,20.21,34.44-23.24-18-23.82Z" style="fill:#263238"></path><polygon points="118.06 376.92 110.09 366.39 143.25 339.82 152.63 352.2 118.06 376.92" style="fill:#e3e3e3"></polygon><path d="M118.06,377.42a.51.51,0,0,1-.4-.2l-8-10.52a.51.51,0,0,1,.09-.7l33.16-26.58a.51.51,0,0,1,.38-.1.53.53,0,0,1,.33.19L153,351.89a.51.51,0,0,1-.11.71l-34.57,24.72A.46.46,0,0,1,118.06,377.42Zm-7.28-10.94,7.39,9.75,33.75-24.14-8.75-11.56Z" style="fill:#263238"></path><path d="M96.87,407.48,74.78,378.31l28.63-18.42a2.05,2.05,0,0,1,2.76.49l16.47,21.74a2.07,2.07,0,0,1-.27,2.79Z" style="fill:#f7f7f7"></path><path d="M96.87,408h-.05a.55.55,0,0,1-.35-.2L74.38,378.61a.48.48,0,0,1-.09-.38.49.49,0,0,1,.22-.34l28.63-18.42a2.57,2.57,0,0,1,3.43.61L123,381.82a2.59,2.59,0,0,1-.34,3.47L97.2,407.86A.5.5,0,0,1,96.87,408ZM75.5,378.44l21.44,28.31L122,384.54a1.56,1.56,0,0,0,.21-2.11l-16.47-21.75a1.56,1.56,0,0,0-2.09-.37Z" style="fill:#263238"></path><rect x="91.8" y="364.15" width="16.64" height="35.85" transform="translate(344.25 71.59) rotate(52.86)" style="fill:#e3e3e3"></rect><path d="M90.85,400h-.07a.5.5,0,0,1-.33-.2l-10-13.26a.49.49,0,0,1-.09-.37.44.44,0,0,1,.19-.33l28.58-21.65a.5.5,0,0,1,.7.1l10,13.26a.55.55,0,0,1,.1.37.5.5,0,0,1-.2.33L91.15,399.93A.47.47,0,0,1,90.85,400ZM81.5,386.36,91,398.83l27.78-21-9.44-12.47Z" style="fill:#263238"></path><polygon points="157.28 358.34 160.25 362.25 149.3 364.07 157.28 358.34" style="fill:#fff"></polygon><path d="M149.3,364.57a.49.49,0,0,1-.46-.3.5.5,0,0,1,.17-.6l8-5.74a.5.5,0,0,1,.69.11l3,3.91a.51.51,0,0,1-.32.8l-10.94,1.82Zm7.88-5.54-5.84,4.2,8-1.33Z" style="fill:#263238"></path><path d="M157,339.28h0a1.35,1.35,0,0,0-1.89-.26l-2.84,2.15,1.63,2.16,2.84-2.15A1.36,1.36,0,0,0,157,339.28Z" style="fill:#263238"></path><path d="M153.92,343.83h-.07a.53.53,0,0,1-.33-.19l-1.63-2.16a.51.51,0,0,1,.1-.7l2.84-2.15a1.85,1.85,0,1,1,2.23,2.95l-2.84,2.15A.46.46,0,0,1,153.92,343.83Zm-.93-2.56,1,1.36,2.44-1.85a.86.86,0,0,0,.33-.56.83.83,0,0,0-.17-.63h0a.82.82,0,0,0-.56-.33.79.79,0,0,0-.63.16Z" style="fill:#263238"></path><path d="M111.18,316.13s-6.26,3-6,6,8.35,13.72,10.14,16.1,3.58,4.18,6.56,2.69,4.18-4.18,3.58-6.86-11.93-17.6-11.93-17.6S113,315.53,111.18,316.13Z" style="fill:#fff"></path><path d="M119.84,341.93c-2.09,0-3.56-1.66-4.89-3.44-6.58-8.78-10-14.28-10.23-16.35-.33-3.24,5.57-6.14,6.24-6.47l.06,0c2.13-.71,2.93.45,3,.5,1.15,1.51,11.4,15.05,12,17.76.68,3-.79,5.89-3.84,7.41A5.07,5.07,0,0,1,119.84,341.93Zm-8.47-25.34c-1.68.8-5.87,3.31-5.66,5.45.11,1.06,1.55,4.53,10,15.85,2,2.6,3.47,3.77,5.94,2.54,2.66-1.33,3.9-3.69,3.31-6.3-.47-2.12-8.7-13.28-11.83-17.4C113.14,316.69,112.71,316.15,111.37,316.59Z" style="fill:#263238"></path><path d="M105.21,322.09s-6,5.37-5.66,8.05,11.33,11.93,12.82,13.72,6.26-.6,7.16-1.79S105.21,322.09,105.21,322.09Z" style="fill:#fff"></path><path d="M114,345a2.53,2.53,0,0,1-2.05-.82c-.42-.5-1.7-1.69-3.19-3.07-5.21-4.83-9.53-9-9.75-10.91-.32-2.86,5.2-7.91,5.83-8.48a.51.51,0,0,1,.37-.13.48.48,0,0,1,.35.19s3.85,4.75,7.5,9.55c7.61,10,7.16,10.6,6.83,11a9.48,9.48,0,0,1-5.77,2.63Zm-8.88-22.18c-1.79,1.68-5.32,5.42-5.11,7.26s6.2,7.3,9.43,10.3c1.58,1.46,2.82,2.61,3.28,3.16a1.72,1.72,0,0,0,1.38.46,8.89,8.89,0,0,0,4.92-2.15C118.8,340.34,111.83,331.08,105.16,322.82Z" style="fill:#263238"></path><path d="M99.55,330.14s-5.07,5.37-4.47,7.75,12.22,8.95,14.31,9.84,5.07-3,5.07-3Z" style="fill:#fff"></path><path d="M110.06,348.37a2.09,2.09,0,0,1-.87-.18c-1.81-.77-13.92-7.45-14.6-10.17s4.06-7.65,4.6-8.22a.46.46,0,0,1,.35-.16.56.56,0,0,1,.36.14l14.91,14.62a.49.49,0,0,1,0,.66C114.56,345.43,112.24,348.37,110.06,348.37ZM99.57,330.86c-1.87,2.06-4.37,5.46-4,6.91.52,2.06,11.62,8.48,14,9.5,1.26.55,3.27-1.4,4.19-2.48Z" style="fill:#263238"></path><path d="M96,340s-1.79,4.77-.3,6.86,11,5.67,12.23,4.47a7.25,7.25,0,0,0,1.49-3.58Z" style="fill:#fff"></path><path d="M107,352.05l-.45,0c-3.14-.26-9.94-3-11.26-4.9-1.63-2.28.16-7.12.23-7.32a.5.5,0,0,1,.3-.3.48.48,0,0,1,.42,0l13.42,7.75a.53.53,0,0,1,.25.5,7.77,7.77,0,0,1-1.64,3.87A1.72,1.72,0,0,1,107,352.05ZM96.25,340.72c-.49,1.55-1.13,4.49-.17,5.83s7.09,4.07,10.28,4.46c1,.12,1.18-.05,1.19-.05a6.15,6.15,0,0,0,1.29-3Z" style="fill:#263238"></path></g><g id="freepik--Table--inject-115"><path d="M470.79,418.11H41.46a.5.5,0,0,1-.5-.5.5.5,0,0,1,.5-.5H470.79a.5.5,0,0,1,.5.5A.51.51,0,0,1,470.79,418.11Z" style="fill:#263238"></path></g><g id="freepik--Mug--inject-115"><path d="M168.47,439H157a10.2,10.2,0,0,1-10.1-8.84l-4.65-35.82h40.95l-4.65,35.82A10.18,10.18,0,0,1,168.47,439Z" style="fill:#9e9e9e"></path><path d="M168.47,439.49H157a10.72,10.72,0,0,1-10.59-9.28l-4.66-35.82a.51.51,0,0,1,.12-.39.5.5,0,0,1,.38-.17h40.95a.49.49,0,0,1,.38.17.47.47,0,0,1,.12.39l-4.66,35.82A10.71,10.71,0,0,1,168.47,439.49Zm-25.63-44.66,4.58,35.25a9.72,9.72,0,0,0,9.6,8.41h11.45a9.7,9.7,0,0,0,9.6-8.41l4.59-35.25Z" style="fill:#263238"></path><ellipse cx="162.75" cy="394.33" rx="20.48" ry="2.52" style="fill:#fff"></ellipse><path d="M162.75,397.35c-.86,0-21,0-21-3s20.12-3,21-3,21,0,21,3S163.6,397.35,162.75,397.35Zm-19.94-3c.86.85,8.21,2,19.94,2s19.07-1.17,19.93-2c-.86-.85-8.2-2-19.93-2S143.67,393.48,142.81,394.33Zm39.93.07h0Z" style="fill:#263238"></path><path d="M139.07,416c-1.57-2.06-2.51-8.9.53-11.27a6.46,6.46,0,0,1,4-1.61l-.28-2.71s-2.54-1.35-6.44,2-2.69,13.15-.67,16.08a9.61,9.61,0,0,0,9.47,4.23l-.39-3.71A7.82,7.82,0,0,1,139.07,416Z" style="fill:#9e9e9e"></path><path d="M144.36,423.35a10.13,10.13,0,0,1-8.56-4.55c-2.22-3.22-3.29-13.22.76-16.73s6.87-2.16,7-2.1a.49.49,0,0,1,.26.39l.29,2.71a.52.52,0,0,1-.13.39.41.41,0,0,1-.38.16,6,6,0,0,0-3.68,1.51c-2.81,2.18-1.82,8.77-.44,10.56h0a7.34,7.34,0,0,0,5.83,2.85.5.5,0,0,1,.49.45l.39,3.71a.49.49,0,0,1-.39.54A7.47,7.47,0,0,1,144.36,423.35Zm-2.45-22.71c-1,0-2.63.38-4.7,2.18-3.62,3.15-2.59,12.51-.59,15.42a9.1,9.1,0,0,0,8.52,4.09l-.3-2.81a8.26,8.26,0,0,1-6.16-3.22h0c-1.77-2.3-2.62-9.44.62-12a7.38,7.38,0,0,1,3.75-1.69l-.2-1.88A3.22,3.22,0,0,0,141.91,400.64Z" style="fill:#263238"></path><path d="M167.3,388.73a.51.51,0,0,1-.4-.8s2.38-3.27,1.65-8.9a28.4,28.4,0,0,0-2.25-7.42,27.49,27.49,0,0,1-2.34-8.08,25.3,25.3,0,0,1,1-10.35.5.5,0,1,1,.94.34,24.75,24.75,0,0,0-.93,9.91,26.39,26.39,0,0,0,2.26,7.8,29.11,29.11,0,0,1,2.32,7.67c.78,6.06-1.74,9.48-1.84,9.63A.51.51,0,0,1,167.3,388.73Z" style="fill:#263238"></path><path d="M173.44,394.56a.5.5,0,0,1-.3-.9c2.9-2.17,3.56-8.9,1.5-15.31a14,14,0,0,1-.34-7.75.5.5,0,0,1,1,.29,13.24,13.24,0,0,0,.34,7.16c2.21,6.9,1.41,14-1.86,16.41A.47.47,0,0,1,173.44,394.56Z" style="fill:#263238"></path></g><g id="freepik--Bread--inject-115"><ellipse cx="236.14" cy="438.07" rx="42.75" ry="11.09" style="fill:#263238"></ellipse><path d="M236.14,449.66c-24.26,0-43.26-5.09-43.26-11.59s19-11.59,43.26-11.59,43.25,5.09,43.25,11.59S260.39,449.66,236.14,449.66Zm0-22.18c-25.28,0-42.26,5.48-42.26,10.59s17,10.59,42.26,10.59,42.25-5.47,42.25-10.59S261.41,427.48,236.14,427.48Z" style="fill:#263238"></path><ellipse cx="236.14" cy="436.21" rx="46.39" ry="11.09" style="fill:#fff"></ellipse><path d="M236.14,447.8c-26.3,0-46.89-5.09-46.89-11.59s20.59-11.59,46.89-11.59S283,429.71,283,436.21,262.43,447.8,236.14,447.8Zm0-22.18c-27.45,0-45.89,5.47-45.89,10.59s18.44,10.59,45.89,10.59S282,441.32,282,436.21,263.58,425.62,236.14,425.62Z" style="fill:#263238"></path><ellipse cx="236.14" cy="435.12" rx="37.97" ry="8.19" style="fill:#fff"></ellipse><path d="M236.14,443.8c-18.91,0-38.48-3.25-38.48-8.68s19.57-8.69,38.48-8.69,38.47,3.25,38.47,8.69S255.05,443.8,236.14,443.8Zm0-16.37c-22.42,0-37.48,4-37.48,7.69s15.06,7.68,37.48,7.68,37.47-4,37.47-7.68S258.55,427.43,236.14,427.43Z" style="fill:#263238"></path><path d="M225,424.83s-15.94-2.12-22.89,1.36c-1.67.83-1.74,3.26-1.74,4.08,0,8.35,16.77,13.3,29.6,12.78s12.83-5.94,12.83-5.94,27-3.36,27.86-4.14.91-4.43-.47-5.08-26.15-7.32-29.46-7.32S225,424.83,225,424.83Z" style="fill:#92E3A9"></path><path d="M228.2,443.58c-8.89,0-20.33-2.52-25.57-7.55a7.94,7.94,0,0,1-2.77-5.76c0-2.3.7-3.87,2-4.53,6.77-3.39,21.48-1.62,23.06-1.42,1.33-.45,12.56-4.25,15.78-4.25s27.91,6.55,29.67,7.37a2.83,2.83,0,0,1,1.28,2.2c.21,1.31,0,3.05-.67,3.7-.85.78-19.39,3.17-27.77,4.21-.29,1.4-2.09,5.55-13.25,6C229.4,443.57,228.81,443.58,228.2,443.58Zm-13.53-18.89c-4.44,0-9.31.42-12.34,1.94-1.28.64-1.47,2.56-1.47,3.64a7,7,0,0,0,2.47,5c4.73,4.55,16.17,7.68,26.61,7.24,12.09-.49,12.35-5.4,12.35-5.45a.5.5,0,0,1,.44-.49c10.11-1.26,26.55-3.47,27.63-4a4.42,4.42,0,0,0,.32-2.77c-.12-.76-.39-1.3-.72-1.45-1-.5-25.86-7.28-29.24-7.28-3.19,0-15.44,4.19-15.56,4.23a.46.46,0,0,1-.23,0A88.06,88.06,0,0,0,214.67,424.69Z" style="fill:#263238"></path><path d="M225,422s-20.69-2.33-24,5.43,16.14,13.3,29,12.79,12.83-5.95,12.83-5.95,27-3.36,27.86-4.13,0-2.2-1.38-2.84-25.24-9.56-28.55-9.56S225,422,225,422Z" style="fill:#fff"></path><path d="M228.26,440.74c-10.34,0-23.6-3.51-27.16-8.68a4.78,4.78,0,0,1-.57-4.84c3.33-7.79,22.57-5.94,24.41-5.74,1.3-.44,12.55-4.26,15.78-4.26,3.54,0,27.63,9.08,28.77,9.61a3.35,3.35,0,0,1,2,2.27,1.52,1.52,0,0,1-.46,1.39c-.85.79-19.39,3.18-27.77,4.22-.29,1.4-2.09,5.55-13.25,6C229.42,440.73,228.84,440.74,228.26,440.74Zm-10-18.57c-6.23,0-14.85.86-16.81,5.44a3.81,3.81,0,0,0,.47,3.89c3.59,5.2,17.75,8.63,28,8.21,12.09-.49,12.35-5.4,12.35-5.45a.5.5,0,0,1,.44-.49c10.11-1.26,26.55-3.47,27.63-4a.5.5,0,0,0,.11-.47,2.41,2.41,0,0,0-1.41-1.51c-1.23-.58-25.18-9.52-28.34-9.52s-15.44,4.2-15.56,4.24a.56.56,0,0,1-.22,0C224.86,422.48,222,422.17,218.26,422.17Z" style="fill:#263238"></path><path d="M225,420.74s-15.94-2.12-22.89,1.35c-1.67.84-1.74,3.27-1.74,4.09,0,8.35,16.77,13.29,29.6,12.78S242.79,433,242.79,433s27-3.36,27.86-4.13.91-4.43-.47-5.08-26.15-7.32-29.46-7.32S225,420.74,225,420.74Z" style="fill:#92E3A9"></path><path d="M228.21,439.49c-8.9,0-20.34-2.52-25.58-7.55a8,8,0,0,1-2.77-5.76c0-2.3.7-3.87,2-4.53,6.77-3.39,21.48-1.62,23.06-1.42,1.33-.45,12.56-4.25,15.78-4.25s27.91,6.55,29.67,7.37a2.83,2.83,0,0,1,1.28,2.2c.21,1.31,0,3.05-.67,3.69-.85.79-19.39,3.18-27.77,4.22-.29,1.4-2.09,5.55-13.25,6Q229.11,439.49,228.21,439.49ZM214.66,420.6c-4.44,0-9.3.42-12.33,1.94-1.28.64-1.47,2.55-1.47,3.64a7,7,0,0,0,2.47,5c4.73,4.54,16.18,7.67,26.61,7.24,12.09-.49,12.35-5.4,12.35-5.45a.5.5,0,0,1,.44-.49c10.11-1.26,26.55-3.47,27.63-4a4.37,4.37,0,0,0,.32-2.76,2,2,0,0,0-.72-1.46c-1-.49-25.87-7.27-29.24-7.27-3.19,0-15.44,4.19-15.56,4.23a.46.46,0,0,1-.23,0A85.83,85.83,0,0,0,214.66,420.6Z" style="fill:#263238"></path><path d="M225,417.9s-20.69-2.33-24,5.42,16.14,13.31,29,12.79,12.83-5.94,12.83-5.94,27-3.36,27.86-4.13,0-2.2-1.38-2.85-25.24-9.56-28.55-9.56S225,417.9,225,417.9Z" style="fill:#fff"></path><path d="M228.26,436.65c-10.34,0-23.6-3.51-27.16-8.68a4.78,4.78,0,0,1-.57-4.84c3.33-7.79,22.57-5.94,24.41-5.74,1.3-.45,12.55-4.26,15.78-4.26,3.52,0,27.62,9.08,28.77,9.61a3.36,3.36,0,0,1,2,2.26,1.53,1.53,0,0,1-.46,1.4c-.85.79-19.39,3.18-27.77,4.22-.29,1.4-2.09,5.54-13.25,6C229.42,436.64,228.84,436.65,228.26,436.65Zm-10-18.58c-6.23,0-14.84.87-16.8,5.45a3.79,3.79,0,0,0,.47,3.88c3.59,5.21,17.75,8.64,28,8.21,12.09-.48,12.35-5.4,12.35-5.45a.5.5,0,0,1,.44-.49c10.11-1.25,26.55-3.46,27.63-4a.5.5,0,0,0,.11-.47,2.41,2.41,0,0,0-1.41-1.51c-1.23-.58-25.19-9.52-28.34-9.52s-15.44,4.2-15.56,4.24a.55.55,0,0,1-.22,0C224.86,418.38,222,418.07,218.25,418.07Z" style="fill:#263238"></path></g><g id="freepik--Jam--inject-115"><path d="M300,411.28a1.93,1.93,0,0,0-1.93,1.94v26.62c0,1.15,7.58,4.92,16.94,4.92S332,441,332,439.84V413.22a1.93,1.93,0,0,0-1.93-1.94Z" style="fill:#92E3A9"></path><path d="M315,445.26c-9.19,0-17.44-3.68-17.44-5.42V413.22a2.43,2.43,0,0,1,2.43-2.44h30a2.44,2.44,0,0,1,2.44,2.44v26.62C332.46,441.58,324.2,445.26,315,445.26Zm-15-33.48a1.44,1.44,0,0,0-1.43,1.44v26.62c.35.87,7.24,4.42,16.44,4.42s16.1-3.55,16.45-4.47V413.22a1.45,1.45,0,0,0-1.44-1.44Z" style="fill:#263238"></path><path d="M301.84,415v22.2c0,.9,5.89,3.82,13.17,3.82s13.17-2.92,13.17-3.82V415Z" style="fill:#fff"></path><path d="M315,441.53c-6.78,0-13.67-2.77-13.67-4.32V415a.5.5,0,0,1,.5-.5h26.34a.5.5,0,0,1,.5.5v22.2C328.68,438.76,321.79,441.53,315,441.53Zm-12.67-26v21.7c.34.64,5.68,3.32,12.67,3.32s12.33-2.68,12.69-3.41l0-21.61Z" style="fill:#263238"></path><path d="M298.07,403.89v7c0,1.15,7.58,2.09,16.94,2.09S332,412,332,410.88v-7Z" style="fill:#fff"></path><path d="M315,413.47c-1.79,0-17.44-.07-17.44-2.59v-7a.5.5,0,0,1,.5-.5H332a.5.5,0,0,1,.5.5v7C332.46,413.4,316.79,413.47,315,413.47Zm-16.44-2.66c.68.69,6.8,1.66,16.44,1.66s15.76-1,16.45-1.66v-6.42H298.57Z" style="fill:#263238"></path><ellipse cx="315.01" cy="403.89" rx="16.94" ry="2.09" style="fill:#fff"></ellipse><path d="M315,406.47c-1.79,0-17.44-.07-17.44-2.58s15.65-2.59,17.44-2.59,17.45.07,17.45,2.59S316.79,406.47,315,406.47Zm-16.35-2.58c1,.68,7,1.58,16.35,1.58s15.33-.9,16.35-1.58c-1-.69-7.05-1.59-16.35-1.59S299.68,403.2,298.66,403.89Zm32.82.1h0Z" style="fill:#263238"></path><path d="M320.81,401.6l-35.75,4.64s7.91,1.37,10.66,1.2,29.39-4.12,29.39-4.12Z" style="fill:#fff"></path><path d="M295.18,408A85.51,85.51,0,0,1,285,406.73a.49.49,0,0,1-.41-.5.51.51,0,0,1,.44-.49l35.75-4.64a.54.54,0,0,1,.25,0l4.29,1.72a.53.53,0,0,1,.32.53.5.5,0,0,1-.43.43c-1.09.16-26.69,4-29.43,4.13Zm-6.61-1.67a45.52,45.52,0,0,0,7.12.65c2.27-.14,21.45-2.95,27.51-3.85l-2.45-1Z" style="fill:#263238"></path><path d="M320.81,401.6l16.95-2.48a3.13,3.13,0,0,1,2.12.39c.62.37.89.88-1,1.23l-13.75,2.58Z" style="fill:#fff"></path><path d="M325.11,403.82a.43.43,0,0,1-.19,0l-4.29-1.72a.49.49,0,0,1-.31-.52.51.51,0,0,1,.42-.44l16.95-2.48a3.72,3.72,0,0,1,2.45.46c.53.32.76.69.69,1.09-.13.65-1,.9-1.88,1.06l-13.75,2.58Zm-2.39-2,2.44,1c1.36-.26,12-2.27,13.61-2.55a4.59,4.59,0,0,0,.94-.26l-.09-.06a2.7,2.7,0,0,0-1.79-.32Z" style="fill:#263238"></path></g><g id="freepik--Toaster--inject-115"><path d="M430.57,370.34H360.68l13.61,67.37h69.88v-54C444.17,375.5,435.64,370.34,430.57,370.34Z" style="fill:#fff"></path><path d="M444.17,438.21H374.29a.51.51,0,0,1-.5-.4l-13.6-67.37a.5.5,0,0,1,.11-.42.46.46,0,0,1,.38-.18h69.89c5.62,0,14.1,5.52,14.1,13.83v54A.5.5,0,0,1,444.17,438.21Zm-69.48-1h69V383.67c0-8-8.48-12.83-13.1-12.83H361.29Z" style="fill:#263238"></path><path d="M374.29,437.71l-22.78-10.8v-47.4a9.17,9.17,0,0,1,9.17-9.17h0c5.07,0,13.61,4.57,13.61,13.33Z" style="fill:#9e9e9e"></path><path d="M374.29,438.21a.54.54,0,0,1-.22,0L351.3,427.37a.51.51,0,0,1-.29-.46v-47.4a9.68,9.68,0,0,1,9.67-9.67c5.06,0,14.11,4.62,14.11,13.83v54a.52.52,0,0,1-.5.5ZM352,426.6l21.78,10.32V383.67c0-8.54-8.41-12.83-13.11-12.83a8.68,8.68,0,0,0-8.67,8.67Z" style="fill:#263238"></path><polygon points="350.27 424.7 351.56 424.39 352.47 425.48 374.06 435.72 444.31 435.72 444.31 434.35 446.78 435.72 446.78 447.08 373.62 447.08 350.34 435.42 350.27 424.7" style="fill:#263238"></polygon><path d="M446.78,447.58H373.62a.54.54,0,0,1-.22-.05l-23.28-11.67a.49.49,0,0,1-.28-.44l-.07-10.72a.49.49,0,0,1,.39-.49l1.29-.3a.5.5,0,0,1,.49.16l.84,1,21.4,10.15h69.63v-.87a.5.5,0,0,1,.74-.44l2.47,1.37a.51.51,0,0,1,.26.44v11.36A.5.5,0,0,1,446.78,447.58Zm-73-1h72.54V436l-1.47-.81v.52a.5.5,0,0,1-.5.5H374.06a.54.54,0,0,1-.21-.05l-21.59-10.24a.55.55,0,0,1-.17-.13l-.72-.85-.6.14.07,10Z" style="fill:#263238"></path><path d="M362.22,419.33a.5.5,0,0,1-.5-.5V374.94a.5.5,0,0,1,.5-.5.51.51,0,0,1,.5.5v43.89A.51.51,0,0,1,362.22,419.33Z" style="fill:#263238"></path><polygon points="360.02 384.6 356.29 385.69 363.53 388.33 366.17 386.57 360.02 384.6" style="fill:#263238"></polygon><path d="M363.53,388.83a.51.51,0,0,1-.17,0l-7.24-2.63a.52.52,0,0,1-.33-.49.49.49,0,0,1,.36-.46l3.73-1.1a.51.51,0,0,1,.3,0l6.14,2a.5.5,0,0,1,.34.4.51.51,0,0,1-.22.49l-2.63,1.75A.47.47,0,0,1,363.53,388.83Zm-5.64-3.08,5.58,2,1.56-1-5-1.61Z" style="fill:#263238"></path><polygon points="379.29 373.28 431.61 373.28 427.2 371.75 376.85 371.75 379.29 373.28" style="fill:#263238"></polygon><path d="M431.61,373.78H379.29a.5.5,0,0,1-.27-.07l-2.44-1.53a.51.51,0,0,1-.21-.57.5.5,0,0,1,.48-.36H427.2a.45.45,0,0,1,.16,0l4.41,1.53a.51.51,0,0,1,.33.56A.49.49,0,0,1,431.61,373.78Zm-52.18-1h49.21l-1.53-.53H378.58Z" style="fill:#263238"></path></g></svg>
