<svg xmlns="http://www.w3.org/2000/svg" viewBox="0 0 500 500"><g id="freepik--Floor--inject-116"><g id="freepik--floor--inject-116"><path id="freepik--floor--inject-116" d="M78.3,243c-94.83,54.75-94.82,143.51,0,198.26s248.58,54.75,343.4,0,94.82-143.51,0-198.26S173.12,188.22,78.3,243Z" style="fill:#f5f5f5"></path></g></g><g id="freepik--Shadows--inject-116"><polygon id="freepik--Shadow--inject-116" points="25.4 338.13 218.55 226.33 287.11 265.92 93.97 377.73 25.4 338.13" style="fill:#e0e0e0"></polygon><path id="freepik--shadow--inject-116" d="M72.74,362.32c9.86,5.76,9.86,15.09,0,20.85s-25.85,5.76-35.71,0-9.87-15.09,0-20.85S62.88,356.56,72.74,362.32Z" style="fill:#e0e0e0"></path><path id="freepik--shadow--inject-116" d="M423.66,450.47c33-19.8,33-53.59,0-73.38-36.09-21.64-96-21.64-132.1,0-33,19.79-33,53.59,0,73.38C327.66,472.1,387.57,472.1,423.66,450.47Z" style="fill:#e0e0e0"></path><ellipse id="freepik--shadow--inject-116" cx="177.6" cy="411.39" rx="79.48" ry="45.89" style="fill:#e0e0e0"></ellipse></g><g id="freepik--Window--inject-116"><g id="freepik--window--inject-116"><g id="freepik--window--inject-116"><g id="freepik--Frame--inject-116"><polygon points="360.9 46.81 358.39 48.21 358.39 158.37 360.9 156.97 360.9 46.81" style="fill:#fafafa"></polygon><polygon points="360.9 156.97 360.9 49.66 461.63 107.82 461.61 215.12 360.9 156.97" style="fill:#fff"></polygon><path d="M466.29,226.05V105.13l-112.56-65V161.06Zm-107.9-67.68V48.21l103.24,59.61V218Z" style="fill:#f0f0f0"></path><polygon points="358.39 158.37 360.9 156.97 461.61 215.12 461.63 217.98 358.39 158.37" style="fill:#e0e0e0"></polygon><polygon points="386.51 64.45 384 63 384 173.16 386.51 171.75 386.51 64.45" style="fill:#fafafa"></polygon><polygon points="443.09 97.12 440.59 95.67 440.59 205.82 443.09 204.42 443.09 97.12" style="fill:#fafafa"></polygon><polygon points="466.29 226.04 468.79 224.59 468.79 103.68 466.29 105.13 466.29 226.04" style="fill:#e0e0e0"></polygon><polygon points="468.79 103.68 466.29 105.13 353.73 40.15 356.23 38.7 468.79 103.68" style="fill:#fafafa"></polygon><polygon points="461.63 158.04 461.63 160.93 358.38 101.32 360.88 99.87 461.63 158.04" style="fill:#e0e0e0"></polygon></g><polygon points="461.62 166.3 461.63 160.93 358.38 101.32 358.39 106.7 461.62 166.3" style="fill:#f0f0f0"></polygon><polygon points="440.58 211.2 435.93 208.52 435.93 87.61 440.58 90.29 440.58 211.2" style="fill:#f0f0f0"></polygon><polygon points="384.01 178.54 379.36 175.85 379.36 54.94 384.01 57.63 384.01 178.54" style="fill:#f0f0f0"></polygon><polygon points="440.59 148.78 443.09 147.33 443.09 97.12 440.59 95.67 440.59 148.78" style="fill:#fafafa"></polygon><polygon points="384.02 116.12 386.53 114.68 386.53 64.46 384.02 63.01 384.02 116.12" style="fill:#fafafa"></polygon></g></g></g><g id="freepik--Pictures--inject-116"><g id="freepik--Picture--inject-116"><g id="freepik--frame--inject-116"><polygon points="333.6 87.07 332.27 87.86 305.07 72.16 306.4 71.37 333.6 87.07" style="fill:#fafafa"></polygon><polygon points="306.4 71.37 332.27 86.31 332.27 59.21 306.4 44.28 306.4 71.37" style="fill:#fff"></polygon><path d="M302.57,73.6l32.21,18.6V57.76L302.57,39.17Zm2.5-30.1,27.2,15.71V87.86l-27.2-15.7Z" style="fill:#ebebeb"></path><polygon points="305.07 72.16 306.4 71.37 306.4 44.28 305.07 43.5 305.07 72.16" style="fill:#e0e0e0"></polygon><polygon points="302.57 39.17 303.92 38.4 336.12 56.99 334.78 57.77 302.57 39.17" style="fill:#f5f5f5"></polygon><polygon points="336.12 56.99 334.78 57.77 334.78 92.2 336.12 91.42 336.12 56.99" style="fill:#e0e0e0"></polygon></g><g id="freepik--Land--inject-116"><polygon points="307.41 70.56 331.26 84.33 331.26 77.44 325.3 63.67 321.58 67.12 322.92 72.89 314.69 55.27 307.41 63.67 307.41 70.56" style="fill:#f5f5f5"></polygon><path d="M321.81,57a3.92,3.92,0,0,1,1.76,3.06c0,1.12-.79,1.58-1.76,1A3.92,3.92,0,0,1,320.05,58C320.05,56.92,320.84,56.46,321.81,57Z" style="fill:#f5f5f5"></path></g></g><g id="freepik--picture--inject-116"><g id="freepik--frame--inject-116"><polygon points="333.65 132.53 332.33 133.32 305.13 117.62 306.45 116.83 333.65 132.53" style="fill:#fafafa"></polygon><polygon points="306.45 116.83 332.33 131.76 332.33 104.67 306.45 89.74 306.45 116.83" style="fill:#fff"></polygon><path d="M302.62,119.06l32.21,18.59V103.22L302.62,84.63ZM305.13,89l27.2,15.7v28.66l-27.2-15.7Z" style="fill:#ebebeb"></path><polygon points="305.13 117.62 306.45 116.83 306.45 89.74 305.13 88.96 305.13 117.62" style="fill:#e0e0e0"></polygon><polygon points="302.63 84.63 303.97 83.86 336.18 102.45 334.83 103.22 302.63 84.63" style="fill:#f5f5f5"></polygon><polygon points="336.18 102.45 334.83 103.22 334.83 137.65 336.18 136.88 336.18 102.45" style="fill:#e0e0e0"></polygon></g><g id="freepik--land--inject-116"><polygon points="307.46 116.02 331.32 129.79 331.32 122.9 325.35 109.13 321.64 112.57 322.97 118.34 314.74 100.73 307.46 109.13 307.46 116.02" style="fill:#f5f5f5"></polygon><path d="M321.86,102.48a3.89,3.89,0,0,1,1.77,3.06c0,1.12-.79,1.58-1.77,1a3.9,3.9,0,0,1-1.76-3C320.1,102.37,320.89,101.92,321.86,102.48Z" style="fill:#f5f5f5"></path></g></g></g><g id="freepik--Stove--inject-116"><g id="freepik--stove--inject-116"><g id="freepik--Counter--inject-116"><path d="M209.59,222.13,105.88,282v14.18L161.14,328,271,264.67v-7.09Z"></path><g id="freepik--Body--inject-116"><path d="M161.13,190.29v134.2l112.93-65.13V125.16Z" style="fill:#f0f0f0"></path><polygon points="161.13 190.29 161.13 324.5 102.8 290.82 102.8 156.62 161.13 190.29"></polygon><path d="M215.73,91.48,102.8,156.62l58.33,33.67,112.92-65.13Z" style="fill:#455a64"></path></g><path d="M277.62,121.15a2.43,2.43,0,0,0-1.43-2L221.48,87.57a7.63,7.63,0,0,0-6.9,0L103,151.92a2.43,2.43,0,0,0-1.43,2v4.58a2.43,2.43,0,0,0,1.43,2l54.71,31.6a7.59,7.59,0,0,0,6.91,0l111.61-64.42a2.43,2.43,0,0,0,1.43-2Z" style="fill:#BA68C8"></path><path d="M277.62,121.15a2.43,2.43,0,0,0-1.43-2L221.48,87.57a7.63,7.63,0,0,0-6.9,0L103,151.92a2.43,2.43,0,0,0-1.43,2v4.58a2.43,2.43,0,0,0,1.43,2l54.71,31.6a7.59,7.59,0,0,0,6.91,0l111.61-64.42a2.43,2.43,0,0,0,1.43-2Z" style="fill:#fff;opacity:0.4"></path><path d="M157.67,187.51a7.21,7.21,0,0,0,3.45.82v4.58a7.15,7.15,0,0,1-3.45-.82L103,160.48a2.41,2.41,0,0,1-1.44-2v-4.58a2.44,2.44,0,0,0,1.44,2Z" style="fill:#263238"></path><path d="M214.58,87.57,103,151.92c-1.91,1.1-1.91,2.88,0,4l54.71,31.6a7.65,7.65,0,0,0,6.91,0l111.61-64.35c1.9-1.1,1.9-2.89,0-4L221.48,87.57A7.63,7.63,0,0,0,214.58,87.57Z" style="fill:#BA68C8"></path><path d="M214.58,87.57,103,151.92c-1.91,1.1-1.91,2.88,0,4l54.71,31.6a7.65,7.65,0,0,0,6.91,0l111.61-64.35c1.9-1.1,1.9-2.89,0-4L221.48,87.57A7.63,7.63,0,0,0,214.58,87.57Z" style="fill:#fff;opacity:0.85"></path></g><path d="M175.6,204.3l87-50.26c1.71-1,3.11-.18,3.11,1.8v71.32a6.89,6.89,0,0,1-3.11,5.38l-87,50.25c-1.72,1-3.11.19-3.11-1.79V209.68A6.86,6.86,0,0,1,175.6,204.3Z" style="fill:#455a64"></path><g style="opacity:0.05"><path d="M221.09,178l-48.6,87V281c0,2,1.39,2.78,3.11,1.79l4.51-2.6,64.67-115.83Z" style="fill:#fff"></path><polygon points="172.49 247.25 206.41 186.52 194.39 193.46 172.49 232.67 172.49 247.25" style="fill:#fff"></polygon><path d="M265.76,157.28v-1.44c0-2-1.4-2.79-3.11-1.8l-3.87,2.24L194.11,272.11l11.12-6.42Z" style="fill:#fff"></path><polygon points="265.76 204.76 265.76 176.01 220.66 256.78 244.34 243.1 265.76 204.76" style="fill:#fff"></polygon></g><path d="M180,273.84a2.34,2.34,0,0,1-1.17-.3,2.87,2.87,0,0,1-1.27-2.64V213.05a7.57,7.57,0,0,1,3.47-6l75.39-43.53a2.59,2.59,0,0,1,4.18,2.41v57.86a7.56,7.56,0,0,1-3.46,6l-75.4,43.53A3.47,3.47,0,0,1,180,273.84Zm1.75-65.55a6.18,6.18,0,0,0-2.75,4.76V270.9a1.21,1.21,0,0,0,2,1.18l75.39-43.53a6.18,6.18,0,0,0,2.75-4.76V165.93a1.2,1.2,0,0,0-2-1.17Z" style="fill:#37474f"></path><path d="M175.6,289.53l87-50.26c1.71-1,3.11-.19,3.11,1.79v13a6.86,6.86,0,0,1-3.11,5.38l-87,50.29c-1.71,1-3.11.19-3.11-1.79l0-13A6.81,6.81,0,0,1,175.6,289.53Z" style="fill:#e0e0e0"></path><polygon points="208.71 170.58 227.13 159.95 227.13 170.31 208.71 180.94 208.71 170.58" style="fill:#263238"></polygon><path d="M196.63,178.69a2.16,2.16,0,0,0-2.17.22,6.8,6.8,0,0,0-3.07,5.31,2.17,2.17,0,0,0,.9,2l2,1.13a2.15,2.15,0,0,0,2.17-.21,6.78,6.78,0,0,0,3.07-5.32,2.15,2.15,0,0,0-.9-2Z" style="fill:#263238"></path><path d="M196.42,187.13a1.87,1.87,0,0,1-3.07-1.78,6.8,6.8,0,0,1,3.07-5.31,1.87,1.87,0,0,1,3.07,1.77A6.78,6.78,0,0,1,196.42,187.13Z" style="fill:#37474f"></path><path d="M184.36,185.78a2.16,2.16,0,0,0-2.17.22,6.77,6.77,0,0,0-3.07,5.31,2.17,2.17,0,0,0,.89,2l2,1.13a2.15,2.15,0,0,0,2.17-.21,6.78,6.78,0,0,0,3.07-5.32,2.15,2.15,0,0,0-.9-2Z" style="fill:#263238"></path><path d="M184.14,194.22a1.87,1.87,0,0,1-3.07-1.78,6.8,6.8,0,0,1,3.07-5.31,1.87,1.87,0,0,1,3.07,1.77A6.78,6.78,0,0,1,184.14,194.22Z" style="fill:#37474f"></path><path d="M251.9,146.79a2.16,2.16,0,0,0-2.17.22,6.8,6.8,0,0,0-3.07,5.31,2.17,2.17,0,0,0,.9,2l2,1.13a2.15,2.15,0,0,0,2.17-.21,6.78,6.78,0,0,0,3.07-5.32,2.15,2.15,0,0,0-.9-2Z" style="fill:#263238"></path><path d="M251.69,155.23a1.87,1.87,0,0,1-3.07-1.77,6.8,6.8,0,0,1,3.07-5.32,1.87,1.87,0,0,1,3.07,1.77A6.78,6.78,0,0,1,251.69,155.23Z" style="fill:#37474f"></path><path d="M239.63,153.88a2.16,2.16,0,0,0-2.17.22,6.78,6.78,0,0,0-3.07,5.32,2.16,2.16,0,0,0,.89,2l2,1.13a2.15,2.15,0,0,0,2.17-.21,6.78,6.78,0,0,0,3.07-5.32,2.15,2.15,0,0,0-.9-2Z" style="fill:#263238"></path><path d="M239.41,162.32a1.87,1.87,0,0,1-3.07-1.77,6.8,6.8,0,0,1,3.07-5.32,1.87,1.87,0,0,1,3.07,1.77A6.78,6.78,0,0,1,239.41,162.32Z" style="fill:#37474f"></path><path d="M186.55,155c-5.53-3.19-14.53-3.19-20.06,0-2.75,1.59-4.26,3.72-4.26,6s1.51,4.42,4.26,6a22.24,22.24,0,0,0,20.06,0c2.75-1.59,4.26-3.73,4.26-6S189.3,156.6,186.55,155Zm-.38,11.36c-5.32,3.07-14,3.07-19.3,0C164.37,164.92,163,163,163,161s1.38-3.91,3.88-5.35a21.31,21.31,0,0,1,19.3,0c2.5,1.44,3.88,3.34,3.88,5.35S188.67,164.92,186.17,166.37Zm-27.58-27.5c-5.53-3.19-14.53-3.2-20.06,0-2.75,1.59-4.26,3.72-4.26,6s1.51,4.42,4.26,6a22.24,22.24,0,0,0,20.06,0c2.75-1.59,4.26-3.73,4.26-6S161.34,140.45,158.59,138.87Zm-.38,11.36c-5.32,3.07-14,3.07-19.3,0-2.51-1.45-3.89-3.35-3.89-5.35s1.38-3.91,3.89-5.36a21.39,21.39,0,0,1,19.3,0c2.5,1.45,3.88,3.35,3.88,5.36S160.71,148.78,158.21,150.23Zm33.28-30.36c-5.53-3.19-14.53-3.19-20.06,0-2.75,1.59-4.26,3.72-4.26,6s1.51,4.42,4.26,6a22.24,22.24,0,0,0,20.06,0c2.75-1.59,4.26-3.72,4.26-6S194.24,121.46,191.49,119.87Zm-.38,11.36c-5.32,3.07-14,3.07-19.3,0-2.5-1.45-3.88-3.35-3.88-5.35s1.38-3.91,3.88-5.35a21.31,21.31,0,0,1,19.3,0c2.51,1.44,3.89,3.34,3.89,5.35S193.62,129.78,191.11,131.23ZM219.45,136c-5.53-3.19-14.52-3.19-20,0-2.75,1.59-4.27,3.72-4.27,6s1.52,4.42,4.27,6a22.22,22.22,0,0,0,20,0c2.75-1.59,4.27-3.72,4.27-6S222.2,137.6,219.45,136Zm-.38,11.36c-5.32,3.07-14,3.07-19.29,0-2.51-1.45-3.89-3.35-3.89-5.35s1.38-3.91,3.89-5.35a21.29,21.29,0,0,1,19.29,0C221.58,138.11,223,140,223,142S221.58,145.92,219.07,147.37ZM252.35,117c-5.52-3.19-14.52-3.19-20,0-2.75,1.59-4.27,3.73-4.27,6s1.52,4.42,4.27,6a22.14,22.14,0,0,0,20,0c2.76-1.59,4.27-3.72,4.27-6S255.1,118.6,252.35,117ZM252,128.37c-5.32,3.08-14,3.08-19.29,0-2.51-1.44-3.89-3.34-3.89-5.35s1.38-3.9,3.89-5.35a21.37,21.37,0,0,1,19.29,0c2.51,1.45,3.89,3.35,3.89,5.35S254.48,126.93,252,128.37Zm-27.58-27.5c-5.53-3.19-14.52-3.19-20,0-2.75,1.59-4.27,3.72-4.27,6s1.52,4.42,4.27,6a22.22,22.22,0,0,0,20,0c2.75-1.59,4.27-3.72,4.27-6S227.14,102.46,224.39,100.87ZM224,112.23c-5.32,3.08-14,3.07-19.29,0-2.51-1.44-3.89-3.34-3.89-5.35s1.38-3.9,3.89-5.35a21.37,21.37,0,0,1,19.29,0c2.51,1.45,3.89,3.35,3.89,5.35S226.52,110.79,224,112.23Z" style="fill:#455a64"></path></g></g><g id="freepik--counter--inject-116"><g id="freepik--counter--inject-116"><g id="freepik--counter--inject-116"><g id="freepik--l-counter--inject-116"><g id="freepik--counter--inject-116"><path d="M102.8,283.73l-63.65,36.8v14.18l55.27,31.91,69.79-40.35v-7.09Z"></path><g id="freepik--body--inject-116"><path d="M94.4,228.88v134.2l69.81-40.36V188.52Z" style="fill:#BA68C8"></path><path d="M94.4,228.88v134.2l69.81-40.36V188.52Z" style="fill:#fff;opacity:0.8"></path><polygon points="94.4 228.88 94.4 363.08 36.08 329.4 36.08 195.2 94.4 228.88" style="fill:#BA68C8"></polygon><polygon points="94.4 228.88 94.4 363.08 36.08 329.4 36.08 195.2 94.4 228.88" style="fill:#fff;opacity:0.6000000000000001"></polygon></g><g id="freepik--Doors--inject-116"><g style="opacity:0.30000000000000004"><path d="M158.16,203.52v115.7l-53.93,31.14V234.66l53.93-31.14m1.51-2.62-56.95,32.88V353l56.95-32.88V200.9Z" style="fill:#BA68C8"></path></g></g><g id="freepik--Handlers--inject-116"><polygon points="107.75 296.16 110.39 294.63 110.39 277.32 107.75 278.85 107.75 296.16" style="fill:#455a64"></polygon></g></g><path d="M105.81,150.32l-73,42.17,61.61,35.58,73.07-42.19Z" style="fill:#BA68C8"></path><path d="M105.81,150.32l-73,42.17,61.61,35.58,73.07-42.19Z" style="fill:#fff;opacity:0.4"></path><path d="M94.39,228.07l69.12-39.91,3.94-2.28v4.57L97.85,230.66l-3.46,2Z" style="fill:#BA68C8"></path><path d="M94.39,228.07l69.12-39.91,3.94-2.28v4.57L97.85,230.66l-3.46,2Z" style="fill:#fff;opacity:0.2"></path><path d="M32.78,192.49v4.59l61.61,35.58v-4.59Z" style="fill:#BA68C8"></path></g></g></g><g id="freepik--Eggs--inject-116"><path d="M47.6,188.85l19.81-11.43a3.92,3.92,0,0,1,3.56,0l49.9,28.79a1.09,1.09,0,0,1,0,2.06L101.06,219.7a3.92,3.92,0,0,1-3.56,0L47.6,190.91A1.09,1.09,0,0,1,47.6,188.85Z" style="opacity:0.15"></path><path d="M64.34,187.4c0,3.08-2.5,6.55-5.58,6.55s-5.57-3.47-5.57-6.55a5.58,5.58,0,0,1,11.15,0Z" style="fill:#BA68C8"></path><path d="M64.34,187.4c0,3.08-2.5,6.55-5.58,6.55s-5.57-3.47-5.57-6.55a5.58,5.58,0,0,1,11.15,0Z" style="opacity:0.6000000000000001"></path><path d="M74.33,193.17c0,3.07-2.5,6.55-5.57,6.55s-5.58-3.48-5.58-6.55a5.58,5.58,0,0,1,11.15,0Z" style="fill:#BA68C8"></path><path d="M74.33,193.17c0,3.07-2.5,6.55-5.57,6.55s-5.58-3.48-5.58-6.55a5.58,5.58,0,0,1,11.15,0Z" style="opacity:0.6000000000000001"></path><path d="M84.32,198.94c0,3.08-2.49,6.55-5.57,6.55s-5.57-3.47-5.57-6.55a5.57,5.57,0,0,1,11.14,0Z" style="fill:#BA68C8"></path><path d="M84.32,198.94c0,3.08-2.49,6.55-5.57,6.55s-5.57-3.47-5.57-6.55a5.57,5.57,0,0,1,11.14,0Z" style="opacity:0.6000000000000001"></path><path d="M94.31,204.72c0,3.07-2.49,6.55-5.57,6.55s-5.57-3.48-5.57-6.55a5.57,5.57,0,1,1,11.14,0Z" style="fill:#BA68C8"></path><path d="M94.31,204.72c0,3.07-2.49,6.55-5.57,6.55s-5.57-3.48-5.57-6.55a5.57,5.57,0,1,1,11.14,0Z" style="opacity:0.6000000000000001"></path><path d="M104.3,210.5c0,3.08-2.49,6.55-5.57,6.55s-5.57-3.47-5.57-6.55a5.57,5.57,0,1,1,11.14,0Z" style="fill:#BA68C8"></path><path d="M104.3,210.5c0,3.08-2.49,6.55-5.57,6.55s-5.57-3.47-5.57-6.55a5.57,5.57,0,1,1,11.14,0Z" style="opacity:0.6000000000000001"></path><path d="M115.33,204c0,3.07-2.49,6.55-5.57,6.55s-5.57-3.48-5.57-6.55a5.57,5.57,0,1,1,11.14,0Z" style="fill:#BA68C8"></path><path d="M115.33,204c0,3.07-2.49,6.55-5.57,6.55s-5.57-3.48-5.57-6.55a5.57,5.57,0,1,1,11.14,0Z" style="opacity:0.6000000000000001"></path><path d="M121.6,200.66a1.26,1.26,0,0,0-.73-1L71,170.84a3.92,3.92,0,0,0-3.56,0L47.6,182.27a1.26,1.26,0,0,0-.73,1v1.93a1.26,1.26,0,0,0,.73,1l49.9,28.79a3.92,3.92,0,0,0,3.56,0l19.81-11.44a1.23,1.23,0,0,0,.73-1Z" style="fill:#BA68C8"></path><path d="M121.6,200.66a1.26,1.26,0,0,0-.73-1L71,170.84a3.92,3.92,0,0,0-3.56,0L47.6,182.27a1.26,1.26,0,0,0-.73,1v1.93a1.26,1.26,0,0,0,.73,1l49.9,28.79a3.92,3.92,0,0,0,3.56,0l19.81-11.44a1.23,1.23,0,0,0,.73-1Z" style="opacity:0.2"></path><path d="M99.31,213.55v1.93a3.72,3.72,0,0,1-1.81-.43l-49.9-28.8a1.25,1.25,0,0,1-.74-1c0-.35,0-1.58,0-1.93a1.27,1.27,0,0,0,.74,1l49.9,28.8A3.81,3.81,0,0,0,99.31,213.55Z" style="opacity:0.1"></path><path d="M47.6,182.27l19.81-11.43a3.92,3.92,0,0,1,3.56,0l49.9,28.79a1.09,1.09,0,0,1,0,2.06l-19.81,11.43a3.92,3.92,0,0,1-3.56,0L47.6,184.33A1.09,1.09,0,0,1,47.6,182.27Z" style="fill:#BA68C8"></path><path d="M102.59,208.93c2.12-1.23,2.13-3.21,0-4.44a8.55,8.55,0,0,0-7.71,0c-2.14,1.22-2.15,3.21,0,4.44A8.57,8.57,0,0,0,102.59,208.93Z" style="opacity:0.1"></path><path d="M113.61,202.56c2.13-1.23,2.14-3.21,0-4.44a8.55,8.55,0,0,0-7.71,0c-2.15,1.22-2.15,3.21,0,4.44A8.55,8.55,0,0,0,113.61,202.56Z" style="opacity:0.1"></path><path d="M92.59,203.16c2.13-1.23,2.14-3.22,0-4.44a8.55,8.55,0,0,0-7.71,0c-2.15,1.23-2.15,3.22,0,4.44A8.52,8.52,0,0,0,92.59,203.16Z" style="opacity:0.1"></path><path d="M103.62,196.79c2.13-1.23,2.14-3.22,0-4.44a8.58,8.58,0,0,0-7.71,0c-2.15,1.23-2.16,3.22,0,4.44A8.52,8.52,0,0,0,103.62,196.79Z" style="opacity:0.1"></path><path d="M82.6,197.38c2.13-1.23,2.14-3.21,0-4.44a8.55,8.55,0,0,0-7.71,0c-2.15,1.22-2.16,3.21,0,4.44A8.55,8.55,0,0,0,82.6,197.38Z" style="opacity:0.1"></path><path d="M93.63,191c2.13-1.23,2.14-3.21,0-4.44a8.57,8.57,0,0,0-7.72,0c-2.14,1.22-2.15,3.21,0,4.44A8.55,8.55,0,0,0,93.63,191Z" style="opacity:0.1"></path><path d="M72.61,191.61c2.13-1.23,2.14-3.22,0-4.44a8.6,8.6,0,0,0-7.72,0c-2.14,1.23-2.15,3.22,0,4.44A8.52,8.52,0,0,0,72.61,191.61Z" style="opacity:0.1"></path><path d="M83.64,185.24c2.13-1.23,2.13-3.22,0-4.44a8.6,8.6,0,0,0-7.72,0c-2.14,1.23-2.15,3.22,0,4.44A8.54,8.54,0,0,0,83.64,185.24Z" style="opacity:0.1"></path><path d="M62.62,185.83c2.13-1.23,2.13-3.21,0-4.44a8.57,8.57,0,0,0-7.72,0c-2.14,1.22-2.15,3.21,0,4.44A8.57,8.57,0,0,0,62.62,185.83Z" style="opacity:0.1"></path><path d="M73.65,179.46c2.12-1.23,2.13-3.21,0-4.44A8.55,8.55,0,0,0,66,175c-2.14,1.22-2.15,3.21,0,4.44A8.57,8.57,0,0,0,73.65,179.46Z" style="opacity:0.1"></path><path d="M114.93,200.25v.26a4.88,4.88,0,0,1-.18,1.08,3.73,3.73,0,0,1-1.14,1,8.55,8.55,0,0,1-7.71,0,3.65,3.65,0,0,1-1.13-1,4.44,4.44,0,0,1-.18-1.1c0-.08,0-.17,0-.26s0-.18,0-.26c0-.23,0-.46,0-.69a10.37,10.37,0,0,1,3-6.37,3,3,0,0,1,2.15-.89,3,3,0,0,1,2.14.89,10.29,10.29,0,0,1,3,6.32c0,.24,0,.49.05.74Z" style="fill:#fff"></path><path d="M104.94,194.47a2.17,2.17,0,0,1,0,.26,4.35,4.35,0,0,1-.17,1.08,3.73,3.73,0,0,1-1.14,1,8.55,8.55,0,0,1-7.71,0,3.65,3.65,0,0,1-1.13-1,4.44,4.44,0,0,1-.18-1.1c0-.08,0-.17,0-.26s0-.18,0-.26a5.22,5.22,0,0,1,0-.69,10.34,10.34,0,0,1,3-6.37,3,3,0,0,1,4.29,0,10.28,10.28,0,0,1,3,6.32,6,6,0,0,1,.05.74A2.17,2.17,0,0,1,104.94,194.47Z" style="fill:#fff"></path><path d="M103.91,206.62a2.17,2.17,0,0,1,0,.26,5.53,5.53,0,0,1-.17,1.08,3.9,3.9,0,0,1-1.15,1,8.53,8.53,0,0,1-7.7,0,3.58,3.58,0,0,1-1.14-1,5,5,0,0,1-.18-1.1c0-.08,0-.17,0-.26s0-.18,0-.26c0-.23,0-.46,0-.69a10.37,10.37,0,0,1,3-6.37,3,3,0,0,1,2.15-.89,3,3,0,0,1,2.14.89,10.24,10.24,0,0,1,3,6.32c0,.24,0,.49.05.74A2.17,2.17,0,0,1,103.91,206.62Z" style="fill:#fff"></path><path d="M93.91,200.84v.26a4.88,4.88,0,0,1-.18,1.08,3.73,3.73,0,0,1-1.14,1,8.55,8.55,0,0,1-7.71,0,3.65,3.65,0,0,1-1.13-1,4.44,4.44,0,0,1-.18-1.1c0-.08,0-.17,0-.26s0-.18,0-.26c0-.23,0-.47,0-.69a10.34,10.34,0,0,1,3-6.37,3,3,0,0,1,2.15-.89,3,3,0,0,1,2.14.89,10.29,10.29,0,0,1,3,6.32c0,.24,0,.49,0,.74Z" style="fill:#fff"></path><path d="M95,188.69a2.17,2.17,0,0,1,0,.26,4.35,4.35,0,0,1-.17,1.08,3.73,3.73,0,0,1-1.14,1,8.52,8.52,0,0,1-7.71,0,3.65,3.65,0,0,1-1.14-.95,5.62,5.62,0,0,1-.18-1.1v-.53c0-.23,0-.46,0-.68a10.35,10.35,0,0,1,3-6.37,3,3,0,0,1,4.29,0,10.28,10.28,0,0,1,3,6.31c0,.25,0,.5,0,.74A2.44,2.44,0,0,1,95,188.69Z" style="fill:#fff"></path><path d="M85,182.91a2.17,2.17,0,0,1,0,.26,4.87,4.87,0,0,1-.17,1.08,3.78,3.78,0,0,1-1.15,1,8.5,8.5,0,0,1-7.7,0,3.67,3.67,0,0,1-1.14-.95,5,5,0,0,1-.18-1.1c0-.08,0-.17,0-.26s0-.18,0-.27,0-.46,0-.68a10.4,10.4,0,0,1,3-6.38,3.05,3.05,0,0,1,4.29,0,10.33,10.33,0,0,1,3,6.32c0,.25,0,.5,0,.74A2.44,2.44,0,0,1,85,182.91Z" style="fill:#fff"></path></g></g><g id="freepik--Plant--inject-116"><g id="freepik--plant--inject-116"><g id="freepik--Pot--inject-116"><path d="M39.73,373.75c-8.1-8.37-12.86-30.23-5-36.87H75c7.9,6.63,3.14,28.49-5,36.86l-.22.23-.28.27a9.24,9.24,0,0,1-.73.66l-.19.16c-.2.15-.4.31-.62.46a10.88,10.88,0,0,1-1,.68c-6.67,3.89-17.48,3.89-24.15,0h0a9.88,9.88,0,0,1-1.05-.68,6.59,6.59,0,0,1-.57-.44l-.24-.19c-.25-.2-.49-.42-.71-.63l-.32-.32Z" style="fill:#37474f"></path><path d="M71.5,334.21c9.18,5.36,9.18,14.05,0,19.41s-24.06,5.35-33.23,0-9.18-14.05,0-19.41S62.32,328.85,71.5,334.21Z" style="fill:#455a64"></path><path d="M67.09,336.79c6.74,3.93,6.74,10.31,0,14.25S49.42,355,42.68,351s-6.74-10.32,0-14.25S60.35,332.85,67.09,336.79Z" style="fill:#263238"></path><path d="M42.68,343.55c6.74-3.93,17.67-3.93,24.41,0a11.35,11.35,0,0,1,4,3.74,11.37,11.37,0,0,1-4,3.75C60.35,355,49.42,355,42.68,351a11.37,11.37,0,0,1-4-3.75A11.35,11.35,0,0,1,42.68,343.55Z" style="fill:#fafafa"></path></g><path d="M49,299.38c-3.06,3.87-12.26,5.57-16.84-3.9-4.3-8.88-8.84-17.27-10.21-20.55a3.48,3.48,0,0,1,1.88-4.64s-.12-5.05,8.66-2.29,15.2,7.48,19.56,15.56S54.58,297.82,49,299.38Z" style="fill:#BA68C8"></path><g style="opacity:0.25"><path d="M49,299.38c-3.06,3.87-12.26,5.57-16.84-3.9-4.3-8.88-8.84-17.27-10.21-20.55a3.48,3.48,0,0,1,1.88-4.64s-.12-5.05,8.66-2.29,15.2,7.48,19.56,15.56S54.58,297.82,49,299.38Z" style="fill:#fff"></path></g><path d="M53.63,312a45.63,45.63,0,0,0-1.12-5,71.07,71.07,0,0,0-3.58-9.61,72.43,72.43,0,0,0-11.27-17.49,63.64,63.64,0,0,0-8.44-8.22c-.1-.07-.15.13-.09.19a77.62,77.62,0,0,1,13.45,15.87,78.48,78.48,0,0,1,8.49,18.53c.56,1.82,1.1,3.65,1.59,5.5s.83,3.78,1.3,5.66c0,.19.35.28.34,0A35.52,35.52,0,0,0,53.63,312Z" style="fill:#BA68C8"></path><path d="M53.63,312a45.63,45.63,0,0,0-1.12-5,71.07,71.07,0,0,0-3.58-9.61,72.43,72.43,0,0,0-11.27-17.49,63.64,63.64,0,0,0-8.44-8.22c-.1-.07-.15.13-.09.19a77.62,77.62,0,0,1,13.45,15.87,78.48,78.48,0,0,1,8.49,18.53c.56,1.82,1.1,3.65,1.59,5.5s.83,3.78,1.3,5.66c0,.19.35.28.34,0A35.52,35.52,0,0,0,53.63,312Z" style="opacity:0.30000000000000004"></path><path d="M58.93,292.6c-8,2.46-13.91-3.76-11.86-13.53s12.32-20.61,16.19-17.7c2.42-2.41,7.75-1.55,10.26,6.38S73.75,296.06,58.93,292.6Z" style="fill:#BA68C8"></path><g style="opacity:0.15"><path d="M58.93,292.6c-8,2.46-13.91-3.76-11.86-13.53s12.32-20.61,16.19-17.7c2.42-2.41,7.75-1.55,10.26,6.38S73.75,296.06,58.93,292.6Z" style="fill:#fff"></path></g><path d="M63.61,267.32a105.84,105.84,0,0,0-5.3,17.54,170.64,170.64,0,0,0-3.08,18.38c-1.44,11.93-1.68,11.27-1.6,23.28,0,3.32.07,6.64.13,10s0,6.88.3,10.29c.11,1.3,2,1,2-.24.12-6-.21-12-.27-18s0,.9.11-5a250.43,250.43,0,0,1,3.23-36c.57-3.31,1.2-6.62,2-9.89.81-3.44,1.8-6.83,2.71-10.24C63.84,267.31,63.69,267.13,63.61,267.32Z" style="fill:#BA68C8"></path><path d="M63.61,267.32a105.84,105.84,0,0,0-5.3,17.54,170.64,170.64,0,0,0-3.08,18.38c-1.44,11.93-1.68,11.27-1.6,23.28,0,3.32.07,6.64.13,10s0,6.88.3,10.29c.11,1.3,2,1,2-.24.12-6-.21-12-.27-18s0,.9.11-5a250.43,250.43,0,0,1,3.23-36c.57-3.31,1.2-6.62,2-9.89.81-3.44,1.8-6.83,2.71-10.24C63.84,267.31,63.69,267.13,63.61,267.32Z" style="opacity:0.30000000000000004"></path><path d="M40.46,319c-1,5.17-8.1,8.89-16.27,5.51s-24.3-24.63-16.94-27c-.4-3.86,21.87-7,32.89,6.55C48.15,314,40.46,319,40.46,319Z" style="fill:#BA68C8"></path><g style="opacity:0.15"><path d="M40.46,319c-1,5.17-8.1,8.89-16.27,5.51s-24.3-24.63-16.94-27c-.4-3.86,21.87-7,32.89,6.55C48.15,314,40.46,319,40.46,319Z" style="fill:#fff"></path></g><path d="M52.15,326.66A38.22,38.22,0,0,0,48.83,323a99.6,99.6,0,0,0-7.51-6.71,101,101,0,0,0-17.24-11.09,89.41,89.41,0,0,0-10.41-4.74c-.1,0-.06.16,0,.19,3,1.4,6,2.77,8.83,4.37s5.86,3.52,8.65,5.47A125.41,125.41,0,0,1,46.38,323c1.34,1.29,2.62,2.65,4,3.93s2.93,2.54,4.28,3.93c.19.21.54.12.33-.18C54,329.33,53.15,328,52.15,326.66Z" style="fill:#BA68C8"></path><path d="M52.15,326.66A38.22,38.22,0,0,0,48.83,323a99.6,99.6,0,0,0-7.51-6.71,101,101,0,0,0-17.24-11.09,89.41,89.41,0,0,0-10.41-4.74c-.1,0-.06.16,0,.19,3,1.4,6,2.77,8.83,4.37s5.86,3.52,8.65,5.47A125.41,125.41,0,0,1,46.38,323c1.34,1.29,2.62,2.65,4,3.93s2.93,2.54,4.28,3.93c.19.21.54.12.33-.18C54,329.33,53.15,328,52.15,326.66Z" style="opacity:0.30000000000000004"></path><path d="M60.65,328.36c-4.28-1.88-3.46-7.31,3.41-12.83s21.52-5.67,21.66-2.76c3.13.6,1.24,10.42-7.44,18.1S59.9,334.5,60.65,328.36Z" style="fill:#BA68C8"></path><path d="M71.28,320.45a36.13,36.13,0,0,0-16.19,14.23c-.22.36.33,1.05.57.66a42,42,0,0,1,15.62-14.79S71.34,320.43,71.28,320.45Z" style="fill:#BA68C8"></path><path d="M71.28,320.45a36.13,36.13,0,0,0-16.19,14.23c-.22.36.33,1.05.57.66a42,42,0,0,1,15.62-14.79S71.34,320.43,71.28,320.45Z" style="opacity:0.30000000000000004"></path><path d="M61.53,337.8c-5,4.88.52,10.92,8.57,13.91s17,1,20.84-1,4.68-2.91,4.68-2.91-1.9-6.4-4.11-9.85a20.63,20.63,0,0,0-20.3-9.33C60.9,330,60.06,334.26,61.53,337.8Z" style="fill:#BA68C8"></path><g style="opacity:0.25"><path d="M61.53,337.8c-5,4.88.52,10.92,8.57,13.91s17,1,20.84-1,4.68-2.91,4.68-2.91-1.9-6.4-4.11-9.85a20.63,20.63,0,0,0-20.3-9.33C60.9,330,60.06,334.26,61.53,337.8Z" style="fill:#fff"></path></g><path d="M82.36,341.47a52,52,0,0,0-12.61-4.68c-4.32-.83-9.63-.86-13.13,2.21-1.35,1.19-3.15,3.78-2,5.61.11.18.65.52.77.15a18.17,18.17,0,0,1,1.11-3.39,6.92,6.92,0,0,1,2.7-2.53,16,16,0,0,1,9.15-1.56c4.91.48,9.53,2.45,14,4.3C82.4,341.6,82.4,341.48,82.36,341.47Z" style="fill:#BA68C8"></path><path d="M82.36,341.47a52,52,0,0,0-12.61-4.68c-4.32-.83-9.63-.86-13.13,2.21-1.35,1.19-3.15,3.78-2,5.61.11.18.65.52.77.15a18.17,18.17,0,0,1,1.11-3.39,6.92,6.92,0,0,1,2.7-2.53,16,16,0,0,1,9.15-1.56c4.91.48,9.53,2.45,14,4.3C82.4,341.6,82.4,341.48,82.36,341.47Z" style="opacity:0.30000000000000004"></path><path d="M62.89,307.08c-1.24,4.37,4.33,8.44,11.25,6.1s14.12-4.49,20-4.56,9.64-4,8.43-6.58-2.65-8.84-17.69-10.61-21.82,3.53-25,7.68S60.39,307.81,62.89,307.08Z" style="fill:#BA68C8"></path><g style="opacity:0.25"><path d="M62.89,307.08c-1.24,4.37,4.33,8.44,11.25,6.1s14.12-4.49,20-4.56,9.64-4,8.43-6.58-2.65-8.84-17.69-10.61-21.82,3.53-25,7.68S60.39,307.81,62.89,307.08Z" style="fill:#fff"></path></g><path d="M90.83,297.92a18.78,18.78,0,0,0-4.85-.45,30.7,30.7,0,0,0-4.69.39,36.49,36.49,0,0,0-8.83,2.75c-5.29,2.34-10.53,5.4-14,10.16a33.55,33.55,0,0,0-4.42,8.29c-.2.56.88.88,1.13.37A61.68,61.68,0,0,1,59,312.22a22.37,22.37,0,0,1,5.76-6,45.89,45.89,0,0,1,16-7.3,32.55,32.55,0,0,1,5.09-.75,45.76,45.76,0,0,1,5.11.2C91.1,298.38,91,298,90.83,297.92Z" style="fill:#BA68C8"></path><path d="M90.83,297.92a18.78,18.78,0,0,0-4.85-.45,30.7,30.7,0,0,0-4.69.39,36.49,36.49,0,0,0-8.83,2.75c-5.29,2.34-10.53,5.4-14,10.16a33.55,33.55,0,0,0-4.42,8.29c-.2.56.88.88,1.13.37A61.68,61.68,0,0,1,59,312.22a22.37,22.37,0,0,1,5.76-6,45.89,45.89,0,0,1,16-7.3,32.55,32.55,0,0,1,5.09-.75,45.76,45.76,0,0,1,5.11.2C91.1,298.38,91,298,90.83,297.92Z" style="opacity:0.30000000000000004"></path><path d="M50.56,331.67c-1.17-4.49-6.86-7-14.29-7.56a19.43,19.43,0,0,0-18.48,9.48c-3.89,6.65-5.5,11.94-3.14,12.81s12.35,2.25,18.79,2.82,14.49-.58,19.75-5.48S56.71,332.7,50.56,331.67Z" style="fill:#BA68C8"></path><path d="M50.84,331.07a19.52,19.52,0,0,0-8-.37,35.64,35.64,0,0,0-7.58,1.74,49,49,0,0,0-7.5,3.38c-1.26.69-2.5,1.42-3.71,2.19a28,28,0,0,0-3.32,2.3s0,.18,0,.15c1.22-.54,2.36-1.32,3.53-2s2.52-1.4,3.81-2.05a54,54,0,0,1,7.43-3.16,35.48,35.48,0,0,1,7.88-1.68,47.22,47.22,0,0,1,7.52.19C51.44,331.82,51.15,331.17,50.84,331.07Z" style="fill:#BA68C8"></path><path d="M50.84,331.07a19.52,19.52,0,0,0-8-.37,35.64,35.64,0,0,0-7.58,1.74,49,49,0,0,0-7.5,3.38c-1.26.69-2.5,1.42-3.71,2.19a28,28,0,0,0-3.32,2.3s0,.18,0,.15c1.22-.54,2.36-1.32,3.53-2s2.52-1.4,3.81-2.05a54,54,0,0,1,7.43-3.16,35.48,35.48,0,0,1,7.88-1.68,47.22,47.22,0,0,1,7.52.19C51.44,331.82,51.15,331.17,50.84,331.07Z" style="opacity:0.30000000000000004"></path></g></g><g id="freepik--Hanger--inject-116"><g id="freepik--hanger--inject-116"><g id="freepik--hanger--inject-116"><path d="M96.9,50.29l2.53,1.46h0a1,1,0,0,1,.39.89V65.05a3,3,0,0,1-1.35,2.33L48,96.5a1,1,0,0,1-1,.12h0l-2.53-1.46h0a1,1,0,0,1-.38-.9V81.85a3,3,0,0,1,1.34-2.33L95.94,50.4a1,1,0,0,1,1-.11Z" style="fill:#37474f"></path><path d="M46.69,95.72V83.32A3,3,0,0,1,48,81L98.47,51.86c.74-.43,1.35-.08,1.35.78V65.05a3,3,0,0,1-1.35,2.33L48,96.5C47.29,96.93,46.69,96.58,46.69,95.72Z" style="fill:#455a64"></path><path d="M47.08,82l-2.53-1.46a2.65,2.65,0,0,0-.39,1.32V94.26a1,1,0,0,0,.39.89h0l2.53,1.46h0a.63.63,0,0,0,.34.07c-.43,0-.73-.36-.73-1V83.31A2.58,2.58,0,0,1,47.08,82Z" style="fill:#263238"></path><path d="M55.34,88.39a1.61,1.61,0,0,0,.79-.21,1.57,1.57,0,0,0,.79-1.38V85.53a.63.63,0,0,0-1.25,0V86.8a.31.31,0,0,1-.16.29.33.33,0,0,1-.34,0L51.53,85a.62.62,0,0,0-.62,1.08l3.64,2.11A1.58,1.58,0,0,0,55.34,88.39Z" style="fill:#263238"></path><path d="M65.5,82.53a1.52,1.52,0,0,0,.79-.22,1.55,1.55,0,0,0,.79-1.37V79.67a.63.63,0,1,0-1.25,0v1.27a.34.34,0,0,1-.17.29.31.31,0,0,1-.33,0l-3.64-2.1a.63.63,0,0,0-.63,1.08l3.64,2.1A1.56,1.56,0,0,0,65.5,82.53Z" style="fill:#263238"></path><path d="M75.66,76.66a1.61,1.61,0,0,0,.79-.21,1.59,1.59,0,0,0,.79-1.38V73.8a.63.63,0,0,0-1.25,0v1.27a.34.34,0,0,1-.5.29l-3.64-2.1a.62.62,0,0,0-.85.23.63.63,0,0,0,.22.86l3.64,2.1A1.62,1.62,0,0,0,75.66,76.66Z" style="fill:#263238"></path><path d="M85.81,70.8a1.53,1.53,0,0,0,.8-.22,1.57,1.57,0,0,0,.79-1.37V67.94a.63.63,0,1,0-1.25,0v1.27a.34.34,0,0,1-.17.29.31.31,0,0,1-.33,0L82,67.4a.63.63,0,1,0-.63,1.08L85,70.58A1.52,1.52,0,0,0,85.81,70.8Z" style="fill:#263238"></path><path d="M96,64.93a1.65,1.65,0,0,0,.8-.21,1.59,1.59,0,0,0,.79-1.38V62.08a.63.63,0,1,0-1.25,0v1.26a.34.34,0,0,1-.17.3.39.39,0,0,1-.34,0l-3.63-2.1a.62.62,0,0,0-.86.22.63.63,0,0,0,.23.86l3.64,2.1A1.61,1.61,0,0,0,96,64.93Z" style="fill:#263238"></path></g><path d="M95.37,88.57a.34.34,0,0,0-.34.34V119a.34.34,0,1,0,.67,0V88.91A.34.34,0,0,0,95.37,88.57Z" style="fill:#455a64"></path><path d="M96.15,88.62a.34.34,0,0,0-.34.34c0,10.65,1.46,13.85,2.74,16.67a16.9,16.9,0,0,1,1.58,4.86c.46,2.83.08,5.05-1.1,6.44a4.75,4.75,0,0,1-3.65,1.59.34.34,0,1,0,0,.67,5.4,5.4,0,0,0,4.16-1.83c1.33-1.56,1.75-3.9,1.26-7a17.62,17.62,0,0,0-1.64-5c-1.25-2.76-2.67-5.89-2.67-16.39A.34.34,0,0,0,96.15,88.62Z" style="fill:#455a64"></path><path d="M96.15,89.48a.34.34,0,0,0-.33.34,95.13,95.13,0,0,0,1.39,18.52c.09.53.18,1,.26,1.57.58,3.57-.15,6.32-1.13,7.47a1.4,1.4,0,0,1-1,.56.34.34,0,1,0,0,.68,2,2,0,0,0,1.48-.81c1-1.17,1.93-4,1.28-8-.08-.53-.17-1-.27-1.59a94.75,94.75,0,0,1-1.38-18.4A.34.34,0,0,0,96.15,89.48Z" style="fill:#455a64"></path><path d="M96.18,91.86a.35.35,0,0,0-.34.34c0,5.66,2,9,3.7,12,1.43,2.47,2.66,4.6,2.66,7.59,0,3.73-2,6.16-5.37,6.49a.34.34,0,0,0-.3.37.33.33,0,0,0,.37.3c3.74-.37,6-3,6-7.16,0-3.17-1.34-5.48-2.76-7.93-1.69-2.91-3.6-6.22-3.6-11.7A.34.34,0,0,0,96.18,91.86Z" style="fill:#455a64"></path><path d="M94.59,88.62a.34.34,0,0,0-.34.34c0,10.5-1.42,13.63-2.67,16.39a18,18,0,0,0-1.63,5c-.5,3.07-.07,5.42,1.26,7a5.43,5.43,0,0,0,4.17,1.82.34.34,0,0,0,0-.67,4.77,4.77,0,0,1-3.66-1.59c-1.18-1.38-1.56-3.61-1.1-6.43a16.87,16.87,0,0,1,1.58-4.87c1.28-2.82,2.73-6,2.73-16.67A.34.34,0,0,0,94.59,88.62Z" style="fill:#455a64"></path><path d="M94.58,89.48a.34.34,0,0,0-.33.34,95,95,0,0,1-1.38,18.41c-.09.54-.18,1.06-.26,1.58-.65,4,.29,6.84,1.29,8a2,2,0,0,0,1.48.8.34.34,0,0,0,0-.68,1.39,1.39,0,0,1-1-.56c-1-1.15-1.71-3.9-1.14-7.46.09-.52.18-1,.27-1.58.62-3.62,1.38-8.13,1.38-18.52A.34.34,0,0,0,94.58,89.48Z" style="fill:#455a64"></path><path d="M94.56,91.87a.34.34,0,0,0-.34.33c0,5.48-1.91,8.79-3.59,11.7-1.42,2.45-2.76,4.76-2.76,7.93,0,4.11,2.24,6.79,6,7.16a.33.33,0,0,0,.37-.3.34.34,0,0,0-.3-.37c-3.36-.33-5.37-2.76-5.37-6.49,0-3,1.23-5.12,2.66-7.59,1.73-3,3.69-6.38,3.69-12A.34.34,0,0,0,94.56,91.87Z" style="fill:#455a64"></path><path d="M91.8,65.59a3.57,3.57,0,0,1,7.13,0c0,4.08-1.13,17.49-1.13,23.32h0a1.21,1.21,0,0,1-.71,1,3.79,3.79,0,0,1-3.44,0,1.19,1.19,0,0,1-.71-1h0C92.94,83.08,91.8,69.67,91.8,65.59Z" style="fill:#BA68C8"></path><path d="M79.69,114.76c0-.52-.34-.76-.69-.55l-3.43,2V77.42l-1.14.66v38.77l-3.42,2a1.81,1.81,0,0,0-.7,1.36L68.94,139.9c0,.66.28,1,.69.79l10.74-6.2a1.83,1.83,0,0,0,.69-1.59Zm-7.84,9.29-.65,11a4.61,4.61,0,0,1-.53,2.3c-.23.13-.36-.69-.29-1.83l.65-11a4.39,4.39,0,0,1,.53-2.3C71.78,122.09,71.91,122.91,71.85,124.05Zm1.78-1-.32,10.84a4.42,4.42,0,0,1-.47,2.28c-.23.13-.39-.68-.35-1.8l.32-10.84a4.24,4.24,0,0,1,.47-2.28C73.51,121.09,73.66,121.9,73.63,123Zm1.78,9.62a4,4,0,0,1-.41,2.24c-.22.14-.41-.66-.41-1.76V122.47a4.08,4.08,0,0,1,.41-2.24c.23-.13.41.66.41,1.77Zm1.76,1c-.23.13-.44-.64-.47-1.73l-.32-10.46a3.8,3.8,0,0,1,.34-2.2c.23-.13.44.64.47,1.73l.33,10.46A3.77,3.77,0,0,1,77.17,133.63Zm2.17-1.25c-.23.13-.47-.62-.53-1.69l-.65-10.29c-.07-1.06.06-2,.29-2.16s.46.63.53,1.69l.64,10.29A3.61,3.61,0,0,1,79.34,132.38Z" style="fill:#455a64"></path><path d="M73.64,93.36c0,1.25,2.72-.33,2.72-1.57v-16c0-1.16-.61-1.75-1.36-1.31h0a3.58,3.58,0,0,0-1.36,2.88Z" style="fill:#BA68C8"></path><path d="M60.19,135.47l-.37-5c-.28-3.61-2.23-5.38-4.64-4.35V89L54,89.66v37.21c-2.34,1.81-4.22,5.73-4.49,9.57l-.37,5.39c-.35,4.91,2,7.65,5.13,5.87l.75-.43C58.14,145.49,60.54,140,60.19,135.47Z" style="fill:#455a64"></path><path d="M53.25,104.94c0,1.25,2.72-.32,2.72-1.57v-16c0-1.16-.61-1.74-1.36-1.31h0a3.58,3.58,0,0,0-1.36,2.88Z" style="fill:#BA68C8"></path><path d="M54.55,88.18a1.58,1.58,0,0,0,.79.21,1.61,1.61,0,0,0,.79-.21,1.57,1.57,0,0,0,.79-1.38V85.53a.63.63,0,0,0-1.25,0V86.8a.31.31,0,0,1-.16.29.33.33,0,0,1-.34,0C54.93,87,54.27,87.55,54.55,88.18Z" style="fill:#263238"></path><path d="M74.86,76.45a1.61,1.61,0,0,0,1.59,0,1.59,1.59,0,0,0,.79-1.38V73.81a.63.63,0,1,0-1.25,0v1.26a.34.34,0,0,1-.17.3.36.36,0,0,1-.33,0C75.24,75.25,74.59,75.82,74.86,76.45Z" style="fill:#263238"></path><path d="M95.18,64.72a1.61,1.61,0,0,0,.79.21,1.65,1.65,0,0,0,.8-.21,1.58,1.58,0,0,0,.79-1.37V62.08a.63.63,0,1,0-1.25,0v1.27a.34.34,0,0,1-.17.29.38.38,0,0,1-.34,0C95.56,63.52,94.9,64.09,95.18,64.72Z" style="fill:#263238"></path></g></g><g id="freepik--Table--inject-116"><g id="freepik--table--inject-116"><g id="freepik--table--inject-116"><path d="M351.76,284.94l3.43,166.83h0a1.13,1.13,0,0,0,.69,1.11,3.83,3.83,0,0,0,3.43,0,1.13,1.13,0,0,0,.69-1.11h0l3.43-166.83Z" style="fill:#37474f"></path><path d="M286.52,284.94,274,418.56h0a1.13,1.13,0,0,0,.69,1.11,3.83,3.83,0,0,0,3.43,0,1.13,1.13,0,0,0,.69-1.11h0l17.5-133.62Z" style="fill:#37474f"></path><path d="M418.87,284.94l17.51,133.61h0a1.12,1.12,0,0,0,.69,1.11,3.77,3.77,0,0,0,3.43,0,1.13,1.13,0,0,0,.69-1.11h0l-12.5-133.61Z" style="fill:#37474f"></path><path d="M353,280.93l1.83,100.63h0a1.3,1.3,0,0,0,.8,1.28,4.38,4.38,0,0,0,4,0,1.3,1.3,0,0,0,.8-1.28h0l1.83-100.63Z" style="fill:#37474f"></path><path d="M292.84,245.74c35.79-20.66,93.83-20.67,129.62,0,17.9,10.33,26.83,26.08,26.83,39.63,0,2.78,0-.15,0,2.63,0,13.54-8.93,27.08-26.83,37.42-35.79,20.66-93.83,20.66-129.62,0C274.94,315.08,266,301.54,266,288v-2.63C266,271.82,274.94,256.07,292.84,245.74Z" style="fill:#BA68C8"></path><path d="M292.84,245.74c35.79-20.66,93.83-20.67,129.62,0,17.9,10.33,26.83,26.08,26.83,39.63,0,2.78,0-.15,0,2.63,0,13.54-8.93,27.08-26.83,37.42-35.79,20.66-93.83,20.66-129.62,0C274.94,315.08,266,301.54,266,288v-2.63C266,271.82,274.94,256.07,292.84,245.74Z" style="opacity:0.2"></path><path d="M292.76,241.87c35.79-20.66,93.83-20.66,129.62,0,18.14,10.47,27.07,24.24,26.82,38v3.64c.23,13.59-8.71,29.5-26.82,40-35.79,20.66-93.83,20.66-129.62,0-17.9-10.33-26.83-25-26.82-38.51v-5.63C265.93,265.75,274.86,252.2,292.76,241.87Z" style="fill:#BA68C8"></path><path d="M292.76,241.87c35.79-20.66,93.83-20.66,129.62,0,18.14,10.47,27.07,24.24,26.82,38v3.64c.23,13.59-8.71,29.5-26.82,40-35.79,20.66-93.83,20.66-129.62,0-17.9-10.33-26.83-25-26.82-38.51v-5.63C265.93,265.75,274.86,252.2,292.76,241.87Z" style="fill:#fff;opacity:0.4"></path><ellipse cx="357.57" cy="279.29" rx="91.68" ry="52.9" style="fill:#BA68C8"></ellipse><path d="M423.7,316c33-19.79,33-53.59,0-73.38-36.09-21.64-96-21.64-132.1,0-33,19.79-33,53.59,0,73.38C327.69,337.62,387.61,337.62,423.7,316Z" style="fill:#fff;opacity:0.85"></path></g></g><path id="freepik--shadow--inject-116" d="M312.54,291.11c-10,0-19.47-2.28-26.63-6.42-7.73-4.46-12-10.6-12-17.26s4.26-12.8,12-17.26c7.16-4.14,16.62-6.42,26.63-6.42S332,246,339.17,250.17c7.73,4.46,12,10.59,12,17.26s-4.26,12.8-12,17.26C332,288.83,322.54,291.11,312.54,291.11Z" style="opacity:0.1"></path><path id="freepik--shadow--inject-116" d="M390.39,272.58a22.47,22.47,0,0,1-11-2.66c-3.2-1.85-5-4.39-5-7.15s1.76-5.3,5-7.15a24.28,24.28,0,0,1,22.06,0c3.2,1.85,5,4.39,5,7.15s-1.76,5.3-5,7.15A22.47,22.47,0,0,1,390.39,272.58Z" style="opacity:0.1"></path><path id="freepik--shadow--inject-116" d="M423.82,274.62a16.77,16.77,0,0,1-8.22-2c-2.39-1.38-3.7-3.27-3.7-5.33s1.31-4,3.7-5.33A18.05,18.05,0,0,1,432,262c2.39,1.37,3.7,3.27,3.7,5.33s-1.31,3.95-3.7,5.33A16.77,16.77,0,0,1,423.82,274.62Z" style="opacity:0.1"></path><path id="freepik--shadow--inject-116" d="M374.4,323.48c-10,0-19.48-2.29-26.65-6.43-7.74-4.46-12-10.6-12-17.27s4.26-12.81,12-17.28c7.17-4.14,16.64-6.42,26.65-6.42s19.48,2.28,26.65,6.42c7.74,4.47,12,10.61,12,17.28s-4.26,12.81-12,17.27C393.88,321.19,384.41,323.48,374.4,323.48Z" style="opacity:0.1"></path><g id="freepik--Plate--inject-116"><g id="freepik--plate--inject-116"><path d="M399.42,283.5c-13.82-8-36.22-8-50,0h0v-1.44c-7.22,4.17-10.66,9.7-10.33,15.16-.33,5.47,3.11,11,10.33,15.16,13.82,8,36.22,8,50,0S413.23,291.48,399.42,283.5Z" style="fill:#BA68C8"></path><path d="M399.42,283.5c-13.82-8-36.22-8-50,0h0v-1.44c-7.22,4.17-10.66,9.7-10.33,15.16-.33,5.47,3.11,11,10.33,15.16,13.82,8,36.22,8,50,0S413.23,291.48,399.42,283.5Z" style="fill:#fff;opacity:0.30000000000000004"></path><path d="M399.42,282.06c13.81,8,13.81,20.91,0,28.89s-36.21,8-50,0-13.81-20.91,0-28.89S385.6,274.09,399.42,282.06Z" style="fill:#fafafa"></path><path d="M357.44,289.07c-9.5,5.48-9.5,14.36,0,19.85s24.88,5.48,34.38,0,9.49-14.37,0-19.85S366.93,283.58,357.44,289.07Z" style="fill:#BA68C8"></path><path d="M357.44,289.07c-9.5,5.48-9.5,14.36,0,19.85s24.88,5.48,34.38,0,9.49-14.37,0-19.85S366.93,283.58,357.44,289.07Z" style="fill:#fff;opacity:0.5"></path><path d="M358.61,289.74c-8.85,5.11-8.85,13.39,0,18.5s23.19,5.11,32,0,8.85-13.39,0-18.5S367.46,284.63,358.61,289.74Z" style="fill:#fafafa"></path></g><g id="freepik--Croissant--inject-116"><path id="freepik--shadow--inject-116" d="M395,305.21c3.09-.84,6.48-6.29,2.94-14.2-3.3-7.4-15.09-11.39-25.26-10.72a22.33,22.33,0,0,0-14.08,3.37h0c-.53.32-1.05.65-1.54,1l-.26.19c-.48.33-.94.68-1.38,1h0a17.65,17.65,0,0,0-2.26,2.18,12.41,12.41,0,0,0-1,1.32,6.19,6.19,0,0,0-1.23,3.88h0l.05-.07c-.05.1-.08.21-.13.31s-.24.5-.34.75-.26.65-.36,1-.13.54-.19.82-.15.66-.19,1,0,.59,0,.9,0,.65,0,1,.09.8.14,1.2a13.5,13.5,0,0,0,.28,1.38c.11.41.21.82.35,1.23s.23.55.35.82.31.75.5,1.12.32.54.48.81.43.72.68,1.07.39.52.59.78.56.68.86,1l.7.72c.34.33.69.65,1.06,1s.52.44.79.65.84.6,1.28.89c.28.19.55.38.85.56.51.3,1,.57,1.6.84.27.13.52.28.81.41a27.94,27.94,0,0,0,2.67,1h0c14.25,4.52,22-3.39,19.13-5.89l0,0c-.14-.12-.3-.23-.47-.35s-.34-.22-.53-.33h0c-3.14-1.82-9.36-3.47-8.14-8.09a2.36,2.36,0,0,0,.62-.06,11.77,11.77,0,0,0,3.56-1.7,16.81,16.81,0,0,0,2.53-2,2.5,2.5,0,0,0,.28-.38,10.57,10.57,0,0,1,2.15-.07,7.55,7.55,0,0,1,2.28.55,7.68,7.68,0,0,1,.95.48c2.4,1.45,3.68,4.09,5,6.15a9.9,9.9,0,0,0,1.54,2,2.36,2.36,0,0,0,.67.42l.2.06a2.38,2.38,0,0,0,.59.12h.19a2.82,2.82,0,0,0,.69-.08Z" style="opacity:0.1"></path><g id="freepik--croissant--inject-116"><path d="M380,293.81c-7-.5-22.9-8.45-18.32-12.12,10-6.76,31.67-3.06,36.34,7.4,4.58,10.24-2.45,16.39-5.4,13.71S388.55,292.32,380,293.81Z" style="fill:#BA68C8"></path><path d="M380,293.81c-7-.5-22.9-8.45-18.32-12.12,10-6.76,31.67-3.06,36.34,7.4,4.58,10.24-2.45,16.39-5.4,13.71S388.55,292.32,380,293.81Z" style="fill:#fff;opacity:0.35000000000000003"></path><path d="M393.56,299c-.41-3.88-4-10.05-13.17-10-4,0-4.83,1.9-4.45,4a19.88,19.88,0,0,0,4.1.82c8.51-1.49,9.65,6.28,12.62,9a2.76,2.76,0,0,0,3.3.15C394.66,303.37,393.84,301.68,393.56,299Z" style="fill:#BA68C8;opacity:0.30000000000000004"></path><path d="M374.21,296.64c.31-4-9-12.89-16.08-10.92-13.31,4.53-10.12,21.78,5.69,26.79,14.25,4.52,22-3.39,19.13-5.89C380.29,304.31,371.19,302.84,374.21,296.64Z" style="fill:#BA68C8"></path><path d="M374.21,296.64c.31-4-9-12.89-16.08-10.92-13.31,4.53-10.12,21.78,5.69,26.79,14.25,4.52,22-3.39,19.13-5.89C380.29,304.31,371.19,302.84,374.21,296.64Z" style="fill:#fff;opacity:0.5"></path><path d="M382.94,306.62a6.35,6.35,0,0,0-1-.7c1.08.64.71,2.48-2.36,3.9s-12.58,1.25-19.05-3.53S354,291.06,357,288l-2.65-.35c-8.68,6.25-4.62,20.41,9.46,24.87C378.07,317,385.81,309.12,382.94,306.62Z" style="fill:#BA68C8;opacity:0.25"></path><path d="M374.21,296.64a14.36,14.36,0,0,0-12.9-9c-7.53-.35-10.25,3.67-10.25,3.67s-.5-3.34,4.47-7.38,12.57-7.2,20-5,6.75,13.44,5,15.18-5.27,3.83-6.72,3.72A1.91,1.91,0,0,1,374.21,296.64Z" style="fill:#BA68C8"></path><path d="M374.21,296.64a14.36,14.36,0,0,0-12.9-9c-7.53-.35-10.25,3.67-10.25,3.67s-.5-3.34,4.47-7.38,12.57-7.2,20-5,6.75,13.44,5,15.18-5.27,3.83-6.72,3.72A1.91,1.91,0,0,1,374.21,296.64Z" style="fill:#fff;opacity:0.5"></path><path d="M374.21,296.64a1.91,1.91,0,0,0-.45,1.19c1.45.11,4.94-2,6.72-3.72.73-.72,1.27-3.1,1.12-5.77a5.41,5.41,0,0,1-1.81,4.11c-1.14.8-3.76,2.41-6.14-.84-2.51-3.43-7.47-5.92-12.44-6.46s-4.6-1.42-2.49-3.41a28.52,28.52,0,0,0-3.19,2.22c-5,4-4.47,7.38-4.47,7.38s2.72-4,10.25-3.67A14.36,14.36,0,0,1,374.21,296.64Z" style="fill:#BA68C8;opacity:0.25"></path></g></g></g><g id="freepik--plate--inject-116"><g id="freepik--plate--inject-116"><path d="M337.53,251.16c-13.8-8-36.18-8-50,0h0v-1.43c-7.22,4.16-10.65,9.69-10.32,15.15-.33,5.46,3.1,11,10.32,15.14,13.81,8,36.19,8,50,0S351.34,259.13,337.53,251.16Z" style="fill:#BA68C8"></path><path d="M337.53,251.16c-13.8-8-36.18-8-50,0h0v-1.43c-7.22,4.16-10.65,9.69-10.32,15.15-.33,5.46,3.1,11,10.32,15.14,13.81,8,36.19,8,50,0S351.34,259.13,337.53,251.16Z" style="fill:#fff;opacity:0.30000000000000004"></path><path d="M337.53,249.73c13.81,8,13.81,20.89,0,28.86s-36.18,8-50,0-13.8-20.89,0-28.86S323.73,241.76,337.53,249.73Z" style="fill:#fafafa"></path><path d="M295.59,256.72c-9.49,5.48-9.49,14.36,0,19.84s24.87,5.47,34.35,0,9.49-14.36,0-19.84S305.08,251.25,295.59,256.72Z" style="fill:#BA68C8"></path><path d="M295.59,256.72c-9.49,5.48-9.49,14.36,0,19.84s24.87,5.47,34.35,0,9.49-14.36,0-19.84S305.08,251.25,295.59,256.72Z" style="fill:#fff;opacity:0.5"></path><path d="M296.76,257.4c-8.84,5.1-8.84,13.38,0,18.48s23.17,5.11,32,0,8.85-13.38,0-18.48S305.6,252.29,296.76,257.4Z" style="fill:#fafafa"></path></g><g id="freepik--Sausages--inject-116"><g id="freepik--Sausage--inject-116"><path d="M287.65,246.78c-2.73,2.62-1.83,8.15,3.44,14.56,5.13,6.24,13.25,10.75,20.5,13.41,8.38,3.08,18.15,3.05,18.37-2.69Z" style="fill:#9a4a4d"></path><path d="M287.29,251.22c3.57,7.74,10.33,12.8,17.6,17.23a45,45,0,0,0,12.32,5.36,32.08,32.08,0,0,0,7.1.94c1.64,0,5-.31,5.58-2.31s-2.77-3.32-4.2-4a141.68,141.68,0,0,1-26.89-16.89c-1.87-1.49-3.95-3.6-6-5C289.4,244.19,285.34,247,287.29,251.22Z" style="fill:#b16668"></path><path d="M297.09,251s0-.06-.1-.14h0a.78.78,0,0,0-.22-.12l-.05,0a.9.9,0,0,0-.16,0h-.25l-1.09,0-2.58.09-2.05.1-1.19.07-.41.05c-.13,0-.35,0-.46,0q.19.84.81.84l.26,0H291l2,0,1.73,0a12,12,0,0,1,1.8,0,.63.63,0,0,0,.68-.53A.41.41,0,0,0,297.09,251Z" style="fill:#9a4a4d"></path><path d="M300.72,254.77s0,0,0,0a1,1,0,0,0-.18-.1l-.09,0-.14,0H300l-1,0c-.78,0-1.55.08-2.33.14s-1.44.13-2.16.22c-.45.05-.9.1-1.34.18l-.55.1c-.13,0-.34,0-.45.07.09.47.27.71.6.73a.58.58,0,0,0,.4.12h.45l.83,0c.6,0,1.21,0,1.81-.07s1.19-.09,1.78-.14,1.22-.11,1.81-.12a1.11,1.11,0,0,0,.88-.54.4.4,0,0,0,0-.34A.43.43,0,0,0,300.72,254.77Z" style="fill:#9a4a4d"></path><path d="M304.8,258.29s0,0-.06-.05a.48.48,0,0,0-.16-.08l-.12,0-.12,0h-.24l-.81,0c-.7.05-1.4.1-2.09.19s-1.51.21-2.26.34c-.51.09-1,.17-1.51.28l-.68.17a1.63,1.63,0,0,0-.44.08c0,.39.14.58.38.62a.57.57,0,0,0,.54.23l.42,0,.77,0c.54,0,1.09-.06,1.63-.11s1.23-.15,1.84-.23,1.22-.17,1.8-.21a2,2,0,0,0,1.09-.54.45.45,0,0,0,.14-.43A.38.38,0,0,0,304.8,258.29Z" style="fill:#9a4a4d"></path><path d="M309.21,261.46l-.08-.06-.12-.06-.16,0-.11,0h-.22l-.67.05c-.62.06-1.24.12-1.86.22-.79.13-1.58.3-2.36.47-.55.12-1.11.24-1.66.39l-.81.23a2,2,0,0,0-.44.1c0,.3,0,.45.17.51a.62.62,0,0,0,.67.33l.39,0,.7-.07c.49-.05,1-.08,1.46-.15.64-.08,1.27-.21,1.9-.32s1.21-.22,1.8-.3a4.12,4.12,0,0,0,1.28-.54.46.46,0,0,0,.25-.51A.38.38,0,0,0,309.21,261.46Z" style="fill:#9a4a4d"></path><path d="M314,264.31a.49.49,0,0,0-.11-.08.2.2,0,0,0-.08,0,.65.65,0,0,0-.2-.05l-.09,0h-.21l-.53.06c-.54.07-1.08.16-1.62.26-.83.17-1.64.39-2.46.6-.61.15-1.22.31-1.82.48l-.95.3a3,3,0,0,0-.43.12c0,.22-.12.33,0,.4.23.37.5.51.81.44l.35,0,.64-.09,1.29-.19c.65-.11,1.3-.28,1.95-.42l1.8-.38a9.89,9.89,0,0,0,1.48-.55.53.53,0,0,0,.36-.59A.48.48,0,0,0,314,264.31Z" style="fill:#9a4a4d"></path><path d="M319.13,266.86a.42.42,0,0,0-.13-.1l-.05,0a1,1,0,0,0-.23-.06l-.08,0-.15,0h-.05l-.39.06c-.47.09-.92.2-1.38.31-.86.21-1.71.47-2.57.72-.66.19-1.32.38-2,.59l-1.09.36a4.13,4.13,0,0,0-.42.14c-.09.13-.25.19-.26.29.27.45.59.64,1,.54l.31-.05.58-.12,1.11-.22c.68-.15,1.34-.34,2-.51l1.8-.46c.56-.15,1.15-.44,1.68-.56a.6.6,0,0,0,.46-.67A.45.45,0,0,0,319.13,266.86Z" style="fill:#9a4a4d"></path><path d="M324.57,269.11a.45.45,0,0,0-.15-.11h0a1.1,1.1,0,0,0-.26-.06h-.06l-.18,0h0a2.44,2.44,0,0,0-.26.06l-1.13.35-2.67.85c-.71.23-1.43.45-2.13.69l-1.23.42-.41.17c-.13,0-.38.06-.47.17.3.55.66.77,1.09.65l.28-.06.51-.14.94-.26c.69-.19,1.38-.41,2.07-.61l1.8-.54a14,14,0,0,1,1.88-.57.66.66,0,0,0,.56-.75A.49.49,0,0,0,324.57,269.11Z" style="fill:#9a4a4d"></path></g><g id="freepik--sausage--inject-116"><path d="M274.93,252.63c-2.73,2.62-1.82,8.16,3.44,14.56s13.25,10.76,20.51,13.42c8.37,3.07,18.14,3.05,18.36-2.69Z" style="fill:#9a4a4d"></path><path d="M274.57,257.08c3.57,7.74,10.33,12.8,17.61,17.22a44.54,44.54,0,0,0,12.31,5.37,32.16,32.16,0,0,0,7.1.94c1.64,0,5-.31,5.59-2.31s-2.78-3.33-4.21-4a142.19,142.19,0,0,1-26.89-16.89c-1.87-1.49-3.95-3.6-6-5C276.68,250.05,272.62,252.84,274.57,257.08Z" style="fill:#b16668"></path><path d="M284.38,256.89a.59.59,0,0,0-.11-.14h0a.78.78,0,0,0-.22-.12l0,0-.17,0h-.25l-1.09,0-2.58.09c-.68,0-1.37.05-2,.1l-1.19.07-.4,0c-.13,0-.36,0-.47.05q.21.84.81.84h1.65l2,0,1.73,0a13.53,13.53,0,0,1,1.8-.05.62.62,0,0,0,.69-.53A.56.56,0,0,0,284.38,256.89Z" style="fill:#9a4a4d"></path><path d="M288,260.63l0,0a.69.69,0,0,0-.19-.1s0,0-.08,0a.8.8,0,0,0-.15,0h-.24l-.95,0c-.78,0-1.56.07-2.34.14s-1.44.13-2.16.22c-.44.05-.89.1-1.34.17l-.54.11a1.42,1.42,0,0,0-.46.06c.09.48.28.71.6.73a.54.54,0,0,0,.4.13H281l.83,0,1.81-.07c.6,0,1.19-.09,1.79-.14s1.22-.11,1.8-.13a1.08,1.08,0,0,0,.88-.53.37.37,0,0,0,0-.34A.5.5,0,0,0,288,260.63Z" style="fill:#9a4a4d"></path><path d="M292.08,264.14l-.06,0a.44.44,0,0,0-.15-.08l-.12,0-.13,0h-.23l-.82,0c-.7.05-1.4.1-2.09.18s-1.51.22-2.26.35c-.5.08-1,.17-1.5.28L284,265a1.7,1.7,0,0,0-.45.08c.05.39.14.58.39.62a.54.54,0,0,0,.53.23l.42,0,.77-.05c.54,0,1.09-.06,1.63-.11s1.23-.16,1.85-.23,1.21-.18,1.8-.21a2.06,2.06,0,0,0,1.08-.54.41.41,0,0,0,.14-.43A.4.4,0,0,0,292.08,264.14Z" style="fill:#9a4a4d"></path><path d="M296.5,267.32l-.09-.06a.35.35,0,0,0-.12-.07l-.15,0-.11,0h-.22c-.23,0-.45,0-.68.05-.62.05-1.24.12-1.85.22-.8.12-1.58.3-2.37.47-.55.12-1.11.24-1.66.38l-.81.24a1.75,1.75,0,0,0-.44.1c0,.3,0,.45.17.51a.65.65,0,0,0,.68.33l.38,0,.71-.07,1.46-.15c.63-.08,1.26-.22,1.89-.32s1.22-.22,1.81-.3a3.91,3.91,0,0,0,1.28-.55.46.46,0,0,0,.24-.5A.36.36,0,0,0,296.5,267.32Z" style="fill:#9a4a4d"></path><path d="M301.27,270.17s0,0-.1-.08l-.09,0a.67.67,0,0,0-.19-.05l-.09,0h-.21a5,5,0,0,0-.54.06c-.54.07-1.08.15-1.62.26-.82.17-1.64.39-2.46.6-.61.15-1.21.3-1.81.48l-1,.3a3.45,3.45,0,0,0-.43.12c0,.22-.12.32,0,.4.23.37.5.51.81.44l.35,0,.64-.1,1.29-.18c.66-.12,1.3-.28,1.95-.42l1.81-.38a11.67,11.67,0,0,0,1.48-.55.53.53,0,0,0,.35-.59A.48.48,0,0,0,301.27,270.17Z" style="fill:#9a4a4d"></path><path d="M306.41,272.72a.42.42,0,0,0-.13-.1l0,0a.86.86,0,0,0-.23,0l-.07,0-.15,0h0a2.57,2.57,0,0,0-.4.06c-.46.08-.92.19-1.38.31-.86.21-1.71.47-2.56.72-.66.19-1.32.37-2,.58l-1.09.36c-.14.05-.29.09-.42.15s-.25.19-.26.29c.26.45.58.63,1,.54l.31-.05c.2,0,.39-.08.58-.12l1.11-.22c.68-.15,1.34-.35,2-.52l1.81-.46c.56-.14,1.15-.43,1.67-.56a.58.58,0,0,0,.46-.67A.43.43,0,0,0,306.41,272.72Z" style="fill:#9a4a4d"></path><path d="M311.86,275a.61.61,0,0,0-.15-.11h0a.66.66,0,0,0-.27-.06l-.06,0-.18,0h0a1.14,1.14,0,0,0-.25.06l-1.14.35-2.67.85q-1.07.33-2.13.69c-.4.14-.82.27-1.22.42l-.41.16c-.14.05-.39.07-.48.18.3.55.67.76,1.1.65l.27-.06.52-.14.94-.26,2.06-.61,1.8-.54a14,14,0,0,1,1.88-.57.68.68,0,0,0,.57-.75A.56.56,0,0,0,311.86,275Z" style="fill:#9a4a4d"></path></g></g></g><g id="freepik--Glass--inject-116"><g id="freepik--glass--inject-116"><path d="M412.72,233.43l1,28.76h0a3.52,3.52,0,0,0,.3,1.25,6,6,0,0,0,2.67,2.62,16.25,16.25,0,0,0,14.3,0,6,6,0,0,0,2.66-2.63,3.6,3.6,0,0,0,.29-1.09v0a1.71,1.71,0,0,0,0-.32v0l.92-28.55a4.53,4.53,0,0,0,.83-2.38l-1.11,34.83,0,.35c-.11,1.49-1.15,3-3.12,4.11a16.78,16.78,0,0,1-15.18,0c-2.05-1.18-3.1-2.72-3.15-4.27V266l-1.26-34.89A4.39,4.39,0,0,0,412.72,233.43Z" style="fill:#BA68C8"></path><path d="M412.72,233.43l1,28.76h0a3.52,3.52,0,0,0,.3,1.25,6,6,0,0,0,2.67,2.62,16.25,16.25,0,0,0,14.3,0,6,6,0,0,0,2.66-2.63,3.6,3.6,0,0,0,.29-1.09v0a1.71,1.71,0,0,0,0-.32v0l.92-28.55a4.53,4.53,0,0,0,.83-2.38l-1.11,34.83,0,.35c-.11,1.49-1.15,3-3.12,4.11a16.78,16.78,0,0,1-15.18,0c-2.05-1.18-3.1-2.72-3.15-4.27V266l-1.26-34.89A4.39,4.39,0,0,0,412.72,233.43Z" style="fill:#fff;opacity:0.9"></path><path d="M415.4,235.78c4.66,2.67,12.21,2.66,16.86,0a8,8,0,0,0,2.65-2.33L434,262v.36a3.6,3.6,0,0,1-.29,1.09A6,6,0,0,1,431,266a16.25,16.25,0,0,1-14.3,0,6,6,0,0,1-2.67-2.62,3.52,3.52,0,0,1-.3-1.25h0l-1-28.76A8,8,0,0,0,415.4,235.78Z" style="fill:#BA68C8"></path><path d="M415.4,235.78c4.66,2.67,12.21,2.66,16.86,0a8,8,0,0,0,2.65-2.33L434,262v.36a3.6,3.6,0,0,1-.29,1.09A6,6,0,0,1,431,266a16.25,16.25,0,0,1-14.3,0,6,6,0,0,1-2.67-2.62,3.52,3.52,0,0,1-.3-1.25h0l-1-28.76A8,8,0,0,0,415.4,235.78Z" style="fill:#fff;opacity:0.7000000000000001"></path><path d="M434,262.24c-.08,1.38-1.07,2.74-2.95,3.8a16.25,16.25,0,0,1-14.3,0c-1.89-1.05-2.88-2.41-3-3.79l-.88-24.55c-.1-1.62,1-3.26,3.19-4.5a17.76,17.76,0,0,1,15.49,0c2.23,1.23,3.3,2.86,3.21,4.48Z" style="fill:#BA68C8"></path><path d="M431,266a16.25,16.25,0,0,1-14.3,0c-4-2.2-4-5.79,0-8A16.24,16.24,0,0,1,431,258C435,260.24,435,263.82,431,266Z" style="opacity:0.05"></path><path d="M434,262.24c-.08,1.38-1.07,2.74-2.95,3.8a16.25,16.25,0,0,1-14.3,0c-1.89-1.05-2.88-2.41-3-3.79l-.88-24.55c-.1-1.62,1-3.26,3.19-4.5a17.76,17.76,0,0,1,15.49,0c2.23,1.23,3.3,2.86,3.21,4.48Z" style="fill:#fff;opacity:0.15"></path><path d="M431.59,241.79a17.73,17.73,0,0,1-15.49,0c-4.28-2.37-4.29-6.22,0-8.6a17.76,17.76,0,0,1,15.49,0C435.85,235.57,435.86,239.41,431.59,241.79Z" style="fill:#fff;opacity:0.4"></path><path d="M416.1,241.83c3.71,2,9.41,2.3,13.65.79-5.9,1-11.45-1.7-11-5.25,0-.07,0-.15,0-.22a14,14,0,0,1-3.41-1.38,9.24,9.24,0,0,1-1.38-.94C412,237.11,412.68,239.94,416.1,241.83Z" style="fill:#BA68C8;opacity:0.2"></path><path d="M411.89,231v.05a4.39,4.39,0,0,0,.82,2.35,8,8,0,0,0,2.68,2.35c4.66,2.67,12.21,2.66,16.86,0a8,8,0,0,0,2.65-2.33,4.53,4.53,0,0,0,.83-2.38c.08-1.82-1.09-3.64-3.5-5-4.66-2.68-12.21-2.66-16.86,0C413,227.42,411.84,229.23,411.89,231Zm4-4.51a18.1,18.1,0,0,1,15.8,0c4.37,2.41,4.38,6.34,0,8.77a18.13,18.13,0,0,1-15.8,0C411.56,232.88,411.55,229,415.91,226.52Z" style="fill:#BA68C8"></path><path d="M411.89,231v.05a4.39,4.39,0,0,0,.82,2.35,8,8,0,0,0,2.68,2.35c4.66,2.67,12.21,2.66,16.86,0a8,8,0,0,0,2.65-2.33,4.53,4.53,0,0,0,.83-2.38c.08-1.82-1.09-3.64-3.5-5-4.66-2.68-12.21-2.66-16.86,0C413,227.42,411.84,229.23,411.89,231Zm4-4.51a18.1,18.1,0,0,1,15.8,0c4.37,2.41,4.38,6.34,0,8.77a18.13,18.13,0,0,1-15.8,0C411.56,232.88,411.55,229,415.91,226.52Z" style="fill:#fff;opacity:0.88"></path><path d="M415.93,235.29a18.13,18.13,0,0,0,15.8,0c4.36-2.43,4.35-6.36,0-8.77a18.1,18.1,0,0,0-15.8,0C411.55,229,411.56,232.88,415.93,235.29Z" style="fill:#BA68C8"></path><path d="M415.93,235.29a18.13,18.13,0,0,0,15.8,0c4.36-2.43,4.35-6.36,0-8.77a18.1,18.1,0,0,0-15.8,0C411.55,229,411.56,232.88,415.93,235.29Z" style="fill:#fff;opacity:0.7000000000000001"></path><path d="M433.14,234.3a9.14,9.14,0,0,1-1.41,1,18.13,18.13,0,0,1-15.8,0,9.35,9.35,0,0,1-1.41-.95,8,8,0,0,1,1.56-1.11,17.76,17.76,0,0,1,15.49,0A8.85,8.85,0,0,1,433.14,234.3Z" style="fill:#BA68C8"></path><path d="M433.14,234.3a9.14,9.14,0,0,1-1.41,1,18.13,18.13,0,0,1-15.8,0,9.35,9.35,0,0,1-1.41-.95,8,8,0,0,1,1.56-1.11,17.76,17.76,0,0,1,15.49,0A8.85,8.85,0,0,1,433.14,234.3Z" style="fill:#fff;opacity:0.35000000000000003"></path><path d="M431.57,233.2l-.41-.21h0c-.22-.11-.44-.21-.67-.3a15.55,15.55,0,0,0-4-1.06c-.37-.05-.76-.1-1.14-.12s-.66-.05-1-.05h-.55q-.52,0-1.05,0a18,18,0,0,0-3.56.54,13.78,13.78,0,0,0-3.13,1.22l-.42.25-.08.05-.33.22-.05,0a4.08,4.08,0,0,0-.33.25h0c-.12.1-.23.19-.33.29a9.35,9.35,0,0,0,1.41.95,14,14,0,0,0,3.1,1.21C420.39,233.47,426.5,231.7,431.57,233.2Z" style="opacity:0.03"></path><path d="M413.82,263.71l.08,2v.14c.14,3,4.57,5.31,10,5.29s9.82-2.37,10-5.3v-.18l.06-2c-.53,2.78-4.83,5-10.05,5S414.38,266.48,413.82,263.71Z" style="fill:#BA68C8;opacity:0.1"></path></g><g id="freepik--Ice--inject-116"><path d="M422.9,242.5l3,4.92a1.19,1.19,0,0,0,1,.59l6.26-.58c.32,0,.4-.34.19-.69l-3-4.93a1.19,1.19,0,0,0-1-.58l-6.27.58C422.76,241.84,422.68,242.15,422.9,242.5Z" style="fill:#fff;opacity:0.5"></path><path d="M421.17,248.94l3,4.93a1.54,1.54,0,0,0,.45.43l1.73-6.44a1.32,1.32,0,0,1-.44-.44l-3-4.92c-.21-.34-.15-.63.13-.68a.8.8,0,0,0-.65.53l-1.48,5.47A1.73,1.73,0,0,0,421.17,248.94Z" style="fill:#fff;opacity:0.4"></path><path d="M424.65,254.3a.91.91,0,0,0,.25.11l.06,0,.14,0h.07l6.27-.58a.84.84,0,0,0,.71-.54l1.47-5.47a1.64,1.64,0,0,0-.22-1c.16.32.07.58-.23.61l-6.26.58a1,1,0,0,1-.53-.15Z" style="fill:#fff;opacity:0.30000000000000004"></path><path d="M417,256.59l5.11,1.71a1.11,1.11,0,0,0,1.05-.17l4.13-4.15c.21-.21.09-.48-.28-.6l-5.11-1.71a1.12,1.12,0,0,0-1,.16L416.76,256C416.55,256.2,416.68,256.47,417,256.59Z" style="fill:#fff;opacity:0.5"></path><path d="M419.47,263l5.11,1.71a1.28,1.28,0,0,0,.58.05l-2.43-6.46a1.28,1.28,0,0,1-.58,0L417,256.59c-.34-.12-.47-.37-.31-.57a.79.79,0,0,0-.15.77l2,5.61A1.64,1.64,0,0,0,419.47,263Z" style="fill:#fff;opacity:0.4"></path><path d="M425.16,264.8l.25-.07,0,0,.11-.07.06-.05,4.13-4.15a.81.81,0,0,0,.19-.81l-2-5.61a1.6,1.6,0,0,0-.77-.61c.3.13.39.38.19.57l-4.13,4.16a.92.92,0,0,1-.47.2Z" style="fill:#fff;opacity:0.30000000000000004"></path><path d="M414.59,244l5.39-1.36a1.05,1.05,0,0,0,.63-.78l1.12-5.23c.07-.36-.09-.6-.36-.53L416,237.44a1.06,1.06,0,0,0-.64.78l-1.11,5.23C414.15,243.81,414.31,244.05,414.59,244Z" style="fill:#fff;opacity:0.4"></path><path d="M418.43,249.16l5.39-1.36a.89.89,0,0,0,.39-.28l-3.84-5.19a.85.85,0,0,1-.39.29L414.59,244c-.26.06-.42-.15-.37-.48a1.59,1.59,0,0,0,.12,1l3.34,4.43A.72.72,0,0,0,418.43,249.16Z" style="fill:#fff;opacity:0.30000000000000004"></path><path d="M424.21,247.52a1.64,1.64,0,0,0,.14-.22l0-.05a.53.53,0,0,0,.06-.14.29.29,0,0,0,0-.09l1.12-5.23a1.62,1.62,0,0,0-.12-1l-3.33-4.43a.73.73,0,0,0-.69-.26c.24,0,.37.2.3.54l-1.12,5.23a1.25,1.25,0,0,1-.24.49Z" style="fill:#fff;opacity:0.5"></path></g></g><g id="freepik--Coffe--inject-116"><path d="M402.77,258.68c.44-.05,4.42-.62,8.43-6.58,1.91-2.83,3.44-8,2.5-12.06a6.61,6.61,0,0,0-3.06-4.44c-4.26-2.46-8,.2-9.34,1.94l2.6,2-1.3-1,1.29,1c.23-.29,2.32-2.74,5.1-1.13a3.37,3.37,0,0,1,1.5,2.32c.67,2.89-.51,7.23-2,9.48-3.13,4.64-6,5.14-6,5.14Z" style="fill:#fff"></path><path d="M373.76,234.5l33.26.1-3,26.64h0c0,2-1.35,4-4,5.5-5.31,3.07-13.93,3.07-19.24,0-2.64-1.53-4-3.52-4-5.52Z" style="fill:#f5f5f5"></path><path d="M402.17,227.18c6.51,3.75,6.51,9.84,0,13.6s-17.05,3.76-23.56,0-6.51-9.85,0-13.6S395.66,223.42,402.17,227.18Z" style="fill:#fff"></path><path d="M375.93,234a3.82,3.82,0,0,0,.76,2.23,8.63,8.63,0,0,0,3,2.69,23.93,23.93,0,0,0,21.38,0,8.67,8.67,0,0,0,3-2.69,3.88,3.88,0,0,0,.75-2.23c0-1.72-1.36-3.48-3.77-4.88a23.93,23.93,0,0,0-21.38,0C377.3,230.48,375.93,232.24,375.93,234Z" style="fill:#BA68C8"></path><path d="M376.69,236.19a8.63,8.63,0,0,0,3,2.69,23.93,23.93,0,0,0,21.38,0,8.67,8.67,0,0,0,3-2.69,5.63,5.63,0,0,0-.54-.72,6.24,6.24,0,0,0-.68-.68,10.53,10.53,0,0,0-1.8-1.3,24,24,0,0,0-21.38,0,10.06,10.06,0,0,0-1.79,1.3,6.32,6.32,0,0,0-.69.68A4.73,4.73,0,0,0,376.69,236.19Z" style="fill:#263238"></path></g></g><g id="freepik--Character--inject-116"><g id="freepik--character--inject-116"><g id="freepik--Bottom--inject-116"><g id="freepik--bottom--inject-116"><path d="M186.44,388c-.87-.51-1.67.76-1.87,2.42s1.52,3.94,3.51,5.43,9.1,3.54,11.88,5c2,1.06,3.95,4.41,7.31,7.86s7.94,8.17,18.67,8,12.48-1.89,14.19-3.26,1.56-3.91.35-4.45S186.44,388,186.44,388Z" style="fill:#BA68C8"></path><path d="M186.44,388c-.87-.51-1.67.76-1.87,2.42s1.52,3.94,3.51,5.43,9.1,3.54,11.88,5c2,1.06,3.95,4.41,7.31,7.86s7.94,8.17,18.67,8,12.48-1.89,14.19-3.26,1.56-3.91.35-4.45S186.44,388,186.44,388Z" style="opacity:0.2"></path><path d="M139.52,375.58c-10.51-.6-11.07,6.71-12.7,13.87-2,8.82-5.29,21.67-4.75,27.78.78,8.91,5,13.76,13.73,15.41,8.34,1.58,13-2.5,14.17-9.41s.95-14,.31-23.94S150.85,376.23,139.52,375.58Z" style="fill:#BA68C8"></path><path d="M139.52,375.58c-10.51-.6-11.07,6.71-12.7,13.87-2,8.82-5.29,21.67-4.75,27.78.78,8.91,5,13.76,13.73,15.41,8.34,1.58,13-2.5,14.17-9.41s.95-14,.31-23.94S150.85,376.23,139.52,375.58Z" style="opacity:0.2"></path><path d="M185.19,287.11a54.18,54.18,0,0,0-2.89,20c.32,9,3.29,32.45,3.29,32.45.88,4,3,18.38,3.52,23,.84,6.93.6,12-.32,15.21-.62,2.11-3.63,5.66-3.18,10.43.34,3.55,2.79,5.41,6,7,2.65,1.36,5.66,1.88,8.24,3.33a26.37,26.37,0,0,1,6.83,6.24c1.86,2.22,3.39,4.86,6,6.38,2.84,1.68,5.51,2.14,8.75,2.69A47,47,0,0,0,233,414c5.49-.62,8.41-2.66,6.4-6.91-.32-.67-1.36-1.74-4-3.91-2.31-1.91-5.63-4.39-8.79-6.74-2.69-2-12.47-12.75-13.73-16.11-.69-1.87-1.88-4.77-1.37-12.19.75-10.73,1.39-17.65,3.88-39.51s5.82-45.29,5.8-71.25-6.43-71.51-6.43-71.51l-72.47-1c-5.3,13.77-8,25.6-8.23,47.55s-.64,58.23-.64,58.23c-1,9.51-5.74,17.58-4.1,42.24.76,11.3,1.13,22.87,1.25,31.58.1,7.62,0,15-1.58,22.47-1.11,5.29-2.4,10.55-3.39,15.87-.73,4-2.71,9,0,12.59a9.32,9.32,0,0,1,1,1.36c.74,1.49.19,3.6,1.46,4.68.53.46,1.29.61,1.74,1.15a7,7,0,0,1,.66,1.34c1.09,2.11,4.29,1.86,6.08,3.43.54.48.94,1.11,1.49,1.57,1.74,1.47,4.58.76,6.13-.91s2.16-4,2.71-6.21c.72-2.89,1.46-5.77,2.15-8.67.64-2.67.36-5.35.22-8.11q-.37-7.44-.74-14.88c-.54-10.78,1.36-20.65,3-28.34,2.47-11.27,4.81-21.31,6.83-31.1,3.45-16.72,5.78-24.26,8.44-35.52C169,285.91,176.5,253,179,241.93Z" style="fill:#ffa8a7"></path><path d="M215.33,413c-4-1.92-8.74-7.38-8.74-7.38s1.2-3.94,8.93-8.33c3.79-2.15,9.61-2.5,10.5-2.09,4,3,8.23,6.05,10.59,7.89,2.85,2.23,4.52,3.06,4.21,7.58C240.54,414.82,223.6,417.18,215.33,413Z" style="fill:#BA68C8"></path><path d="M124.7,406.22c4.87-4.94,22.57-3.82,24.87,3.42.42,12.22-1.42,23.19-12.67,21.3S121.29,420.59,124.7,406.22Z" style="fill:#BA68C8"></path></g><path d="M214,170.4,151.21,170c-7.68,11.9-15.16,15.19-17.39,47.77-1,14-1.09,21.9-1.2,30.34,0,0,1.18,6.89,17.88,11a37.56,37.56,0,0,0,26.27-3l2-9.35.46,5.2c.12,0,25.77,10.94,42.47-8.65C221.06,218.22,218.76,192.37,214,170.4Z" style="fill:#37474f"></path><path d="M209.86,201.63c-8.15,8.46-22.82,9.51-22.82,9.51l-8.23,35.68.46,5.2a37.42,37.42,0,0,0,3.74,1.21l-.24-5.22,6.46-29.84C194.52,216.91,206.56,210.62,209.86,201.63Z" style="fill:#263238"></path></g><g id="freepik--Top--inject-116"><g id="freepik--PonyTail--inject-116"><path d="M164.6,116.44c-6.6,3.39-14.65,2.37-21-1-5.54-3-10.62-8.86-8.55-15.58.72-2.34,2.08-4.6,1.89-7-.16-2.26-1.61-4.19-2.4-6.31a13.08,13.08,0,0,1,1.36-11.14c2.17-3.56,5.78-6.22,7.31-10.1s.69-8.3,1.24-12.46c.92-6.85,6.09-11.74,12.46-13.8,7.32-2.36,18.43-1,15.16,9.58-.67,2.15-2,4-3,6.05a21.81,21.81,0,0,0-1.31,12.31c.41,2.74.91,5.8,2.26,8.22a41.37,41.37,0,0,1,3.85,9.31,52.6,52.6,0,0,1,1.65,9.74c.23,3,.94,7.24,0,10.1C174.08,109.1,169,114.18,164.6,116.44Z" style="fill:#263238"></path><path d="M161.22,47.88a1.63,1.63,0,0,0,.17.2,4,4,0,0,0,4.79.34,9.72,9.72,0,0,0,3.34-3.89c1-1.82,2.65-5.27.75-7.13a2.83,2.83,0,0,0-2.32-.7,5.53,5.53,0,0,0-2.32.91,11.67,11.67,0,0,0-4.54,5.26C160.39,44.48,160.14,46.53,161.22,47.88Z" style="fill:#BA68C8"></path></g><g id="freepik--Arm--inject-116"><path d="M280.25,199.6c2.35-.75,3.17-9,3.34-12.45s-4-7.46-5.5-8.91-14.76-4.62-14.76-4.62l2.27,18.12Z" style="fill:#f28f8f"></path><path d="M274.37,178.89l-6.88-1.41a4.92,4.92,0,0,0-1.3-3.56L236.39,148s-3.12-6.59-11.3-24c-10.07-21.38-12.09-22.21-23.24-24a46.43,46.43,0,0,0,0,28.89S207,139.2,213,150.67c4.86,9.2,5,12.17,11.06,16,7,4.45,22.21,13.48,29,17.5h0c3.41,2,3.29,4.5,6.41,6.77a10,10,0,0,0,7.06,1.51s14.42,1.67,14.3,1.39Z" style="fill:#ffa8a7"></path><g id="freepik--Pan--inject-116"><path d="M258,181.56c0,.35,0,1.68,0,2a2.52,2.52,0,0,0,1.48,2.14l56.47,33.6a8.12,8.12,0,0,0,7.33.1,2.57,2.57,0,0,0,1.54-2.1,1.94,1.94,0,0,0-.3-1,1.9,1.9,0,0,0,.32-1,2.54,2.54,0,0,0-1.48-2.13l-56.47-33.6a8.12,8.12,0,0,0-7.33-.1A2.56,2.56,0,0,0,258,181.56Zm3.72,1.25a4,4,0,0,1,3.61.06l.05,0-.05,0a4,4,0,0,1-3.6,0l-.06,0Z" style="fill:#263238"></path><path d="M323.28,213.18l-56.47-33.6a8.12,8.12,0,0,0-7.33-.1c-2,1.15-2.06,3-.06,4.23l56.48,33.6a8.07,8.07,0,0,0,7.32.1,2.24,2.24,0,0,0,.06-4.23Zm-58-32.32a1.09,1.09,0,0,1,0,2.07,4,4,0,0,1-3.6,0,1.1,1.1,0,0,1,0-2.09A4,4,0,0,1,265.31,180.86Z" style="fill:#37474f"></path><path d="M290,211c.06-4.86,3.34-9.67,9.8-13.3,12.93-7.24,33.74-7,46.48.61,6.37,3.79,9.51,8.69,9.45,13.55,0,2.95-.06,4.89-.1,7.84-.07,4.85-3.34,9.67-9.8,13.29-12.94,7.24-33.75,7-46.48-.61-6.37-3.79-9.52-8.69-9.45-13.54C290,215.93,290,214,290,211Z" style="fill:#263238"></path><path d="M346.31,198.35c6.37,3.79,9.51,8.69,9.45,13.55s-3.34,9.67-9.8,13.29c-12.93,7.24-33.74,7-46.48-.61-6.37-3.79-9.51-8.69-9.45-13.54s3.34-9.67,9.8-13.3C312.76,190.5,333.57,190.78,346.31,198.35Z" style="fill:#455a64"></path><path d="M344.94,199.71c6,3.4,9,7.8,8.91,12.16s-3.14,8.68-9.23,11.93c-12.17,6.49-31.77,6.23-43.77-.58-6-3.4-9-7.8-8.91-12.16s3.14-8.68,9.23-11.92C313.34,192.64,332.94,192.9,344.94,199.71Z" style="fill:#263238"></path><path d="M301.08,206c12.17-6.5,31.77-6.24,43.77.57,4.42,2.51,7.19,5.56,8.32,8.73-1.21,3.15-4.06,6.12-8.55,8.52-12.17,6.49-31.77,6.23-43.77-.58-4.42-2.51-7.19-5.56-8.32-8.73C293.74,211.34,296.59,208.37,301.08,206Z" style="fill:#37474f"></path><path d="M345.62,217.5c.06.89-.64,1.77-1.83,2.32-.84.38-1.86.59-2.7,1a2.87,2.87,0,0,0-2,2.22c0,.66.29,1.35-.15,2a2.79,2.79,0,0,1-1,.74,9.66,9.66,0,0,1-5,.72c-2.36-.27-4.31-1.32-6.68-1.55-1.63-.16-3.29.09-4.93,0-3-.23-5.56-1.89-5.57-3.66,0-.78.42-1.53.49-2.31.12-1.21-.63-2.4-.88-3.61a2.73,2.73,0,0,1,1.92-3.26,9.16,9.16,0,0,1,3.43-.37,24.25,24.25,0,0,0,5.57.11c1-.18,1.81-.55,2.76-.77a14.37,14.37,0,0,1,7.34.5c1.26.57,2.33,1.23,3.54,1.82.85.42,1.86.73,2.72,1.16C344.19,215.2,345.54,216.32,345.62,217.5Z" style="fill:#fafafa"></path><path d="M300.66,212.28c-.07-.89.64-1.77,1.83-2.32.83-.38,1.86-.59,2.7-1a2.91,2.91,0,0,0,2-2.22c0-.66-.3-1.35.14-2a2.93,2.93,0,0,1,1-.74,9.66,9.66,0,0,1,5-.72c2.35.27,4.31,1.32,6.68,1.55,1.62.16,3.29-.09,4.92,0,3,.23,5.57,1.89,5.58,3.66,0,.77-.42,1.53-.5,2.31-.11,1.21.63,2.4.89,3.61a2.72,2.72,0,0,1-1.93,3.26,9.11,9.11,0,0,1-3.43.37A24.23,24.23,0,0,0,320,218c-1,.18-1.8.55-2.75.77a14.51,14.51,0,0,1-7.35-.5c-1.25-.57-2.33-1.23-3.53-1.82-.86-.42-1.87-.73-2.73-1.16C302.09,214.58,300.74,213.46,300.66,212.28Z" style="fill:#fafafa"></path><path id="freepik--sphere-12--inject-116" d="M325.07,217.64a2.52,2.52,0,0,0,1.45,2.08,7.89,7.89,0,0,0,7.13.09,2.53,2.53,0,0,0,1.51-2,5,5,0,1,0-10.09-.13Z" style="fill:#BA68C8"></path><path id="freepik--sphere-12--inject-116" d="M310.91,210.25a2.49,2.49,0,0,0,1.45,2.08,7.86,7.86,0,0,0,7.13.09,2.49,2.49,0,0,0,1.5-2,5,5,0,1,0-10.08-.14Z" style="fill:#BA68C8"></path></g><path d="M270.63,184a18.38,18.38,0,0,0-1.56-1c-3-1.77-6.28-2.11-9.64-2.67-1.92-.32-4.55-2.74-4.53-4.8,0-1,.14-2,.13-3,0-1.75.14-8.11,3.29-5.37,4,3.45,9,5.62,13.55,8.11,4,2.18,5.45,6.51,8.5,9.66.52.54,1.73,1.49,1.36,2.29s-2.1.83-2.73.82a10.69,10.69,0,0,1-5.32-1.78C272.63,185.51,271.65,184.71,270.63,184Z" style="fill:#ffa8a7"></path><path d="M261.3,193.8a4.48,4.48,0,0,0,2.94,1.85,1.63,1.63,0,0,0,1.59-.92,6.31,6.31,0,0,0,2.15,2,2.15,2.15,0,0,0,2.65-.54,5.76,5.76,0,0,0,2,1.87,1.94,1.94,0,0,0,2.46-.61c-.24.45,1.76,1.73,2.06,1.88a5,5,0,0,0,3.07.3c-.49-1-1.07-2.24-1.56-3.25-.88-1.8-1.93-3.67-4.27-3.45a1.07,1.07,0,0,1-.64-.05.9.9,0,0,1-.31-.36,8.58,8.58,0,0,0-1.94-2.48,3,3,0,0,0-3-.57.46.46,0,0,1-.23.06c-.15,0-.24-.18-.3-.32-.52-1.1-2-2.65-3.31-2.61a1.38,1.38,0,0,0-1.36,1.07A6.5,6.5,0,0,0,262,185a3.36,3.36,0,0,0-2.59-1.18.44.44,0,0,0-.38.15.5.5,0,0,0-.07.3q0,2.12,0,4.23a6.6,6.6,0,0,0,.19,1.89,5.64,5.64,0,0,0,.68,1.34A20,20,0,0,0,261.3,193.8Z" style="fill:#ffa8a7"></path></g><path id="freepik--Chest--inject-116" d="M140.21,186.8c-3.28-3,11.06-22.26,9.67-29-1.35-6.53-5.44-16.49-5.44-16.49s11-13.06,8.19-38.73L167.82,100l12-.54,11.26-.78,10.77,1.47c3.18,2.94,8.52,9.66,13.11,16.64,6.63,10.08,7.38,22.53,0,30.37-.13,1.57-1.53,16,.1,22,.64,2.38,3.74,16.91,2.1,20C205,203.82,162.48,206.25,140.21,186.8Z" style="fill:#fafafa"></path><path id="freepik--chest--inject-116" d="M191.05,99.64l10.35,1.41c3.21,3,8.39,9.65,12.73,16.24,6.77,10.3,6.8,22,.08,29.14l-.24.25,0,.35,0,.4c-.65,7.38-1.15,17.18.16,22,1,3.8,3.44,16.53,2.23,19.2-5.78,6.89-18.74,11.16-33.87,11.16-16.43,0-31.58-5-41.55-13.7-1.08-1,2.2-7.59,4.37-11.95,3.13-6.29,6.38-12.8,5.61-16.49-1.19-5.75-4.4-13.95-5.28-16.13,1.94-2.6,10.34-15.26,8.14-38.06L167.93,101l12-.55,11.16-.76m0-1-11.26.78-12,.54-15.19,2.66c2.77,25.67-8.19,38.73-8.19,38.73s4.09,10,5.44,16.49c1.39,6.71-12.95,26-9.67,29,11.12,9.72,27.3,14,42.22,14s28.64-4.27,34.71-11.61c1.64-3.11-1.46-17.64-2.1-20-1.63-6-.23-20.46-.1-22,7.4-7.84,6.65-20.29,0-30.37-4.59-7-9.93-13.7-13.11-16.64l-10.77-1.47Z" style="fill:#e0e0e0"></path><g id="freepik--Head--inject-116"><path d="M201.41,37.12c-13.29-7-32.75-5.43-37,7.76-9.9,2.62-10.06,13.62-6.59,21.71,4,9.36,8.83,16.51,10.12,21.09l38.16-22C210.74,62.44,216.06,44.86,201.41,37.12Z" style="fill:#263238"></path><g id="freepik--head--inject-116"><path d="M165.2,81.83a7.67,7.67,0,0,1-6.88-2.77c-3.57-4.07-3.83-8.16-2.09-10.85,1.44-2.21,4.91-3.58,7.3-2,2.55,1.66,2.6,3,3.55,4.83s3.47.46,2.76-6.9c5.06-2.26,4.41-10.67,7.18-14.05,4.33-5.28,11.29-3.76,13.53-2.46a9.09,9.09,0,0,1,9.52-.43c3.34,1.86,5.51,5.7,6.46,18.76,1,13.32-.38,20.57-3.35,23.49-2.49,2.46-7.36,3.92-12,3.57l-.07,6.16s11.31,15.68-5.89,14.08C172.3,112,167.82,100,167.82,100l.26-20.16S167.78,81.39,165.2,81.83Z" style="fill:#ffa8a7"></path><path d="M194,80.7A3.84,3.84,0,1,1,186.75,78Z" style="fill:#b16668"></path><path d="M186.53,79.27A3.84,3.84,0,0,0,189,83a3.67,3.67,0,0,0,1.34.23A3.89,3.89,0,0,0,186.53,79.27Z" style="fill:#f28f8f"></path><path d="M204.42,61.57,199.84,59a2.51,2.51,0,0,1,3.49-1.07A2.75,2.75,0,0,1,204.42,61.57Z" style="fill:#263238"></path><path d="M198.91,66.35a2.23,2.23,0,0,0,2.81,1.44,2.26,2.26,0,0,0,1.33-2.88,2.19,2.19,0,1,0-4.14,1.44Z" style="fill:#263238"></path><path d="M182.8,66.8a2.19,2.19,0,1,0,1.32-2.88A2.22,2.22,0,0,0,182.8,66.8Z" style="fill:#263238"></path><path d="M185.36,59.15l-4.73,3a2.7,2.7,0,0,1,.75-3.84A3,3,0,0,1,185.36,59.15Z" style="fill:#263238"></path><polygon points="201.21 73.46 194.26 76.54 192.39 62.91 201.21 73.46" style="fill:#f28f8f"></polygon><path d="M191.15,93c-6.73-.38-15.72-2.32-18.06-6.71,1.26,4.71,6,7.22,9.73,8.36a39.11,39.11,0,0,0,8.23,1.58Z" style="fill:#f28f8f"></path></g></g><path d="M188.25,184.44a4,4,0,0,0-4.1,6.88c3.93,2.34,17.51,8.94,23.14,12.29h0a1.36,1.36,0,0,0,1.36-.12,4.27,4.27,0,0,0,2-3.32,1.38,1.38,0,0,0-.55-1.26h0C204.45,195.57,192.18,186.78,188.25,184.44Z" style="fill:#BA68C8"></path><path d="M210.63,200.17c0-1.22-.84-1.73-1.91-1.13a4.27,4.27,0,0,0-2,3.3c0,1.23.84,1.74,1.91,1.14A4.27,4.27,0,0,0,210.63,200.17Z" style="opacity:0.2"></path><path d="M251.32,235.58a2.41,2.41,0,0,0,2.19.28l13.74-7.7c.53-.29.33-.89-.42-1.27l-22.41-11.3a2.27,2.27,0,0,0-1.92-.12l-4.38,2.45-28.92-17.2c-.37-.23-1.12,1-.74,1.24l28.2,16.78-4.38,2.45c-.46.26-.39.74.15,1.12Zm-5.48-17.31c.29-.16,1.57.25,2.86.92l12.46,6.46c1.29.66,2.1,1.34,1.81,1.5s-1.57-.25-2.86-.92l-12.46-6.45C246.36,219.11,245.55,218.44,245.84,218.27Zm-2.2,1.24c.29-.16,1.54.27,2.79,1l12,6.68c1.25.7,2,1.39,1.74,1.55s-1.54-.27-2.79-1l-12-6.68C244.13,220.36,243.35,219.67,243.64,219.51Zm-.54,2.82c-1.21-.71-1.95-1.43-1.66-1.59s1.5.29,2.71,1l11.61,6.91c1.21.72,1.95,1.43,1.66,1.59s-1.5-.29-2.7-1Zm8.92,8.43-11.2-7.15c-1.16-.74-1.87-1.47-1.58-1.64s1.46.31,2.63,1.05l11.2,7.15c1.16.74,1.87,1.47,1.58,1.63S253.19,231.5,252,230.76Zm-2.68,1.51-10.81-7.39c-1.12-.76-1.79-1.51-1.5-1.67s1.43.32,2.55,1.09l10.8,7.38c1.12.76,1.79,1.51,1.5,1.68S250.45,233,249.34,232.27Z" style="fill:#fafafa"></path><path d="M152.63,102.61c-8.95,1.71-16.06,4.26-19.31,18.14s-6.73,27.26-8.63,36c-2.37,10.89-2,14.27,4.47,18.15s13.6,7,20.45,10.17c6.59,3.09,13.25,6.05,19.81,9.22a34.87,34.87,0,0,1,8,5.52c2.16,1.92,4.66,4.31,7.41,5.32a14.5,14.5,0,0,0,3,.65c1.49.22,3,.4,4.5.56s3.82.21,4-1.94c0,.2,1.76,0,1.92-.07a2.74,2.74,0,0,0,1.47-1.19c.1-.18,1-3.13,1-3.14-3.38-2.12-7.07-4.47-7.34-7.31a3.61,3.61,0,0,1,1.69-3.77l4.92,3.36s-.57-3.09-1.33-5.54c-.48-1.56-3.86-3.81-8.84-5.08s-7.11,1.41-17.47-5.14C159.87,168.63,148,159.14,148,159.14s6-23.55,7.69-28.93C157.94,123.09,159,108.77,152.63,102.61Z" style="fill:#ffa8a7"></path></g></g></g><g id="freepik--speech-bubble--inject-116"><g id="freepik--speech-bubble--inject-116"><g id="freepik--speech-bubble--inject-116"><path d="M269.32,31,234.87,51c-.55.32-1,1.09-1,2.59V100.8a2.15,2.15,0,0,0,1,1.73l4,2.26a2.22,2.22,0,0,0,2,0l34.44-20a2.21,2.21,0,0,0,1-1.73V35a2.16,2.16,0,0,0-1-1.72l-4-2.26A2.2,2.2,0,0,0,269.32,31Z" style="fill:#BA68C8"></path><path d="M269.32,31,234.87,51c-.55.32-1,1.09-1,2.59V100.8a2.15,2.15,0,0,0,1,1.73l4,2.26a2.22,2.22,0,0,0,2,0l34.44-20a2.21,2.21,0,0,0,1-1.73V35a2.16,2.16,0,0,0-1-1.72l-4-2.26A2.2,2.2,0,0,0,269.32,31Z" style="fill:#fff;opacity:0.4"></path><path d="M240.86,104.78a2.29,2.29,0,0,1-2,0l-4-2.26a2.12,2.12,0,0,1-1-1.73V53.59a3.74,3.74,0,0,1,.35-1.86l5.92,3.41a1.83,1.83,0,0,0-.29,1v48.09C239.86,104.8,240.27,105.12,240.86,104.78Z" style="fill:#BA68C8;opacity:0.8"></path><path d="M231.14,78.09c-.63-.37-5.41-3.07-5.57-3.15a.94.94,0,0,1-.19-1.43l8.5-9.74,6,3.43L231,76.69A.94.94,0,0,0,231.14,78.09Z" style="fill:#BA68C8"></path><path d="M231.14,78.09c-.63-.37-5.41-3.07-5.57-3.15a.94.94,0,0,1-.19-1.43l8.5-9.74,6,3.43L231,76.69A.94.94,0,0,0,231.14,78.09Z" style="fill:#fff;opacity:0.4"></path><path d="M275.3,34.42l-34.44,20a2.23,2.23,0,0,0-1,1.73V67.2L231,76.69a.89.89,0,0,0,.57,1.53l8.32-.6h0v26.59c0,.63.45.89,1,.57l34.44-20a2.21,2.21,0,0,0,1-1.73V35C276.3,34.36,275.85,34.1,275.3,34.42Z" style="fill:#fafafa"></path><path d="M275.3,35.58v47.5a1.28,1.28,0,0,1-.5.87l-33.94,19.67V76.54l-1.07.08-7.93.58,8.73-9.32.27-.29V56.12a1.24,1.24,0,0,1,.5-.86L275.3,35.58m.44-1.3a.93.93,0,0,0-.44.14l-34.44,20a2.23,2.23,0,0,0-1,1.73V67.2L231,76.69a.89.89,0,0,0,.57,1.53l8.32-.6h0v26.59c0,.45.22.71.55.71a.84.84,0,0,0,.45-.14l34.44-20a2.21,2.21,0,0,0,1-1.73V35c0-.45-.23-.72-.56-.72Z" style="fill:#BA68C8"></path></g><g id="freepik--Fork--inject-116"><path d="M257.56,59.8c-.12-3.09-.77-5-1.69-5.89-.18-.17-.52.19-.52.56v6.28a1.27,1.27,0,0,1-.52,1c-.29.16-.53,0-.53-.4v-6.5c0-.18-.09-.29-.22-.25a2.36,2.36,0,0,0-.57.25,3.15,3.15,0,0,0-.58.42.73.73,0,0,0-.22.51v6.49a1.24,1.24,0,0,1-.53,1c-.29.17-.52,0-.52-.4V56.6c0-.36-.34-.34-.52,0a20.29,20.29,0,0,0-1.69,7.84c-.09,2.66,1,4.82,2.94,4.49l-.33,21.66c0,1.09.64,1.6,1.45,1.13A3.5,3.5,0,0,0,255,89l-.33-21.29A11.44,11.44,0,0,0,257.56,59.8Z" style="fill:#BA68C8"></path><path d="M264.77,47.73c0-.68-.68-.58-1,.15a37.72,37.72,0,0,0-1.85,6.32c-.61,2.91-1.08,5.64-1.39,7.62s.08,3.53,1,4.27l1.11.88-.26,17.69c0,1.08.63,1.59,1.44,1.12A3.47,3.47,0,0,0,265.3,83Z" style="fill:#BA68C8"></path></g></g></g></svg>
